<svg xmlns="http://www.w3.org/2000/svg" viewBox="0 0 1923.5 1087.5"><defs><style>.cls-1{fill:#1a1a1a;}.cls-2{fill:#ec1c24;}.cls-3,.cls-7,.cls-8{fill:#f6921e;}.cls-3{opacity:0.76;}.cls-4{fill:#652d90;opacity:0.9;}.cls-15,.cls-17,.cls-18,.cls-19,.cls-5{fill:none;stroke-miterlimit:10;}.cls-5{stroke:#f6921e;stroke-width:1.32px;}.cls-5,.cls-6{opacity:0.56;}.cls-11,.cls-6{fill:#faaf40;}.cls-7{opacity:0.95;}.cls-9{fill:#478bc9;}.cls-10{fill:#ec297b;}.cls-11{opacity:0.55;}.cls-12{fill:#f2f2f2;opacity:0.21;}.cls-13{fill:#f15a24;}.cls-14{fill:#f7931e;}.cls-15,.cls-17,.cls-18,.cls-19{stroke:#39b54a;}.cls-15{stroke-width:2px;}.cls-16{fill:#39b54a;}.cls-17{stroke-width:1.72px;}.cls-18{stroke-width:1.69px;}.cls-19{stroke-width:1.65px;}.cls-20{fill:#ff0;opacity:0.85;}.cls-21{fill:#f0f;}.cls-22{fill:#ed1e79;}.cls-23{fill:#fff;opacity:0.08;}</style></defs><g id="Layer_2" data-name="Layer 2"><g id="Layer_1-2" data-name="Layer 1"><rect id="background" class="cls-1" width="1923.5" height="1087.5"/><g id="ranchera-10"><path class="cls-2" d="M1747.73,120.13c0,7.29-10.6,13.21-10.6,13.21s-10.61-5.92-10.61-13.21,4.75-13.21,10.61-13.21S1747.73,112.83,1747.73,120.13Z"/><path class="cls-2" d="M1751.13,144.73c-7.3,0-13.21-10.6-13.21-10.6s5.91-10.61,13.21-10.61,13.21,4.75,13.21,10.61S1758.42,144.73,1751.13,144.73Z"/><path class="cls-2" d="M1723.13,123.52c7.29,0,13.21,10.61,13.21,10.61s-5.92,10.6-13.21,10.6-13.21-4.75-13.21-10.6S1715.83,123.52,1723.13,123.52Z"/><path class="cls-2" d="M1726.52,148.13c0-7.3,10.61-13.21,10.61-13.21s10.6,5.91,10.6,13.21-4.74,13.21-10.6,13.21S1726.52,155.42,1726.52,148.13Z"/><circle class="cls-3" cx="1737.13" cy="133.92" r="3.63"/></g><g id="ranchera-09"><path class="cls-2" d="M456.73,683.13c0,7.29-10.6,13.21-10.6,13.21s-10.61-5.92-10.61-13.21,4.75-13.21,10.61-13.21S456.73,675.83,456.73,683.13Z"/><path class="cls-2" d="M460.13,707.73c-7.3,0-13.21-10.6-13.21-10.6s5.91-10.61,13.21-10.61,13.21,4.75,13.21,10.61S467.42,707.73,460.13,707.73Z"/><path class="cls-2" d="M432.13,686.52c7.29,0,13.21,10.61,13.21,10.61s-5.92,10.6-13.21,10.6-13.21-4.75-13.21-10.6S424.83,686.52,432.13,686.52Z"/><path class="cls-2" d="M435.52,711.13c0-7.3,10.61-13.21,10.61-13.21s10.6,5.91,10.6,13.21-4.74,13.21-10.6,13.21S435.52,718.42,435.52,711.13Z"/><circle class="cls-3" cx="446.13" cy="696.92" r="3.63"/></g><g id="ranchera-08"><path class="cls-2" d="M969.73,661.13c0,7.29-10.6,13.21-10.6,13.21s-10.61-5.92-10.61-13.21,4.75-13.21,10.61-13.21S969.73,653.83,969.73,661.13Z"/><path class="cls-2" d="M973.13,685.73c-7.3,0-13.21-10.6-13.21-10.6s5.91-10.61,13.21-10.61,13.21,4.75,13.21,10.61S980.42,685.73,973.13,685.73Z"/><path class="cls-2" d="M945.13,664.52c7.29,0,13.21,10.61,13.21,10.61s-5.92,10.6-13.21,10.6-13.21-4.75-13.21-10.6S937.83,664.52,945.13,664.52Z"/><path class="cls-2" d="M948.52,689.13c0-7.3,10.61-13.21,10.61-13.21s10.6,5.91,10.6,13.21-4.74,13.21-10.6,13.21S948.52,696.42,948.52,689.13Z"/><circle class="cls-3" cx="959.13" cy="674.92" r="3.63"/></g><g id="ranchera-07"><path class="cls-2" d="M1369.73,74.13c0,7.29-10.6,13.21-10.6,13.21s-10.61-5.92-10.61-13.21,4.75-13.21,10.61-13.21S1369.73,66.83,1369.73,74.13Z"/><path class="cls-2" d="M1373.13,98.73c-7.3,0-13.21-10.6-13.21-10.6s5.91-10.61,13.21-10.61,13.21,4.75,13.21,10.61S1380.42,98.73,1373.13,98.73Z"/><path class="cls-2" d="M1345.13,77.52c7.29,0,13.21,10.61,13.21,10.61s-5.92,10.6-13.21,10.6-13.21-4.75-13.21-10.6S1337.83,77.52,1345.13,77.52Z"/><path class="cls-2" d="M1348.52,102.13c0-7.3,10.61-13.21,10.61-13.21s10.6,5.91,10.6,13.21-4.74,13.21-10.6,13.21S1348.52,109.42,1348.52,102.13Z"/><circle class="cls-3" cx="1359.13" cy="87.92" r="3.63"/></g><g id="ranchera-06"><path class="cls-2" d="M1318.73,944.13c0,7.29-10.6,13.21-10.6,13.21s-10.61-5.92-10.61-13.21,4.75-13.21,10.61-13.21S1318.73,936.83,1318.73,944.13Z"/><path class="cls-2" d="M1322.13,968.73c-7.3,0-13.21-10.6-13.21-10.6s5.91-10.61,13.21-10.61,13.21,4.75,13.21,10.61S1329.42,968.73,1322.13,968.73Z"/><path class="cls-2" d="M1294.13,947.52c7.29,0,13.21,10.61,13.21,10.61s-5.92,10.6-13.21,10.6-13.21-4.75-13.21-10.6S1286.83,947.52,1294.13,947.52Z"/><path class="cls-2" d="M1297.52,972.13c0-7.3,10.61-13.21,10.61-13.21s10.6,5.91,10.6,13.21-4.74,13.21-10.6,13.21S1297.52,979.42,1297.52,972.13Z"/><circle class="cls-3" cx="1308.13" cy="957.92" r="3.63"/></g><g id="ranchera-05"><path class="cls-2" d="M537.73,59.13c0,7.29-10.6,13.21-10.6,13.21s-10.61-5.92-10.61-13.21,4.75-13.21,10.61-13.21S537.73,51.83,537.73,59.13Z"/><path class="cls-2" d="M541.13,83.73c-7.3,0-13.21-10.6-13.21-10.6s5.91-10.61,13.21-10.61,13.21,4.75,13.21,10.61S548.42,83.73,541.13,83.73Z"/><path class="cls-2" d="M513.13,62.52c7.29,0,13.21,10.61,13.21,10.61s-5.92,10.6-13.21,10.6S499.92,79,499.92,73.13,505.83,62.52,513.13,62.52Z"/><path class="cls-2" d="M516.52,87.13c0-7.3,10.61-13.21,10.61-13.21s10.6,5.91,10.6,13.21-4.74,13.21-10.6,13.21S516.52,94.42,516.52,87.13Z"/><circle class="cls-3" cx="527.13" cy="72.92" r="3.63"/></g><g id="ranchera-04"><path class="cls-2" d="M114.73,467.13c0,7.29-10.6,13.21-10.6,13.21s-10.61-5.92-10.61-13.21,4.75-13.21,10.61-13.21S114.73,459.83,114.73,467.13Z"/><path class="cls-2" d="M118.13,491.73c-7.3,0-13.21-10.6-13.21-10.6s5.91-10.61,13.21-10.61,13.21,4.75,13.21,10.61S125.42,491.73,118.13,491.73Z"/><path class="cls-2" d="M90.13,470.52c7.29,0,13.21,10.61,13.21,10.61s-5.92,10.6-13.21,10.6S76.92,487,76.92,481.13,82.83,470.52,90.13,470.52Z"/><path class="cls-2" d="M93.52,495.13c0-7.3,10.61-13.21,10.61-13.21s10.6,5.91,10.6,13.21-4.74,13.21-10.6,13.21S93.52,502.42,93.52,495.13Z"/><circle class="cls-3" cx="104.13" cy="480.92" r="3.63"/></g><g id="ranchera-03"><path class="cls-2" d="M1720.73,967.13c0,7.29-10.6,13.21-10.6,13.21s-10.61-5.92-10.61-13.21,4.75-13.21,10.61-13.21S1720.73,959.83,1720.73,967.13Z"/><path class="cls-2" d="M1724.13,991.73c-7.3,0-13.21-10.6-13.21-10.6s5.91-10.61,13.21-10.61,13.21,4.75,13.21,10.61S1731.42,991.73,1724.13,991.73Z"/><path class="cls-2" d="M1696.13,970.52c7.29,0,13.21,10.61,13.21,10.61s-5.92,10.6-13.21,10.6-13.21-4.75-13.21-10.6S1688.83,970.52,1696.13,970.52Z"/><path class="cls-2" d="M1699.52,995.13c0-7.3,10.61-13.21,10.61-13.21s10.6,5.91,10.6,13.21-4.74,13.21-10.6,13.21S1699.52,1002.42,1699.52,995.13Z"/><circle class="cls-3" cx="1710.13" cy="980.92" r="3.63"/></g><g id="ranchera-02"><path class="cls-2" d="M242.73,1002.13c0,7.29-10.6,13.21-10.6,13.21s-10.61-5.92-10.61-13.21,4.75-13.21,10.61-13.21S242.73,994.83,242.73,1002.13Z"/><path class="cls-2" d="M246.13,1026.73c-7.3,0-13.21-10.6-13.21-10.6s5.91-10.61,13.21-10.61,13.21,4.75,13.21,10.61S253.42,1026.73,246.13,1026.73Z"/><path class="cls-2" d="M218.13,1005.52c7.29,0,13.21,10.61,13.21,10.61s-5.92,10.6-13.21,10.6-13.21-4.75-13.21-10.6S210.83,1005.52,218.13,1005.52Z"/><path class="cls-2" d="M221.52,1030.13c0-7.3,10.61-13.21,10.61-13.21s10.6,5.91,10.6,13.21-4.74,13.21-10.6,13.21S221.52,1037.42,221.52,1030.13Z"/><circle class="cls-3" cx="232.13" cy="1015.92" r="3.63"/></g><g id="ranchera-01"><path class="cls-2" d="M820.73,240.13c0,7.29-10.6,13.21-10.6,13.21s-10.61-5.92-10.61-13.21,4.75-13.21,10.61-13.21S820.73,232.83,820.73,240.13Z"/><path class="cls-2" d="M824.13,264.73c-7.3,0-13.21-10.6-13.21-10.6s5.91-10.61,13.21-10.61,13.21,4.75,13.21,10.61S831.42,264.73,824.13,264.73Z"/><path class="cls-2" d="M796.13,243.52c7.29,0,13.21,10.61,13.21,10.61s-5.92,10.6-13.21,10.6-13.21-4.75-13.21-10.6S788.83,243.52,796.13,243.52Z"/><path class="cls-2" d="M799.52,268.13c0-7.3,10.61-13.21,10.61-13.21s10.6,5.91,10.6,13.21-4.74,13.21-10.6,13.21S799.52,275.42,799.52,268.13Z"/><circle class="cls-3" cx="810.13" cy="253.92" r="3.63"/></g><g id="mariachi-03"><ellipse class="cls-4" cx="1422.22" cy="675.56" rx="19.95" ry="53.64"/><ellipse class="cls-4" cx="1380.28" cy="695.75" rx="19.95" ry="53.64" transform="translate(-24.27 1341.1) rotate(-51.43)"/><ellipse class="cls-4" cx="1369.92" cy="741.14" rx="53.64" ry="19.95" transform="translate(-130.57 323.42) rotate(-12.86)"/><ellipse class="cls-4" cx="1398.94" cy="777.53" rx="53.64" ry="19.95" transform="translate(91.43 1700.57) rotate(-64.29)"/><ellipse class="cls-4" cx="1445.49" cy="777.53" rx="19.95" ry="53.64" transform="translate(-194.21 704.17) rotate(-25.71)"/><ellipse class="cls-4" cx="1474.51" cy="741.14" rx="19.95" ry="53.64" transform="translate(423.85 2013.76) rotate(-77.14)"/><ellipse class="cls-4" cx="1464.15" cy="695.75" rx="53.64" ry="19.95" transform="translate(-114.36 1064.68) rotate(-38.57)"/><line class="cls-5" x1="1377.4" y1="695.75" x2="1422.95" y2="727.93"/><line class="cls-5" x1="1364.37" y1="740.71" x2="1422.95" y2="727.93"/><line class="cls-5" x1="1400.66" y1="775.53" x2="1422.95" y2="727.93"/><line class="cls-5" x1="1449.97" y1="781.28" x2="1422.95" y2="727.93"/><line class="cls-5" x1="1470.95" y1="692.65" x2="1422.95" y2="727.93"/><line class="cls-5" x1="1422.74" y1="665.77" x2="1422.95" y2="727.93"/><circle class="cls-6" cx="1484.19" cy="741.14" r="2.88"/><circle class="cls-6" cx="1422.95" cy="664.79" r="2.88"/><circle class="cls-6" cx="1361.71" cy="741.63" r="2.88"/><circle class="cls-6" cx="1377.4" cy="695.75" r="2.88"/><circle class="cls-7" cx="1422.95" cy="727.93" r="15.72"/><circle class="cls-6" cx="1398.82" cy="777.46" r="2.88"/><circle class="cls-6" cx="1450.44" cy="782.75" r="2.88"/><circle class="cls-6" cx="1471.62" cy="691.43" r="2.88"/><line class="cls-5" x1="1481.74" y1="740.25" x2="1422.95" y2="727.93"/></g><g id="mariachi-02"><ellipse class="cls-4" cx="1100.22" cy="211.56" rx="19.95" ry="53.64"/><ellipse class="cls-4" cx="1058.28" cy="231.75" rx="19.95" ry="53.64" transform="translate(217.26 914.65) rotate(-51.43)"/><ellipse class="cls-4" cx="1047.92" cy="277.14" rx="53.64" ry="19.95" transform="translate(-35.39 240.13) rotate(-12.86)"/><ellipse class="cls-4" cx="1076.94" cy="313.53" rx="53.64" ry="19.95" transform="translate(327.19 1147.78) rotate(-64.29)"/><ellipse class="cls-4" cx="1123.49" cy="313.53" rx="19.95" ry="53.64" transform="translate(-24.77 518.51) rotate(-25.71)"/><ellipse class="cls-4" cx="1152.51" cy="277.14" rx="19.95" ry="53.64" transform="translate(625.87 1339.08) rotate(-77.14)"/><ellipse class="cls-4" cx="1142.15" cy="231.75" rx="53.64" ry="19.95" transform="translate(104.69 762.68) rotate(-38.57)"/><line class="cls-5" x1="1055.4" y1="231.75" x2="1100.95" y2="263.93"/><line class="cls-5" x1="1042.37" y1="276.71" x2="1100.95" y2="263.93"/><line class="cls-5" x1="1078.66" y1="311.53" x2="1100.95" y2="263.93"/><line class="cls-5" x1="1127.97" y1="317.28" x2="1100.95" y2="263.93"/><line class="cls-5" x1="1148.95" y1="228.65" x2="1100.95" y2="263.93"/><line class="cls-5" x1="1100.74" y1="201.77" x2="1100.95" y2="263.93"/><circle class="cls-6" cx="1162.19" cy="277.14" r="2.88"/><circle class="cls-6" cx="1100.95" cy="200.79" r="2.88"/><circle class="cls-6" cx="1039.71" cy="277.63" r="2.88"/><circle class="cls-6" cx="1055.4" cy="231.75" r="2.88"/><circle class="cls-7" cx="1100.95" cy="263.93" r="15.72"/><circle class="cls-6" cx="1076.82" cy="313.46" r="2.88"/><circle class="cls-6" cx="1128.44" cy="318.75" r="2.88"/><circle class="cls-6" cx="1149.62" cy="227.43" r="2.88"/><line class="cls-5" x1="1159.74" y1="276.25" x2="1100.95" y2="263.93"/></g><g id="mariachi-01"><ellipse class="cls-4" cx="319.22" cy="799.56" rx="19.95" ry="53.64"/><ellipse class="cls-4" cx="277.28" cy="819.75" rx="19.95" ry="53.64" transform="translate(-536.51 525.43) rotate(-51.43)"/><ellipse class="cls-4" cx="266.92" cy="865.14" rx="53.64" ry="19.95" transform="translate(-185.82 81.09) rotate(-12.86)"/><ellipse class="cls-4" cx="295.94" cy="901.53" rx="53.64" ry="19.95" transform="translate(-644.71 777) rotate(-64.29)"/><ellipse class="cls-4" cx="342.49" cy="901.53" rx="19.95" ry="53.64" transform="translate(-357.24 237.88) rotate(-25.71)"/><ellipse class="cls-4" cx="371.51" cy="865.14" rx="19.95" ry="53.64" transform="translate(-554.6 1034.82) rotate(-77.14)"/><ellipse class="cls-4" cx="361.15" cy="819.75" rx="53.64" ry="19.95" transform="translate(-432.32 404.02) rotate(-38.57)"/><line class="cls-5" x1="274.4" y1="819.75" x2="319.95" y2="851.93"/><line class="cls-5" x1="261.37" y1="864.71" x2="319.95" y2="851.93"/><line class="cls-5" x1="297.66" y1="899.53" x2="319.95" y2="851.93"/><line class="cls-5" x1="346.97" y1="905.28" x2="319.95" y2="851.93"/><line class="cls-5" x1="367.95" y1="816.65" x2="319.95" y2="851.93"/><line class="cls-5" x1="319.74" y1="789.77" x2="319.95" y2="851.93"/><circle class="cls-6" cx="381.19" cy="865.14" r="2.88"/><circle class="cls-6" cx="319.95" cy="788.79" r="2.88"/><circle class="cls-6" cx="258.71" cy="865.63" r="2.88"/><circle class="cls-6" cx="274.4" cy="819.75" r="2.88"/><circle class="cls-7" cx="319.95" cy="851.93" r="15.72"/><circle class="cls-6" cx="295.82" cy="901.46" r="2.88"/><circle class="cls-6" cx="347.44" cy="906.75" r="2.88"/><circle class="cls-6" cx="368.62" cy="815.43" r="2.88"/><line class="cls-5" x1="378.74" y1="864.25" x2="319.95" y2="851.93"/></g><g id="norteno-06"><circle class="cls-8" cx="653.56" cy="139.79" r="3.75"/><path class="cls-9" d="M658.82,114a36.62,36.62,0,0,1-5.26,18,36.62,36.62,0,0,1-5.26-18c0-9.93,2.36-18,5.26-18S658.82,104.1,658.82,114Z"/><path class="cls-9" d="M641,116.68a36.57,36.57,0,0,1,7.54,17.16A36.55,36.55,0,0,1,633,123.44c-6.39-7.61-9.77-15.3-7.54-17.16S634.65,109.07,641,116.68Z"/><path class="cls-9" d="M629.11,130.14a36.55,36.55,0,0,1,16.8,8.3,36.49,36.49,0,0,1-18.63,2.06c-9.78-1.73-17.31-5.44-16.8-8.3S619.32,128.41,629.11,130.14Z"/><path class="cls-9" d="M628.62,148.12a36.67,36.67,0,0,1,18.22-4.45,36.61,36.61,0,0,1-13,13.56c-8.6,5-16.76,7-18.21,4.44S620,153.08,628.62,148.12Z"/><path class="cls-9" d="M639.81,162.2a36.59,36.59,0,0,1,11.1-15.11,36.64,36.64,0,0,1-1.22,18.71c-3.39,9.33-8.36,16.1-11.09,15.11S636.41,171.54,639.81,162.2Z"/><path class="cls-9" d="M657.43,165.8a36.58,36.58,0,0,1-1.21-18.71,36.52,36.52,0,0,1,11.09,15.11c3.4,9.34,4,17.71,1.22,18.71S660.83,175.13,657.43,165.8Z"/><path class="cls-9" d="M673.24,157.23a36.53,36.53,0,0,1-13-13.56,36.64,36.64,0,0,1,18.21,4.45c8.61,5,14.4,11,13,13.55S681.84,162.2,673.24,157.23Z"/><path class="cls-9" d="M679.84,140.5a36.51,36.51,0,0,1-18.63-2.06,36.55,36.55,0,0,1,16.81-8.3c9.78-1.73,18.12-.81,18.63,2.06S689.63,138.77,679.84,140.5Z"/><path class="cls-9" d="M674.15,123.44a36.62,36.62,0,0,1-15.6,10.4,36.57,36.57,0,0,1,7.54-17.16c6.39-7.61,13.37-12.27,15.59-10.4S680.54,115.83,674.15,123.44Z"/></g><g id="norteno-05"><circle class="cls-8" cx="1646.56" cy="359.79" r="3.75"/><path class="cls-9" d="M1651.82,334a36.62,36.62,0,0,1-5.26,18,36.62,36.62,0,0,1-5.26-18c0-9.93,2.36-18,5.26-18S1651.82,324.1,1651.82,334Z"/><path class="cls-9" d="M1634,336.68a36.57,36.57,0,0,1,7.54,17.16,36.55,36.55,0,0,1-15.59-10.4c-6.39-7.61-9.77-15.3-7.54-17.16S1627.65,329.07,1634,336.68Z"/><path class="cls-9" d="M1622.11,350.14a36.55,36.55,0,0,1,16.8,8.3,36.49,36.49,0,0,1-18.63,2.06c-9.78-1.73-17.31-5.44-16.8-8.3S1612.32,348.41,1622.11,350.14Z"/><path class="cls-9" d="M1621.62,368.12a36.67,36.67,0,0,1,18.22-4.45,36.61,36.61,0,0,1-13,13.56c-8.6,5-16.76,6.95-18.21,4.44S1613,373.08,1621.62,368.12Z"/><path class="cls-9" d="M1632.81,382.2a36.59,36.59,0,0,1,11.1-15.11,36.64,36.64,0,0,1-1.22,18.71c-3.39,9.33-8.36,16.1-11.09,15.11S1629.41,391.54,1632.81,382.2Z"/><path class="cls-9" d="M1650.43,385.8a36.58,36.58,0,0,1-1.21-18.71,36.52,36.52,0,0,1,11.09,15.11c3.4,9.34,4,17.71,1.22,18.71S1653.83,395.13,1650.43,385.8Z"/><path class="cls-9" d="M1666.24,377.23a36.53,36.53,0,0,1-13-13.56,36.64,36.64,0,0,1,18.21,4.45c8.61,5,14.4,11,13,13.55S1674.84,382.2,1666.24,377.23Z"/><path class="cls-9" d="M1672.84,360.5a36.51,36.51,0,0,1-18.63-2.06,36.55,36.55,0,0,1,16.81-8.3c9.78-1.73,18.12-.81,18.63,2.06S1682.63,358.77,1672.84,360.5Z"/><path class="cls-9" d="M1667.15,343.44a36.62,36.62,0,0,1-15.6,10.4,36.57,36.57,0,0,1,7.54-17.16c6.39-7.61,13.37-12.27,15.59-10.4S1673.54,335.83,1667.15,343.44Z"/></g><g id="norteno-04"><circle class="cls-8" cx="627.56" cy="886.79" r="3.75"/><path class="cls-9" d="M632.82,861a36.62,36.62,0,0,1-5.26,18,36.62,36.62,0,0,1-5.26-18c0-9.93,2.36-18,5.26-18S632.82,851.1,632.82,861Z"/><path class="cls-9" d="M615,863.68a36.57,36.57,0,0,1,7.54,17.16A36.55,36.55,0,0,1,607,870.44c-6.39-7.61-9.77-15.3-7.54-17.16S608.65,856.07,615,863.68Z"/><path class="cls-9" d="M603.11,877.14a36.55,36.55,0,0,1,16.8,8.3,36.49,36.49,0,0,1-18.63,2.06c-9.78-1.73-17.31-5.44-16.8-8.3S593.32,875.41,603.11,877.14Z"/><path class="cls-9" d="M602.62,895.12a36.67,36.67,0,0,1,18.22-4.45,36.61,36.61,0,0,1-13,13.56c-8.6,5-16.76,6.95-18.21,4.44S594,900.08,602.62,895.12Z"/><path class="cls-9" d="M613.81,909.2a36.59,36.59,0,0,1,11.1-15.11,36.64,36.64,0,0,1-1.22,18.71c-3.39,9.33-8.36,16.1-11.09,15.11S610.41,918.54,613.81,909.2Z"/><path class="cls-9" d="M631.43,912.8a36.58,36.58,0,0,1-1.21-18.71,36.52,36.52,0,0,1,11.09,15.11c3.4,9.34,4,17.71,1.22,18.71S634.83,922.13,631.43,912.8Z"/><path class="cls-9" d="M647.24,904.23a36.53,36.53,0,0,1-13-13.56,36.64,36.64,0,0,1,18.21,4.45c8.61,5,14.4,11,13,13.55S655.84,909.2,647.24,904.23Z"/><path class="cls-9" d="M653.84,887.5a36.51,36.51,0,0,1-18.63-2.06,36.55,36.55,0,0,1,16.81-8.3c9.78-1.73,18.12-.81,18.63,2.06S663.63,885.77,653.84,887.5Z"/><path class="cls-9" d="M648.15,870.44a36.62,36.62,0,0,1-15.6,10.4,36.57,36.57,0,0,1,7.54-17.16c6.39-7.61,13.37-12.27,15.59-10.4S654.54,862.83,648.15,870.44Z"/></g><g id="norteno-03"><circle class="cls-8" cx="143.56" cy="591.79" r="3.75"/><path class="cls-9" d="M148.82,566a36.62,36.62,0,0,1-5.26,18,36.62,36.62,0,0,1-5.26-18c0-9.93,2.36-18,5.26-18S148.82,556.1,148.82,566Z"/><path class="cls-9" d="M131,568.68a36.57,36.57,0,0,1,7.54,17.16A36.55,36.55,0,0,1,123,575.44c-6.39-7.61-9.77-15.3-7.54-17.16S124.65,561.07,131,568.68Z"/><path class="cls-9" d="M119.11,582.14a36.55,36.55,0,0,1,16.8,8.3,36.49,36.49,0,0,1-18.63,2.06c-9.78-1.73-17.31-5.44-16.8-8.3S109.32,580.41,119.11,582.14Z"/><path class="cls-9" d="M118.62,600.12a36.67,36.67,0,0,1,18.22-4.45,36.61,36.61,0,0,1-13,13.56c-8.6,5-16.76,6.95-18.21,4.44S110,605.08,118.62,600.12Z"/><path class="cls-9" d="M129.81,614.2a36.59,36.59,0,0,1,11.1-15.11,36.64,36.64,0,0,1-1.22,18.71c-3.39,9.33-8.36,16.1-11.09,15.11S126.41,623.54,129.81,614.2Z"/><path class="cls-9" d="M147.43,617.8a36.58,36.58,0,0,1-1.21-18.71,36.52,36.52,0,0,1,11.09,15.11c3.4,9.34,3.95,17.71,1.22,18.71S150.83,627.13,147.43,617.8Z"/><path class="cls-9" d="M163.24,609.23a36.53,36.53,0,0,1-13-13.56,36.64,36.64,0,0,1,18.21,4.45c8.61,5,14.4,11,12.95,13.55S171.84,614.2,163.24,609.23Z"/><path class="cls-9" d="M169.84,592.5a36.51,36.51,0,0,1-18.63-2.06,36.55,36.55,0,0,1,16.81-8.3c9.78-1.73,18.12-.81,18.63,2.06S179.63,590.77,169.84,592.5Z"/><path class="cls-9" d="M164.15,575.44a36.62,36.62,0,0,1-15.6,10.4,36.57,36.57,0,0,1,7.54-17.16c6.39-7.61,13.37-12.27,15.59-10.4S170.54,567.83,164.15,575.44Z"/></g><g id="norteno-02"><circle class="cls-8" cx="387.56" cy="327.79" r="3.75"/><path class="cls-9" d="M392.82,302a36.62,36.62,0,0,1-5.26,18,36.62,36.62,0,0,1-5.26-18c0-9.93,2.36-18,5.26-18S392.82,292.1,392.82,302Z"/><path class="cls-9" d="M375,304.68a36.57,36.57,0,0,1,7.54,17.16A36.55,36.55,0,0,1,367,311.44c-6.39-7.61-9.77-15.3-7.54-17.16S368.65,297.07,375,304.68Z"/><path class="cls-9" d="M363.11,318.14a36.55,36.55,0,0,1,16.8,8.3,36.49,36.49,0,0,1-18.63,2.06c-9.78-1.73-17.31-5.44-16.8-8.3S353.32,316.41,363.11,318.14Z"/><path class="cls-9" d="M362.62,336.12a36.67,36.67,0,0,1,18.22-4.45,36.61,36.61,0,0,1-13,13.56c-8.6,5-16.76,6.95-18.21,4.44S354,341.08,362.62,336.12Z"/><path class="cls-9" d="M373.81,350.2a36.59,36.59,0,0,1,11.1-15.11,36.64,36.64,0,0,1-1.22,18.71c-3.39,9.33-8.36,16.1-11.09,15.11S370.41,359.54,373.81,350.2Z"/><path class="cls-9" d="M391.43,353.8a36.58,36.58,0,0,1-1.21-18.71,36.52,36.52,0,0,1,11.09,15.11c3.4,9.34,3.95,17.71,1.22,18.71S394.83,363.13,391.43,353.8Z"/><path class="cls-9" d="M407.24,345.23a36.53,36.53,0,0,1-12.95-13.56,36.64,36.64,0,0,1,18.21,4.45c8.61,5,14.4,11,12.95,13.55S415.84,350.2,407.24,345.23Z"/><path class="cls-9" d="M413.84,328.5a36.51,36.51,0,0,1-18.63-2.06,36.55,36.55,0,0,1,16.81-8.3c9.78-1.73,18.12-.81,18.63,2.06S423.63,326.77,413.84,328.5Z"/><path class="cls-9" d="M408.15,311.44a36.62,36.62,0,0,1-15.6,10.4,36.57,36.57,0,0,1,7.54-17.16c6.39-7.61,13.37-12.27,15.59-10.4S414.54,303.83,408.15,311.44Z"/></g><g id="norteno-01"><circle class="cls-8" cx="1563.56" cy="946.79" r="3.75"/><path class="cls-9" d="M1568.82,921a36.62,36.62,0,0,1-5.26,18,36.62,36.62,0,0,1-5.26-18c0-9.93,2.36-18,5.26-18S1568.82,911.1,1568.82,921Z"/><path class="cls-9" d="M1551,923.68a36.57,36.57,0,0,1,7.54,17.16,36.55,36.55,0,0,1-15.59-10.4c-6.39-7.61-9.77-15.3-7.54-17.16S1544.65,916.07,1551,923.68Z"/><path class="cls-9" d="M1539.11,937.14a36.55,36.55,0,0,1,16.8,8.3,36.49,36.49,0,0,1-18.63,2.06c-9.78-1.73-17.31-5.44-16.8-8.3S1529.32,935.41,1539.11,937.14Z"/><path class="cls-9" d="M1538.62,955.12a36.67,36.67,0,0,1,18.22-4.45,36.61,36.61,0,0,1-13,13.56c-8.6,5-16.76,6.95-18.21,4.44S1530,960.08,1538.62,955.12Z"/><path class="cls-9" d="M1549.81,969.2a36.59,36.59,0,0,1,11.1-15.11,36.64,36.64,0,0,1-1.22,18.71c-3.39,9.33-8.36,16.1-11.09,15.11S1546.41,978.54,1549.81,969.2Z"/><path class="cls-9" d="M1567.43,972.8a36.58,36.58,0,0,1-1.21-18.71,36.52,36.52,0,0,1,11.09,15.11c3.4,9.34,4,17.71,1.22,18.71S1570.83,982.13,1567.43,972.8Z"/><path class="cls-9" d="M1583.24,964.23a36.53,36.53,0,0,1-13-13.56,36.64,36.64,0,0,1,18.21,4.45c8.61,5,14.4,11,13,13.55S1591.84,969.2,1583.24,964.23Z"/><path class="cls-9" d="M1589.84,947.5a36.51,36.51,0,0,1-18.63-2.06,36.55,36.55,0,0,1,16.81-8.3c9.78-1.73,18.12-.81,18.63,2.06S1599.63,945.77,1589.84,947.5Z"/><path class="cls-9" d="M1584.15,930.44a36.62,36.62,0,0,1-15.6,10.4,36.57,36.57,0,0,1,7.54-17.16c6.39-7.61,13.37-12.27,15.59-10.4S1590.54,922.83,1584.15,930.44Z"/></g><g id="son-huasteco-07"><ellipse class="cls-10" cx="143.96" cy="196.64" rx="10.05" ry="41.37" transform="translate(-76.95 299.56) rotate(-78.77)"/><ellipse class="cls-10" cx="153.35" cy="177.86" rx="10.05" ry="41.37" transform="translate(-81.2 166.25) rotate(-46.4)"/><ellipse class="cls-10" cx="192.25" cy="166.61" rx="41.37" ry="10.05" transform="translate(-18.39 309.25) rotate(-75.02)"/><ellipse class="cls-10" cx="172.68" cy="164.93" rx="10.05" ry="41.37" transform="translate(-34.73 46.6) rotate(-13.98)"/><circle class="cls-11" cx="138.99" cy="133.41" r="2.98"/><circle class="cls-11" cx="111.76" cy="166.92" r="2.98"/><circle class="cls-11" cx="185.28" cy="123.1" r="2.98"/><ellipse class="cls-12" cx="160.58" cy="199.48" rx="6.16" ry="25.39" transform="translate(-66.35 318.13) rotate(-78.77)"/><ellipse class="cls-12" cx="166.34" cy="187.95" rx="6.16" ry="25.39" transform="translate(-84.48 178.78) rotate(-46.4)"/><ellipse class="cls-12" cx="190.21" cy="181.04" rx="25.39" ry="6.16" transform="translate(-33.85 317.98) rotate(-75.02)"/><ellipse class="cls-12" cx="178.2" cy="180.01" rx="6.17" ry="25.39" transform="translate(-38.21 48.38) rotate(-13.98)"/></g><g id="son-huasteco-06"><ellipse class="cls-10" cx="609.98" cy="388.02" rx="10.05" ry="41.37" transform="translate(-112.73 370.08) rotate(-31.04)"/><ellipse class="cls-10" cx="630.19" cy="382.34" rx="41.37" ry="10.05" transform="translate(233.29 1003.46) rotate(-88.67)"/><ellipse class="cls-10" cx="664.69" cy="403.55" rx="41.37" ry="10.05" transform="translate(-111.04 349.62) rotate(-27.29)"/><ellipse class="cls-10" cx="652.76" cy="387.94" rx="41.37" ry="10.05" transform="translate(-32.45 715.16) rotate(-56.25)"/><circle class="cls-11" cx="653.42" cy="341.81" r="2.98"/><circle class="cls-11" cx="610.31" cy="344.2" r="2.98"/><circle class="cls-11" cx="692.19" cy="369.13" r="2.98"/><ellipse class="cls-12" cx="619.06" cy="402.22" rx="6.16" ry="25.39" transform="translate(-118.76 376.79) rotate(-31.04)"/><ellipse class="cls-12" cx="631.46" cy="398.73" rx="25.39" ry="6.16" transform="translate(218.14 1020.74) rotate(-88.67)"/><ellipse class="cls-12" cx="652.63" cy="411.75" rx="25.39" ry="6.16" transform="translate(-116.14 345) rotate(-27.29)"/><ellipse class="cls-12" cx="645.31" cy="402.17" rx="25.39" ry="6.16" transform="translate(-47.6 715.29) rotate(-56.25)"/></g><g id="son-huasteco-05"><ellipse class="cls-10" cx="1300.39" cy="413.7" rx="10.05" ry="41.37" transform="translate(560.57 1560.36) rotate(-74.82)"/><ellipse class="cls-10" cx="1311.05" cy="395.61" rx="10.05" ry="41.37" transform="translate(76.6 988.48) rotate(-42.44)"/><ellipse class="cls-10" cx="1350.63" cy="387.06" rx="41.37" ry="10.05" transform="translate(546.24 1539.01) rotate(-71.06)"/><ellipse class="cls-10" cx="1331.22" cy="384.04" rx="10.05" ry="41.37" transform="translate(-46.54 237.68) rotate(-10.03)"/><circle class="cls-11" cx="1299.78" cy="350.28" r="2.98"/><circle class="cls-11" cx="1270.31" cy="381.83" r="2.98"/><circle class="cls-11" cx="1346.67" cy="343.18" r="2.98"/><ellipse class="cls-12" cx="1316.77" cy="417.67" rx="6.16" ry="25.39" transform="translate(568.83 1579.1) rotate(-74.82)"/><ellipse class="cls-12" cx="1323.31" cy="406.57" rx="6.16" ry="25.39" transform="translate(72.42 999.63) rotate(-42.44)"/><ellipse class="cls-12" cx="1347.6" cy="401.33" rx="25.39" ry="6.16" transform="translate(530.7 1545.78) rotate(-71.06)"/><ellipse class="cls-12" cx="1335.69" cy="399.47" rx="6.16" ry="25.39" transform="translate(-49.15 238.69) rotate(-10.03)"/></g><g id="son-huasteco-04"><ellipse class="cls-10" cx="1756.97" cy="680.27" rx="10.05" ry="41.37" transform="translate(-116.44 880.39) rotate(-27.26)"/><ellipse class="cls-10" cx="1777.52" cy="675.93" rx="41.37" ry="10.05" transform="translate(945.95 2386.18) rotate(-84.89)"/><ellipse class="cls-10" cx="1810.54" cy="699.37" rx="41.37" ry="10.05" transform="translate(-128.69 780.29) rotate(-23.51)"/><ellipse class="cls-10" cx="1799.67" cy="683.01" rx="41.37" ry="10.05" transform="translate(161.76 1694.23) rotate(-52.47)"/><circle class="cls-11" cx="1803.36" cy="637.02" r="2.98"/><circle class="cls-11" cx="1760.19" cy="636.57" r="2.98"/><circle class="cls-11" cx="1840.25" cy="666.83" r="2.98"/><ellipse class="cls-12" cx="1765.1" cy="695.04" rx="6.16" ry="25.39" transform="translate(-122.3 885.75) rotate(-27.26)"/><ellipse class="cls-12" cx="1777.7" cy="692.38" rx="25.39" ry="6.16" transform="translate(929.74 2401.35) rotate(-84.89)"/><ellipse class="cls-12" cx="1797.97" cy="706.76" rx="25.39" ry="6.16" transform="translate(-132.69 775.89) rotate(-23.51)"/><ellipse class="cls-12" cx="1791.3" cy="696.72" rx="25.39" ry="6.16" transform="translate(147.61 1692.94) rotate(-52.47)"/></g><g id="son-huasteco-03"><ellipse class="cls-10" cx="255.14" cy="590.26" rx="10.05" ry="41.37" transform="translate(-360.12 403.29) rotate(-49.72)"/><ellipse class="cls-10" cx="272.47" cy="578.4" rx="10.05" ry="41.37" transform="translate(-160.06 107.54) rotate(-17.35)"/><ellipse class="cls-10" cx="311.94" cy="587.45" rx="41.37" ry="10.05" transform="translate(-327.22 403.39) rotate(-45.97)"/><ellipse class="cls-10" cx="295.65" cy="576.48" rx="41.37" ry="10.05" transform="translate(-337.87 712.07) rotate(-74.93)"/><circle class="cls-11" cx="281.5" cy="532.57" r="2.98"/><circle class="cls-11" cx="241.43" cy="548.64" r="2.98"/><circle class="cls-11" cx="326.97" cy="546.03" r="2.98"/><ellipse class="cls-12" cx="268.29" cy="600.8" rx="6.16" ry="25.39" transform="translate(-363.51 417.04) rotate(-49.72)"/><ellipse class="cls-12" cx="278.93" cy="593.53" rx="6.16" ry="25.39" transform="translate(-164.27 110.16) rotate(-17.35)"/><ellipse class="cls-12" cx="303.15" cy="599.08" rx="25.39" ry="6.16" transform="translate(-338.26 400.62) rotate(-45.97)"/><ellipse class="cls-12" cx="293.15" cy="592.35" rx="25.39" ry="6.16" transform="translate(-355.05 721.4) rotate(-74.93)"/></g><g id="son-huasteco-02"><ellipse class="cls-10" cx="1460.14" cy="169.36" rx="10.05" ry="41.37" transform="translate(258.52 1016) rotate(-41.78)"/><ellipse class="cls-10" cx="1478.94" cy="160" rx="10.05" ry="41.37" transform="translate(-6.26 243.98) rotate(-9.41)"/><ellipse class="cls-10" cx="1516.78" cy="174.42" rx="41.37" ry="10.05" transform="translate(214.59 971.5) rotate(-38.03)"/><ellipse class="cls-10" cx="1502.16" cy="161.3" rx="41.37" ry="10.05" transform="translate(766.6 1480.94) rotate(-66.99)"/><circle class="cls-11" cx="1494.2" cy="115.86" r="2.98"/><circle class="cls-11" cx="1452.3" cy="126.24" r="2.98"/><circle class="cls-11" cx="1537.38" cy="135.47" r="2.98"/><ellipse class="cls-12" cx="1471.7" cy="181.62" rx="6.16" ry="25.39" transform="translate(253.29 1026.82) rotate(-41.78)"/><ellipse class="cls-12" cx="1483.24" cy="175.88" rx="6.16" ry="25.39" transform="translate(-8.8 244.9) rotate(-9.41)"/><ellipse class="cls-12" cx="1506.46" cy="184.72" rx="25.39" ry="6.16" transform="translate(206.05 967.33) rotate(-38.03)"/><ellipse class="cls-12" cx="1497.49" cy="176.67" rx="25.39" ry="6.16" transform="translate(749.61 1486.01) rotate(-66.99)"/></g><g id="son-huasteco-01"><ellipse class="cls-10" cx="1136.14" cy="780.36" rx="10.05" ry="41.37" transform="translate(-231.01 955.51) rotate(-41.78)"/><ellipse class="cls-10" cx="1154.94" cy="771" rx="10.05" ry="41.37" transform="translate(-110.53 199.23) rotate(-9.41)"/><ellipse class="cls-10" cx="1192.78" cy="785.42" rx="41.37" ry="10.05" transform="translate(-230.63 901.62) rotate(-38.03)"/><ellipse class="cls-10" cx="1178.16" cy="772.3" rx="41.37" ry="10.05" transform="translate(6.83 1554.92) rotate(-66.99)"/><circle class="cls-11" cx="1170.2" cy="726.86" r="2.98"/><circle class="cls-11" cx="1128.3" cy="737.24" r="2.98"/><circle class="cls-11" cx="1213.38" cy="746.47" r="2.98"/><ellipse class="cls-12" cx="1147.7" cy="792.62" rx="6.16" ry="25.39" transform="translate(-236.24 966.33) rotate(-41.78)"/><ellipse class="cls-12" cx="1159.24" cy="786.88" rx="6.16" ry="25.39" transform="translate(-113.06 200.14) rotate(-9.41)"/><ellipse class="cls-12" cx="1182.46" cy="795.72" rx="25.39" ry="6.16" transform="translate(-239.17 897.45) rotate(-38.03)"/><ellipse class="cls-12" cx="1173.49" cy="787.67" rx="25.39" ry="6.16" transform="translate(-10.17 1559.99) rotate(-66.99)"/></g><g id="corridos-10"><circle class="cls-13" cx="1544.89" cy="420" r="9.22"/><path class="cls-14" d="M1548.62,408.14c0,3.4-3.73,6.15-3.73,6.15s-3.73-2.75-3.73-6.15,3.73-6.14,3.73-6.14S1548.62,404.75,1548.62,408.14Z"/><path class="cls-14" d="M1542.21,407.92c1.7,2.94-.16,7.19-.16,7.19s-4.61-.52-6.3-3.46.16-7.19.16-7.19S1540.51,405,1542.21,407.92Z"/><path class="cls-14" d="M1536.55,410.93c2.94,1.7,3.45,6.31,3.45,6.31s-4.25,1.85-7.19.16-3.45-6.31-3.45-6.31S1533.61,409.24,1536.55,410.93Z"/><path class="cls-14" d="M1533.15,416.37c3.39,0,6.14,3.74,6.14,3.74s-2.75,3.73-6.14,3.73-6.15-3.73-6.15-3.73S1529.75,416.37,1533.15,416.37Z"/><path class="cls-14" d="M1532.92,422.79c2.94-1.7,7.19.16,7.19.16s-.51,4.6-3.45,6.3-7.19-.16-7.19-.16S1530,424.48,1532.92,422.79Z"/><path class="cls-14" d="M1535.94,428.45c1.69-2.94,6.3-3.46,6.3-3.46s1.86,4.25.16,7.19-6.3,3.46-6.3,3.46S1534.24,431.39,1535.94,428.45Z"/><path class="cls-14" d="M1541.38,431.85c0-3.39,3.73-6.15,3.73-6.15s3.73,2.76,3.73,6.15-3.73,6.15-3.73,6.15S1541.38,435.24,1541.38,431.85Z"/><path class="cls-14" d="M1547.79,432.07c-1.7-2.94.16-7.19.16-7.19s4.61.52,6.3,3.46-.15,7.19-.15,7.19S1549.49,435,1547.79,432.07Z"/><path class="cls-14" d="M1553.46,429.06c-2.94-1.7-3.46-6.3-3.46-6.3s4.25-1.86,7.19-.16,3.45,6.3,3.45,6.3S1556.4,430.76,1553.46,429.06Z"/><path class="cls-14" d="M1556.85,423.62c-3.39,0-6.14-3.73-6.14-3.73s2.75-3.73,6.14-3.73,6.15,3.73,6.15,3.73S1560.25,423.62,1556.85,423.62Z"/><path class="cls-14" d="M1557.08,417.21c-2.94,1.69-7.19-.16-7.19-.16s.52-4.61,3.46-6.31,7.18.16,7.18.16S1560,415.51,1557.08,417.21Z"/><path class="cls-14" d="M1554.06,411.54c-1.69,2.94-6.3,3.46-6.3,3.46s-1.86-4.25-.16-7.19,6.31-3.46,6.31-3.46S1555.76,408.6,1554.06,411.54Z"/></g><g id="corridos-09"><circle class="cls-13" cx="1223.89" cy="67" r="9.22"/><path class="cls-14" d="M1227.62,55.14c0,3.4-3.73,6.15-3.73,6.15s-3.73-2.75-3.73-6.15,3.73-6.14,3.73-6.14S1227.62,51.75,1227.62,55.14Z"/><path class="cls-14" d="M1221.21,54.92c1.7,2.94-.16,7.19-.16,7.19s-4.61-.52-6.3-3.46.16-7.19.16-7.19S1219.51,52,1221.21,54.92Z"/><path class="cls-14" d="M1215.55,57.93c2.94,1.7,3.45,6.31,3.45,6.31s-4.25,1.85-7.19.16-3.45-6.31-3.45-6.31S1212.61,56.24,1215.55,57.93Z"/><path class="cls-14" d="M1212.15,63.37c3.39,0,6.14,3.74,6.14,3.74s-2.75,3.73-6.14,3.73-6.15-3.73-6.15-3.73S1208.75,63.37,1212.15,63.37Z"/><path class="cls-14" d="M1211.92,69.79c2.94-1.7,7.19.16,7.19.16s-.51,4.6-3.45,6.3-7.19-.16-7.19-.16S1209,71.48,1211.92,69.79Z"/><path class="cls-14" d="M1214.94,75.45c1.69-2.94,6.3-3.46,6.3-3.46s1.86,4.25.16,7.19-6.3,3.46-6.3,3.46S1213.24,78.39,1214.94,75.45Z"/><path class="cls-14" d="M1220.38,78.85c0-3.39,3.73-6.15,3.73-6.15s3.73,2.76,3.73,6.15-3.73,6.15-3.73,6.15S1220.38,82.24,1220.38,78.85Z"/><path class="cls-14" d="M1226.79,79.07c-1.7-2.94.16-7.19.16-7.19s4.61.52,6.3,3.46-.15,7.19-.15,7.19S1228.49,82,1226.79,79.07Z"/><path class="cls-14" d="M1232.46,76.06c-2.94-1.7-3.46-6.3-3.46-6.3s4.25-1.86,7.19-.16,3.45,6.3,3.45,6.3S1235.4,77.76,1232.46,76.06Z"/><path class="cls-14" d="M1235.85,70.62c-3.39,0-6.14-3.73-6.14-3.73s2.75-3.73,6.14-3.73,6.15,3.73,6.15,3.73S1239.25,70.62,1235.85,70.62Z"/><path class="cls-14" d="M1236.08,64.21c-2.94,1.69-7.19-.16-7.19-.16s.52-4.61,3.46-6.31,7.18.16,7.18.16S1239,62.51,1236.08,64.21Z"/><path class="cls-14" d="M1233.06,58.54c-1.69,2.94-6.3,3.46-6.3,3.46s-1.86-4.25-.16-7.19,6.31-3.46,6.31-3.46S1234.76,55.6,1233.06,58.54Z"/></g><g id="corridos-08"><circle class="cls-13" cx="305.89" cy="63" r="9.22"/><path class="cls-14" d="M309.62,51.14c0,3.4-3.73,6.15-3.73,6.15s-3.73-2.75-3.73-6.15S305.89,45,305.89,45,309.62,47.75,309.62,51.14Z"/><path class="cls-14" d="M303.21,50.92c1.7,2.94-.16,7.19-.16,7.19s-4.61-.52-6.3-3.46.16-7.19.16-7.19S301.51,48,303.21,50.92Z"/><path class="cls-14" d="M297.55,53.93c2.94,1.7,3.45,6.31,3.45,6.31s-4.25,1.85-7.19.16-3.45-6.31-3.45-6.31S294.61,52.24,297.55,53.93Z"/><path class="cls-14" d="M294.15,59.37c3.39,0,6.14,3.74,6.14,3.74s-2.75,3.73-6.14,3.73S288,63.11,288,63.11,290.75,59.37,294.15,59.37Z"/><path class="cls-14" d="M293.92,65.79c2.94-1.7,7.19.16,7.19.16s-.51,4.6-3.45,6.3-7.19-.16-7.19-.16S291,67.48,293.92,65.79Z"/><path class="cls-14" d="M296.94,71.45c1.69-2.94,6.3-3.46,6.3-3.46s1.86,4.25.16,7.19-6.3,3.46-6.3,3.46S295.24,74.39,296.94,71.45Z"/><path class="cls-14" d="M302.38,74.85c0-3.39,3.73-6.15,3.73-6.15s3.73,2.76,3.73,6.15S306.11,81,306.11,81,302.38,78.24,302.38,74.85Z"/><path class="cls-14" d="M308.79,75.07c-1.7-2.94.16-7.19.16-7.19s4.61.52,6.3,3.46-.15,7.19-.15,7.19S310.49,78,308.79,75.07Z"/><path class="cls-14" d="M314.46,72.06c-2.94-1.7-3.46-6.3-3.46-6.3s4.25-1.86,7.19-.16,3.45,6.3,3.45,6.3S317.4,73.76,314.46,72.06Z"/><path class="cls-14" d="M317.85,66.62c-3.39,0-6.14-3.73-6.14-3.73s2.75-3.73,6.14-3.73S324,62.89,324,62.89,321.25,66.62,317.85,66.62Z"/><path class="cls-14" d="M318.08,60.21c-2.94,1.69-7.19-.16-7.19-.16s.52-4.61,3.46-6.31,7.18.16,7.18.16S321,58.51,318.08,60.21Z"/><path class="cls-14" d="M315.06,54.54c-1.69,2.94-6.3,3.46-6.3,3.46s-1.86-4.25-.16-7.19,6.31-3.46,6.31-3.46S316.76,51.6,315.06,54.54Z"/></g><g id="corridos-07"><circle class="cls-13" cx="605.89" cy="673" r="9.22"/><path class="cls-14" d="M609.62,661.14c0,3.4-3.73,6.15-3.73,6.15s-3.73-2.75-3.73-6.15,3.73-6.14,3.73-6.14S609.62,657.75,609.62,661.14Z"/><path class="cls-14" d="M603.21,660.92c1.7,2.94-.16,7.19-.16,7.19s-4.61-.52-6.3-3.46.16-7.19.16-7.19S601.51,658,603.21,660.92Z"/><path class="cls-14" d="M597.55,663.93c2.94,1.7,3.45,6.31,3.45,6.31s-4.25,1.85-7.19.16-3.45-6.31-3.45-6.31S594.61,662.24,597.55,663.93Z"/><path class="cls-14" d="M594.15,669.37c3.39,0,6.14,3.74,6.14,3.74s-2.75,3.73-6.14,3.73-6.15-3.73-6.15-3.73S590.75,669.37,594.15,669.37Z"/><path class="cls-14" d="M593.92,675.79c2.94-1.7,7.19.16,7.19.16s-.51,4.6-3.45,6.3-7.19-.16-7.19-.16S591,677.48,593.92,675.79Z"/><path class="cls-14" d="M596.94,681.45c1.69-2.94,6.3-3.46,6.3-3.46s1.86,4.25.16,7.19-6.3,3.46-6.3,3.46S595.24,684.39,596.94,681.45Z"/><path class="cls-14" d="M602.38,684.85c0-3.39,3.73-6.15,3.73-6.15s3.73,2.76,3.73,6.15-3.73,6.15-3.73,6.15S602.38,688.24,602.38,684.85Z"/><path class="cls-14" d="M608.79,685.07c-1.7-2.94.16-7.19.16-7.19s4.61.52,6.3,3.46-.15,7.19-.15,7.19S610.49,688,608.79,685.07Z"/><path class="cls-14" d="M614.46,682.06c-2.94-1.7-3.46-6.3-3.46-6.3s4.25-1.86,7.19-.16,3.45,6.3,3.45,6.3S617.4,683.76,614.46,682.06Z"/><path class="cls-14" d="M617.85,676.62c-3.39,0-6.14-3.73-6.14-3.73s2.75-3.73,6.14-3.73,6.15,3.73,6.15,3.73S621.25,676.62,617.85,676.62Z"/><path class="cls-14" d="M618.08,670.21c-2.94,1.69-7.19-.16-7.19-.16s.52-4.61,3.46-6.31,7.18.16,7.18.16S621,668.51,618.08,670.21Z"/><path class="cls-14" d="M615.06,664.54c-1.69,2.94-6.3,3.46-6.3,3.46s-1.86-4.25-.16-7.19,6.31-3.46,6.31-3.46S616.76,661.6,615.06,664.54Z"/></g><g id="corridos-06"><circle class="cls-13" cx="1603.89" cy="83" r="9.22"/><path class="cls-14" d="M1607.62,71.14c0,3.4-3.73,6.15-3.73,6.15s-3.73-2.75-3.73-6.15,3.73-6.14,3.73-6.14S1607.62,67.75,1607.62,71.14Z"/><path class="cls-14" d="M1601.21,70.92c1.7,2.94-.16,7.19-.16,7.19s-4.61-.52-6.3-3.46.16-7.19.16-7.19S1599.51,68,1601.21,70.92Z"/><path class="cls-14" d="M1595.55,73.93c2.94,1.7,3.45,6.31,3.45,6.31s-4.25,1.85-7.19.16-3.45-6.31-3.45-6.31S1592.61,72.24,1595.55,73.93Z"/><path class="cls-14" d="M1592.15,79.37c3.39,0,6.14,3.74,6.14,3.74s-2.75,3.73-6.14,3.73-6.15-3.73-6.15-3.73S1588.75,79.37,1592.15,79.37Z"/><path class="cls-14" d="M1591.92,85.79c2.94-1.7,7.19.16,7.19.16s-.51,4.6-3.45,6.3-7.19-.16-7.19-.16S1589,87.48,1591.92,85.79Z"/><path class="cls-14" d="M1594.94,91.45c1.69-2.94,6.3-3.46,6.3-3.46s1.86,4.25.16,7.19-6.3,3.46-6.3,3.46S1593.24,94.39,1594.94,91.45Z"/><path class="cls-14" d="M1600.38,94.85c0-3.39,3.73-6.15,3.73-6.15s3.73,2.76,3.73,6.15-3.73,6.15-3.73,6.15S1600.38,98.24,1600.38,94.85Z"/><path class="cls-14" d="M1606.79,95.07c-1.7-2.94.16-7.19.16-7.19s4.61.52,6.3,3.46-.15,7.19-.15,7.19S1608.49,98,1606.79,95.07Z"/><path class="cls-14" d="M1612.46,92.06c-2.94-1.7-3.46-6.3-3.46-6.3s4.25-1.86,7.19-.16,3.45,6.3,3.45,6.3S1615.4,93.76,1612.46,92.06Z"/><path class="cls-14" d="M1615.85,86.62c-3.39,0-6.14-3.73-6.14-3.73s2.75-3.73,6.14-3.73,6.15,3.73,6.15,3.73S1619.25,86.62,1615.85,86.62Z"/><path class="cls-14" d="M1616.08,80.21c-2.94,1.69-7.19-.16-7.19-.16s.52-4.61,3.46-6.31,7.18.16,7.18.16S1619,78.51,1616.08,80.21Z"/><path class="cls-14" d="M1613.06,74.54c-1.69,2.94-6.3,3.46-6.3,3.46s-1.86-4.25-.16-7.19,6.31-3.46,6.31-3.46S1614.76,71.6,1613.06,74.54Z"/></g><g id="corridos-05"><circle class="cls-13" cx="834.89" cy="408" r="9.22"/><path class="cls-14" d="M838.62,396.14c0,3.4-3.73,6.15-3.73,6.15s-3.73-2.75-3.73-6.15,3.73-6.14,3.73-6.14S838.62,392.75,838.62,396.14Z"/><path class="cls-14" d="M832.21,395.92c1.7,2.94-.16,7.19-.16,7.19s-4.61-.52-6.3-3.46.16-7.19.16-7.19S830.51,393,832.21,395.92Z"/><path class="cls-14" d="M826.55,398.93c2.94,1.7,3.45,6.31,3.45,6.31s-4.25,1.85-7.19.16-3.45-6.31-3.45-6.31S823.61,397.24,826.55,398.93Z"/><path class="cls-14" d="M823.15,404.37c3.39,0,6.14,3.74,6.14,3.74s-2.75,3.73-6.14,3.73-6.15-3.73-6.15-3.73S819.75,404.37,823.15,404.37Z"/><path class="cls-14" d="M822.92,410.79c2.94-1.7,7.19.16,7.19.16s-.51,4.6-3.45,6.3-7.19-.16-7.19-.16S820,412.48,822.92,410.79Z"/><path class="cls-14" d="M825.94,416.45c1.69-2.94,6.3-3.46,6.3-3.46s1.86,4.25.16,7.19-6.3,3.46-6.3,3.46S824.24,419.39,825.94,416.45Z"/><path class="cls-14" d="M831.38,419.85c0-3.39,3.73-6.15,3.73-6.15s3.73,2.76,3.73,6.15-3.73,6.15-3.73,6.15S831.38,423.24,831.38,419.85Z"/><path class="cls-14" d="M837.79,420.07c-1.7-2.94.16-7.19.16-7.19s4.61.52,6.3,3.46-.15,7.19-.15,7.19S839.49,423,837.79,420.07Z"/><path class="cls-14" d="M843.46,417.06c-2.94-1.7-3.46-6.3-3.46-6.3s4.25-1.86,7.19-.16,3.45,6.3,3.45,6.3S846.4,418.76,843.46,417.06Z"/><path class="cls-14" d="M846.85,411.62c-3.39,0-6.14-3.73-6.14-3.73s2.75-3.73,6.14-3.73,6.15,3.73,6.15,3.73S850.25,411.62,846.85,411.62Z"/><path class="cls-14" d="M847.08,405.21c-2.94,1.69-7.19-.16-7.19-.16s.52-4.61,3.46-6.31,7.18.16,7.18.16S850,403.51,847.08,405.21Z"/><path class="cls-14" d="M844.06,399.54c-1.69,2.94-6.3,3.46-6.3,3.46s-1.86-4.25-.16-7.19,6.31-3.46,6.31-3.46S845.76,396.6,844.06,399.54Z"/></g><g id="corridos-04"><circle class="cls-13" cx="283.89" cy="400" r="9.22"/><path class="cls-14" d="M287.62,388.14c0,3.4-3.73,6.15-3.73,6.15s-3.73-2.75-3.73-6.15,3.73-6.14,3.73-6.14S287.62,384.75,287.62,388.14Z"/><path class="cls-14" d="M281.21,387.92c1.7,2.94-.16,7.19-.16,7.19s-4.61-.52-6.3-3.46.16-7.19.16-7.19S279.51,385,281.21,387.92Z"/><path class="cls-14" d="M275.55,390.93c2.94,1.7,3.45,6.31,3.45,6.31s-4.25,1.85-7.19.16-3.45-6.31-3.45-6.31S272.61,389.24,275.55,390.93Z"/><path class="cls-14" d="M272.15,396.37c3.39,0,6.14,3.74,6.14,3.74s-2.75,3.73-6.14,3.73-6.15-3.73-6.15-3.73S268.75,396.37,272.15,396.37Z"/><path class="cls-14" d="M271.92,402.79c2.94-1.7,7.19.16,7.19.16s-.51,4.6-3.45,6.3-7.19-.16-7.19-.16S269,404.48,271.92,402.79Z"/><path class="cls-14" d="M274.94,408.45c1.69-2.94,6.3-3.46,6.3-3.46s1.86,4.25.16,7.19-6.3,3.46-6.3,3.46S273.24,411.39,274.94,408.45Z"/><path class="cls-14" d="M280.38,411.85c0-3.39,3.73-6.15,3.73-6.15s3.73,2.76,3.73,6.15-3.73,6.15-3.73,6.15S280.38,415.24,280.38,411.85Z"/><path class="cls-14" d="M286.79,412.07c-1.7-2.94.16-7.19.16-7.19s4.61.52,6.3,3.46-.15,7.19-.15,7.19S288.49,415,286.79,412.07Z"/><path class="cls-14" d="M292.46,409.06c-2.94-1.7-3.46-6.3-3.46-6.3s4.25-1.86,7.19-.16,3.45,6.3,3.45,6.3S295.4,410.76,292.46,409.06Z"/><path class="cls-14" d="M295.85,403.62c-3.39,0-6.14-3.73-6.14-3.73s2.75-3.73,6.14-3.73,6.15,3.73,6.15,3.73S299.25,403.62,295.85,403.62Z"/><path class="cls-14" d="M296.08,397.21c-2.94,1.69-7.19-.16-7.19-.16s.52-4.61,3.46-6.31,7.18.16,7.18.16S299,395.51,296.08,397.21Z"/><path class="cls-14" d="M293.06,391.54c-1.69,2.94-6.3,3.46-6.3,3.46s-1.86-4.25-.16-7.19,6.31-3.46,6.31-3.46S294.76,388.6,293.06,391.54Z"/></g><g id="corridos-03"><circle class="cls-13" cx="1572.89" cy="733" r="9.22"/><path class="cls-14" d="M1576.62,721.14c0,3.4-3.73,6.15-3.73,6.15s-3.73-2.75-3.73-6.15,3.73-6.14,3.73-6.14S1576.62,717.75,1576.62,721.14Z"/><path class="cls-14" d="M1570.21,720.92c1.7,2.94-.16,7.19-.16,7.19s-4.61-.52-6.3-3.46.16-7.19.16-7.19S1568.51,718,1570.21,720.92Z"/><path class="cls-14" d="M1564.55,723.93c2.94,1.7,3.45,6.31,3.45,6.31s-4.25,1.85-7.19.16-3.45-6.31-3.45-6.31S1561.61,722.24,1564.55,723.93Z"/><path class="cls-14" d="M1561.15,729.37c3.39,0,6.14,3.74,6.14,3.74s-2.75,3.73-6.14,3.73-6.15-3.73-6.15-3.73S1557.75,729.37,1561.15,729.37Z"/><path class="cls-14" d="M1560.92,735.79c2.94-1.7,7.19.16,7.19.16s-.51,4.6-3.45,6.3-7.19-.16-7.19-.16S1558,737.48,1560.92,735.79Z"/><path class="cls-14" d="M1563.94,741.45c1.69-2.94,6.3-3.46,6.3-3.46s1.86,4.25.16,7.19-6.3,3.46-6.3,3.46S1562.24,744.39,1563.94,741.45Z"/><path class="cls-14" d="M1569.38,744.85c0-3.39,3.73-6.15,3.73-6.15s3.73,2.76,3.73,6.15-3.73,6.15-3.73,6.15S1569.38,748.24,1569.38,744.85Z"/><path class="cls-14" d="M1575.79,745.07c-1.7-2.94.16-7.19.16-7.19s4.61.52,6.3,3.46-.15,7.19-.15,7.19S1577.49,748,1575.79,745.07Z"/><path class="cls-14" d="M1581.46,742.06c-2.94-1.7-3.46-6.3-3.46-6.3s4.25-1.86,7.19-.16,3.45,6.3,3.45,6.3S1584.4,743.76,1581.46,742.06Z"/><path class="cls-14" d="M1584.85,736.62c-3.39,0-6.14-3.73-6.14-3.73s2.75-3.73,6.14-3.73,6.15,3.73,6.15,3.73S1588.25,736.62,1584.85,736.62Z"/><path class="cls-14" d="M1585.08,730.21c-2.94,1.69-7.19-.16-7.19-.16s.52-4.61,3.46-6.31,7.18.16,7.18.16S1588,728.51,1585.08,730.21Z"/><path class="cls-14" d="M1582.06,724.54c-1.69,2.94-6.3,3.46-6.3,3.46s-1.86-4.25-.16-7.19,6.31-3.46,6.31-3.46S1583.76,721.6,1582.06,724.54Z"/></g><g id="corridos-02"><circle class="cls-13" cx="908.89" cy="951" r="9.22"/><path class="cls-14" d="M912.62,939.14c0,3.4-3.73,6.15-3.73,6.15s-3.73-2.75-3.73-6.15,3.73-6.14,3.73-6.14S912.62,935.75,912.62,939.14Z"/><path class="cls-14" d="M906.21,938.92c1.7,2.94-.16,7.19-.16,7.19s-4.61-.52-6.3-3.46.16-7.19.16-7.19S904.51,936,906.21,938.92Z"/><path class="cls-14" d="M900.55,941.93c2.94,1.7,3.45,6.31,3.45,6.31s-4.25,1.85-7.19.16-3.45-6.31-3.45-6.31S897.61,940.24,900.55,941.93Z"/><path class="cls-14" d="M897.15,947.37c3.39,0,6.14,3.74,6.14,3.74s-2.75,3.73-6.14,3.73-6.15-3.73-6.15-3.73S893.75,947.37,897.15,947.37Z"/><path class="cls-14" d="M896.92,953.79c2.94-1.7,7.19.16,7.19.16s-.51,4.6-3.45,6.3-7.19-.16-7.19-.16S894,955.48,896.92,953.79Z"/><path class="cls-14" d="M899.94,959.45c1.69-2.94,6.3-3.46,6.3-3.46s1.86,4.25.16,7.19-6.3,3.46-6.3,3.46S898.24,962.39,899.94,959.45Z"/><path class="cls-14" d="M905.38,962.85c0-3.39,3.73-6.15,3.73-6.15s3.73,2.76,3.73,6.15-3.73,6.15-3.73,6.15S905.38,966.24,905.38,962.85Z"/><path class="cls-14" d="M911.79,963.07c-1.7-2.94.16-7.19.16-7.19s4.61.52,6.3,3.46-.15,7.19-.15,7.19S913.49,966,911.79,963.07Z"/><path class="cls-14" d="M917.46,960.06c-2.94-1.7-3.46-6.3-3.46-6.3s4.25-1.86,7.19-.16,3.45,6.3,3.45,6.3S920.4,961.76,917.46,960.06Z"/><path class="cls-14" d="M920.85,954.62c-3.39,0-6.14-3.73-6.14-3.73s2.75-3.73,6.14-3.73,6.15,3.73,6.15,3.73S924.25,954.62,920.85,954.62Z"/><path class="cls-14" d="M921.08,948.21c-2.94,1.69-7.19-.16-7.19-.16s.52-4.61,3.46-6.31,7.18.16,7.18.16S924,946.51,921.08,948.21Z"/><path class="cls-14" d="M918.06,942.54c-1.69,2.94-6.3,3.46-6.3,3.46s-1.86-4.25-.16-7.19,6.31-3.46,6.31-3.46S919.76,939.6,918.06,942.54Z"/></g><g id="corridos-01"><circle class="cls-13" cx="1385.89" cy="314" r="9.22"/><path class="cls-14" d="M1389.62,302.14c0,3.4-3.73,6.15-3.73,6.15s-3.73-2.75-3.73-6.15,3.73-6.14,3.73-6.14S1389.62,298.75,1389.62,302.14Z"/><path class="cls-14" d="M1383.21,301.92c1.7,2.94-.16,7.19-.16,7.19s-4.61-.52-6.3-3.46.16-7.19.16-7.19S1381.51,299,1383.21,301.92Z"/><path class="cls-14" d="M1377.55,304.93c2.94,1.7,3.45,6.31,3.45,6.31s-4.25,1.85-7.19.16-3.45-6.31-3.45-6.31S1374.61,303.24,1377.55,304.93Z"/><path class="cls-14" d="M1374.15,310.37c3.39,0,6.14,3.74,6.14,3.74s-2.75,3.73-6.14,3.73-6.15-3.73-6.15-3.73S1370.75,310.37,1374.15,310.37Z"/><path class="cls-14" d="M1373.92,316.79c2.94-1.7,7.19.16,7.19.16s-.51,4.6-3.45,6.3-7.19-.16-7.19-.16S1371,318.48,1373.92,316.79Z"/><path class="cls-14" d="M1376.94,322.45c1.69-2.94,6.3-3.46,6.3-3.46s1.86,4.25.16,7.19-6.3,3.46-6.3,3.46S1375.24,325.39,1376.94,322.45Z"/><path class="cls-14" d="M1382.38,325.85c0-3.39,3.73-6.15,3.73-6.15s3.73,2.76,3.73,6.15-3.73,6.15-3.73,6.15S1382.38,329.24,1382.38,325.85Z"/><path class="cls-14" d="M1388.79,326.07c-1.7-2.94.16-7.19.16-7.19s4.61.52,6.3,3.46-.15,7.19-.15,7.19S1390.49,329,1388.79,326.07Z"/><path class="cls-14" d="M1394.46,323.06c-2.94-1.7-3.46-6.3-3.46-6.3s4.25-1.86,7.19-.16,3.45,6.3,3.45,6.3S1397.4,324.76,1394.46,323.06Z"/><path class="cls-14" d="M1397.85,317.62c-3.39,0-6.14-3.73-6.14-3.73s2.75-3.73,6.14-3.73,6.15,3.73,6.15,3.73S1401.25,317.62,1397.85,317.62Z"/><path class="cls-14" d="M1398.08,311.21c-2.94,1.69-7.19-.16-7.19-.16s.52-4.61,3.46-6.31,7.18.16,7.18.16S1401,309.51,1398.08,311.21Z"/><path class="cls-14" d="M1395.06,305.54c-1.69,2.94-6.3,3.46-6.3,3.46s-1.86-4.25-.16-7.19,6.31-3.46,6.31-3.46S1396.76,302.6,1395.06,305.54Z"/></g><g id="leaf-20"><path class="cls-15" d="M305.22,159.39s50.19,80.08-57.1,165.62"/><path class="cls-16" d="M332.35,180.63c4.76-5,4.27-13.18,4.27-13.18s-8.2-.09-13,4.91-4.28,13.19-4.28,13.19S327.58,185.63,332.35,180.63Z"/><path class="cls-16" d="M335.66,208.25c5.47-4.21,6.25-12.38,6.25-12.38s-8.1-1.34-13.57,2.87-6.24,12.38-6.24,12.38S330.19,212.46,335.66,208.25Z"/><path class="cls-16" d="M333,237.69c6-3.47,7.8-11.47,7.8-11.47S333,223.84,327,227.31s-7.8,11.46-7.8,11.46S327,241.15,333,237.69Z"/><path class="cls-16" d="M324.16,266.87c6.77-1.35,11.08-8.34,11.08-8.34s-6.66-4.78-13.43-3.43-11.08,8.34-11.08,8.34S317.39,268.22,324.16,266.87Z"/><path class="cls-16" d="M305,297.37c6.9-.3,12.23-6.54,12.23-6.54s-5.86-5.75-12.75-5.44-12.23,6.54-12.23,6.54S298.11,297.68,305,297.37Z"/><path class="cls-16" d="M285.92,319.94c6.88.59,13-4.9,13-4.9S293.83,308.58,287,308s-13,4.9-13,4.9S279,319.34,285.92,319.94Z"/><path class="cls-16" d="M298.93,185.33c-5-4-6.38-12.09-6.38-12.09s6.71-1.58,11.71,2.42,6.38,12.09,6.38,12.09S303.93,189.34,298.93,185.33Z"/><path class="cls-16" d="M300.16,210.25c-4.6-4.21-5.25-12.38-5.25-12.38s6.8-1.34,11.4,2.87,5.25,12.38,5.25,12.38S304.75,214.46,300.16,210.25Z"/><path class="cls-16" d="M297.38,234.69c-5-3.47-6.55-11.47-6.55-11.47s6.6-2.38,11.62,1.09S309,235.77,309,235.77,302.4,238.15,297.38,234.69Z"/><path class="cls-16" d="M285.9,255.78c-1.64-6.19,2-13.52,2-13.52s6.34,2.71,8,8.9-2,13.52-2,13.52S287.54,262,285.9,255.78Z"/><path class="cls-16" d="M270.09,278.56c-1.2-6.12,3.13-13.08,3.13-13.08s6.27,3,7.47,9.08-3.12,13.08-3.12,13.08S271.3,284.68,270.09,278.56Z"/><path class="cls-16" d="M253.36,296.58c-2-5.77,1.53-13.12,1.53-13.12s6.72,2,8.7,7.78-1.53,13.11-1.53,13.11S255.34,302.35,253.36,296.58Z"/></g><g id="leaf-19"><path class="cls-15" d="M926.22,192.39s50.19,80.08-57.1,165.62"/><path class="cls-16" d="M953.35,213.63c4.76-5,4.27-13.18,4.27-13.18s-8.2-.09-13,4.91-4.28,13.19-4.28,13.19S948.58,218.63,953.35,213.63Z"/><path class="cls-16" d="M956.66,241.25c5.47-4.21,6.25-12.38,6.25-12.38s-8.1-1.34-13.57,2.87-6.24,12.38-6.24,12.38S951.19,245.46,956.66,241.25Z"/><path class="cls-16" d="M954,270.69c6-3.47,7.8-11.47,7.8-11.47S954,256.84,948,260.31s-7.8,11.46-7.8,11.46S948,274.15,954,270.69Z"/><path class="cls-16" d="M945.16,299.87c6.77-1.35,11.08-8.34,11.08-8.34s-6.66-4.78-13.43-3.43-11.08,8.34-11.08,8.34S938.39,301.22,945.16,299.87Z"/><path class="cls-16" d="M926,330.37c6.9-.3,12.23-6.54,12.23-6.54s-5.86-5.75-12.75-5.44-12.23,6.54-12.23,6.54S919.11,330.68,926,330.37Z"/><path class="cls-16" d="M906.92,352.94c6.88.59,13-4.9,13-4.9S914.83,341.58,908,341s-13,4.9-13,4.9S900,352.34,906.92,352.94Z"/><path class="cls-16" d="M919.93,218.33c-5-4-6.38-12.09-6.38-12.09s6.71-1.58,11.71,2.42,6.38,12.09,6.38,12.09S924.93,222.34,919.93,218.33Z"/><path class="cls-16" d="M921.16,243.25c-4.6-4.21-5.25-12.38-5.25-12.38s6.8-1.34,11.4,2.87,5.25,12.38,5.25,12.38S925.75,247.46,921.16,243.25Z"/><path class="cls-16" d="M918.38,267.69c-5-3.47-6.55-11.47-6.55-11.47s6.6-2.38,11.62,1.09S930,268.77,930,268.77,923.4,271.15,918.38,267.69Z"/><path class="cls-16" d="M906.9,288.78c-1.64-6.19,2-13.52,2-13.52s6.34,2.71,8,8.9-2,13.52-2,13.52S908.54,295,906.9,288.78Z"/><path class="cls-16" d="M891.09,311.56c-1.2-6.12,3.13-13.08,3.13-13.08s6.27,3,7.47,9.08-3.12,13.08-3.12,13.08S892.3,317.68,891.09,311.56Z"/><path class="cls-16" d="M874.36,329.58c-2-5.77,1.53-13.12,1.53-13.12s6.72,2,8.7,7.78-1.53,13.11-1.53,13.11S876.34,335.35,874.36,329.58Z"/></g><g id="leaf-18"><path class="cls-15" d="M1673.9,237.77s94.21,7.5,98.84,144.63"/><path class="cls-16" d="M1707.13,228.67c-1.17-6.8-8-11.3-8-11.3s-5,6.54-3.79,13.34,8,11.3,8,11.3S1708.3,235.48,1707.13,228.67Z"/><path class="cls-16" d="M1731.27,242.49c-.11-6.9-6.2-12.4-6.2-12.4s-5.91,5.7-5.8,12.6,6.21,12.4,6.21,12.4S1731.39,249.39,1731.27,242.49Z"/><path class="cls-16" d="M1753.31,262.18c.78-6.86-4.55-13.1-4.55-13.1s-6.59,4.88-7.37,11.74,4.55,13.1,4.55,13.1S1752.53,269,1753.31,262.18Z"/><path class="cls-16" d="M1771.45,286.69c3-6.24-.07-13.86-.07-13.86s-7.82,2.49-10.77,8.73.07,13.87.07,13.87S1768.5,292.93,1771.45,286.69Z"/><path class="cls-16" d="M1784.5,320.27c3.87-5.71,2-13.71,2-13.71s-8.11,1.26-12,7-2,13.71-2,13.71S1780.63,326,1784.5,320.27Z"/><path class="cls-16" d="M1791.22,349.05c4.58-5.17,3.81-13.33,3.81-13.33s-8.21.2-12.79,5.37-3.8,13.33-3.8,13.33S1786.64,354.21,1791.22,349.05Z"/><path class="cls-16" d="M1691,258.29c-6.2,1.62-13.51-2.09-13.51-2.09s2.73-6.33,8.92-7.95,13.51,2.09,13.51,2.09S1697.16,256.67,1691,258.29Z"/><path class="cls-16" d="M1711.69,272.18c-6.12,1.17-13.06-3.18-13.06-3.18s3-6.26,9.1-7.44,13.07,3.18,13.07,3.18S1717.82,271,1711.69,272.18Z"/><path class="cls-16" d="M1729.65,289c-5.78,2-13.12-1.58-13.12-1.58s2-6.72,7.81-8.67,13.11,1.58,13.11,1.58S1735.42,287,1729.65,289Z"/><path class="cls-16" d="M1739.72,310.78c-5.94-2.37-9.63-9.7-9.63-9.7s6-3.47,11.91-1.1,9.63,9.7,9.63,9.7S1745.67,313.16,1739.72,310.78Z"/><path class="cls-16" d="M1748.58,337.06c-5.63-2.69-8.64-10.31-8.64-10.31s6.12-3.27,11.75-.58,8.63,10.31,8.63,10.31S1754.2,339.75,1748.58,337.06Z"/><path class="cls-16" d="M1753.05,361.24c-5.81-1.85-9.61-9.06-9.61-9.06s5.62-4.2,11.43-2.34,9.61,9.05,9.61,9.05S1758.86,363.09,1753.05,361.24Z"/></g><g id="leaf-17"><path class="cls-15" d="M1328,862.09s92.72-18.27,134.29,112.49"/><path class="cls-16" d="M1357.57,844.35c-3-6.24-10.79-8.71-10.79-8.71s-3,7.63,0,13.87,10.8,8.7,10.8,8.7S1360.54,850.58,1357.57,844.35Z"/><path class="cls-16" d="M1384.55,851.11c-2-6.61-9.34-10.25-9.34-10.25s-4.14,7.08-2.16,13.69,9.33,10.26,9.33,10.26S1386.52,857.73,1384.55,851.11Z"/><path class="cls-16" d="M1411.09,864.1c-1.1-6.81-7.92-11.38-7.92-11.38s-5,6.49-3.92,13.3,7.92,11.38,7.92,11.38S1412.2,870.91,1411.09,864.1Z"/><path class="cls-16" d="M1435.19,882.79c1.15-6.8-3.83-13.32-3.83-13.32s-6.85,4.51-8,11.32,3.82,13.33,3.82,13.33S1434,889.6,1435.19,882.79Z"/><path class="cls-16" d="M1456.84,911.59c2.18-6.55-1.75-13.76-1.75-13.76s-7.46,3.41-9.64,10,1.74,13.76,1.74,13.76S1454.65,918.14,1456.84,911.59Z"/><path class="cls-16" d="M1471.09,937.47c3-6.21.06-13.86.06-13.86s-7.84,2.41-10.85,8.63-.06,13.86-.06,13.86S1468.08,943.68,1471.09,937.47Z"/><path class="cls-16" d="M1350,877.23c-5.53,3.24-13.57,1.65-13.57,1.65s.91-6.84,6.44-10.08,13.57-1.64,13.57-1.64S1355.54,874,1350,877.23Z"/><path class="cls-16" d="M1373.73,885c-5.58,2.79-13.44.48-13.44.48s1.18-6.83,6.76-9.62,13.44-.48,13.44-.48S1379.31,882.2,1373.73,885Z"/><path class="cls-16" d="M1395.56,896.31c-5,3.45-13,2-13,2s.14-7,5.17-10.47,13-2,13-2S1400.59,892.86,1395.56,896.31Z"/><path class="cls-16" d="M1411.16,914.57c-6.36-.68-11.9-6.73-11.9-6.73s4.8-5,11.17-4.28,11.9,6.73,11.9,6.73S1417.53,915.25,1411.16,914.57Z"/><path class="cls-16" d="M1426.8,937.47c-6.15-1.06-11.11-7.59-11.11-7.59s5-4.8,11.15-3.73,11.1,7.58,11.1,7.58S1432.94,938.53,1426.8,937.47Z"/><path class="cls-16" d="M1437.65,959.54c-6.1-.21-11.71-6.12-11.71-6.12s4.27-5.56,10.37-5.35,11.71,6.11,11.71,6.11S1443.74,959.75,1437.65,959.54Z"/></g><g id="leaf-16"><path class="cls-15" d="M1671.21,699.15s25.81,90.92-101.1,143.06"/><path class="cls-16" d="M1691.32,727.13c6-3.47,7.79-11.47,7.79-11.47s-7.86-2.38-13.82,1.09-7.8,11.47-7.8,11.47S1685.35,730.6,1691.32,727.13Z"/><path class="cls-16" d="M1686.78,754.57c6.43-2.51,9.46-10.14,9.46-10.14s-7.4-3.55-13.83-1-9.46,10.15-9.46,10.15S1680.35,757.08,1686.78,754.57Z"/><path class="cls-16" d="M1676,782.09c6.71-1.66,10.69-8.83,10.69-8.83s-6.87-4.48-13.57-2.82-10.69,8.83-10.69,8.83S1669.31,783.75,1676,782.09Z"/><path class="cls-16" d="M1659.36,807.64c6.88.59,13-4.91,13-4.91s-5.06-6.45-11.94-7.05-13,4.91-13,4.91S1652.48,807.05,1659.36,807.64Z"/><path class="cls-16" d="M1632.44,831.57c6.71,1.64,13.57-2.86,13.57-2.86s-4-7.16-10.72-8.79-13.57,2.86-13.57,2.86S1625.73,829.94,1632.44,831.57Z"/><path class="cls-16" d="M1607.81,847.91c6.44,2.49,13.82-1.09,13.82-1.09s-3.05-7.61-9.49-10.1-13.82,1.08-13.82,1.08S1601.37,845.41,1607.81,847.91Z"/><path class="cls-16" d="M1657.92,722.3c-3.68-5.24-2.75-13.39-2.75-13.39s6.89.35,10.57,5.59,2.75,13.39,2.75,13.39S1661.6,727.54,1657.92,722.3Z"/><path class="cls-16" d="M1652.13,746.57c-3.24-5.33-1.58-13.36-1.58-13.36s6.91.62,10.15,5.95,1.58,13.35,1.58,13.35S1655.37,751.9,1652.13,746.57Z"/><path class="cls-16" d="M1642.64,769.25c-3.85-4.73-3.09-12.84-3.09-12.84s7-.44,10.85,4.3,3.09,12.84,3.09,12.84S1646.49,774,1642.64,769.25Z"/><path class="cls-16" d="M1625.72,786.3c.15-6.4,5.73-12.41,5.73-12.41s5.34,4.37,5.19,10.77-5.73,12.41-5.73,12.41S1625.57,792.7,1625.72,786.3Z"/><path class="cls-16" d="M1604.18,803.76c.55-6.21,6.65-11.69,6.65-11.69s5.2,4.6,4.64,10.81-6.65,11.68-6.65,11.68S1603.62,810,1604.18,803.76Z"/><path class="cls-16" d="M1583.07,816.38c-.29-6.09,5.14-12.17,5.14-12.17s5.9,3.81,6.19,9.9-5.14,12.17-5.14,12.17S1583.36,822.47,1583.07,816.38Z"/></g><g id="leaf-15"><path class="cls-15" d="M1482.22,263.39s50.19,80.08-57.1,165.62"/><path class="cls-16" d="M1509.35,284.63c4.76-5,4.27-13.18,4.27-13.18s-8.2-.09-13,4.91-4.28,13.19-4.28,13.19S1504.58,289.63,1509.35,284.63Z"/><path class="cls-16" d="M1512.66,312.25c5.47-4.21,6.25-12.38,6.25-12.38s-8.1-1.34-13.57,2.87-6.24,12.38-6.24,12.38S1507.19,316.46,1512.66,312.25Z"/><path class="cls-16" d="M1510,341.69c6-3.47,7.8-11.47,7.8-11.47s-7.85-2.38-13.82,1.09-7.8,11.46-7.8,11.46S1504,345.15,1510,341.69Z"/><path class="cls-16" d="M1501.16,370.87c6.77-1.35,11.08-8.34,11.08-8.34s-6.66-4.78-13.43-3.43-11.08,8.34-11.08,8.34S1494.39,372.22,1501.16,370.87Z"/><path class="cls-16" d="M1482,401.37c6.9-.3,12.23-6.54,12.23-6.54s-5.86-5.75-12.75-5.44-12.23,6.54-12.23,6.54S1475.11,401.68,1482,401.37Z"/><path class="cls-16" d="M1462.92,423.94c6.88.59,13-4.9,13-4.9s-5.06-6.46-11.94-7.06-13,4.9-13,4.9S1456,423.34,1462.92,423.94Z"/><path class="cls-16" d="M1475.93,289.33c-5-4-6.38-12.09-6.38-12.09s6.71-1.58,11.71,2.42,6.38,12.09,6.38,12.09S1480.93,293.34,1475.93,289.33Z"/><path class="cls-16" d="M1477.16,314.25c-4.6-4.21-5.25-12.38-5.25-12.38s6.8-1.34,11.4,2.87,5.25,12.38,5.25,12.38S1481.75,318.46,1477.16,314.25Z"/><path class="cls-16" d="M1474.38,338.69c-5-3.47-6.55-11.47-6.55-11.47s6.6-2.38,11.62,1.09,6.55,11.46,6.55,11.46S1479.4,342.15,1474.38,338.69Z"/><path class="cls-16" d="M1462.9,359.78c-1.64-6.19,2-13.52,2-13.52s6.34,2.71,8,8.9-2,13.52-2,13.52S1464.54,366,1462.9,359.78Z"/><path class="cls-16" d="M1447.09,382.56c-1.2-6.12,3.13-13.08,3.13-13.08s6.27,3,7.47,9.08-3.12,13.08-3.12,13.08S1448.3,388.68,1447.09,382.56Z"/><path class="cls-16" d="M1430.36,400.58c-2-5.77,1.53-13.12,1.53-13.12s6.72,2,8.7,7.78-1.53,13.11-1.53,13.11S1432.34,406.35,1430.36,400.58Z"/></g><g id="leaf-14"><path class="cls-17" d="M174.93,315.39S138,395.47,217,481"/><path class="cls-16" d="M155,336.63c-3.51-5-3.15-13.18-3.15-13.18s6-.09,9.55,4.91,3.15,13.19,3.15,13.19S158.46,341.63,155,336.63Z"/><path class="cls-16" d="M152.51,364.25c-4-4.21-4.6-12.38-4.6-12.38s6-1.34,10,2.87,4.6,12.38,4.6,12.38S156.54,368.46,152.51,364.25Z"/><path class="cls-16" d="M154.46,393.69c-4.4-3.47-5.75-11.47-5.75-11.47s5.79-2.38,10.19,1.09,5.74,11.46,5.74,11.46S158.86,397.15,154.46,393.69Z"/><path class="cls-16" d="M161,422.87c-5-1.35-8.17-8.34-8.17-8.34s4.92-4.78,9.9-3.43,8.17,8.34,8.17,8.34S166,424.22,161,422.87Z"/><path class="cls-16" d="M175.1,453.37c-5.09-.3-9-6.54-9-6.54s4.31-5.75,9.39-5.44,9,6.54,9,6.54S180.18,453.68,175.1,453.37Z"/><path class="cls-16" d="M189.16,475.94c-5.07.59-9.56-4.9-9.56-4.9s3.73-6.46,8.79-7.06,9.56,4.9,9.56,4.9S194.22,475.34,189.16,475.94Z"/><path class="cls-16" d="M179.57,341.33c3.68-4,4.7-12.09,4.7-12.09a8.68,8.68,0,0,0-8.63,2.42c-3.68,4-4.7,12.09-4.7,12.09A8.65,8.65,0,0,0,179.57,341.33Z"/><path class="cls-16" d="M178.67,366.25c3.38-4.21,3.86-12.38,3.86-12.38a8.46,8.46,0,0,0-8.4,2.87c-3.39,4.21-3.87,12.38-3.87,12.38A8.47,8.47,0,0,0,178.67,366.25Z"/><path class="cls-16" d="M180.71,390.69c3.7-3.47,4.83-11.47,4.83-11.47s-4.86-2.38-8.56,1.09-4.83,11.46-4.83,11.46S177,394.15,180.71,390.69Z"/><path class="cls-16" d="M189.17,411.78c1.21-6.19-1.5-13.52-1.5-13.52a13.75,13.75,0,0,0-5.89,8.9c-1.21,6.19,1.5,13.52,1.5,13.52A13.75,13.75,0,0,0,189.17,411.78Z"/><path class="cls-16" d="M200.81,434.56c.89-6.12-2.3-13.08-2.3-13.08a13.65,13.65,0,0,0-5.5,9.08c-.89,6.12,2.3,13.08,2.3,13.08A13.65,13.65,0,0,0,200.81,434.56Z"/><path class="cls-16" d="M213.14,452.58c1.46-5.77-1.12-13.12-1.12-13.12a11.84,11.84,0,0,0-6.42,7.78c-1.46,5.76,1.13,13.11,1.13,13.11A11.8,11.8,0,0,0,213.14,452.58Z"/></g><g id="leaf-13"><path class="cls-17" d="M734.93,231.39S698,311.47,777,397"/><path class="cls-16" d="M715,252.63c-3.51-5-3.15-13.18-3.15-13.18s6-.09,9.55,4.91,3.15,13.19,3.15,13.19S718.46,257.63,715,252.63Z"/><path class="cls-16" d="M712.51,280.25c-4-4.21-4.6-12.38-4.6-12.38s6-1.34,10,2.87,4.6,12.38,4.6,12.38S716.54,284.46,712.51,280.25Z"/><path class="cls-16" d="M714.46,309.69c-4.4-3.47-5.75-11.47-5.75-11.47s5.79-2.38,10.19,1.09,5.74,11.46,5.74,11.46S718.86,313.15,714.46,309.69Z"/><path class="cls-16" d="M721,338.87c-5-1.35-8.17-8.34-8.17-8.34s4.92-4.78,9.9-3.43,8.17,8.34,8.17,8.34S726,340.22,721,338.87Z"/><path class="cls-16" d="M735.1,369.37c-5.09-.3-9-6.54-9-6.54s4.31-5.75,9.39-5.44,9,6.54,9,6.54S740.18,369.68,735.1,369.37Z"/><path class="cls-16" d="M749.16,391.94c-5.07.59-9.56-4.9-9.56-4.9s3.73-6.46,8.79-7.06,9.56,4.9,9.56,4.9S754.22,391.34,749.16,391.94Z"/><path class="cls-16" d="M739.57,257.33c3.68-4,4.7-12.09,4.7-12.09a8.68,8.68,0,0,0-8.63,2.42c-3.68,4-4.7,12.09-4.7,12.09A8.65,8.65,0,0,0,739.57,257.33Z"/><path class="cls-16" d="M738.67,282.25c3.38-4.21,3.86-12.38,3.86-12.38a8.46,8.46,0,0,0-8.4,2.87c-3.39,4.21-3.87,12.38-3.87,12.38A8.47,8.47,0,0,0,738.67,282.25Z"/><path class="cls-16" d="M740.71,306.69c3.7-3.47,4.83-11.47,4.83-11.47s-4.86-2.38-8.56,1.09-4.83,11.46-4.83,11.46S737,310.15,740.71,306.69Z"/><path class="cls-16" d="M749.17,327.78c1.21-6.19-1.5-13.52-1.5-13.52a13.75,13.75,0,0,0-5.89,8.9c-1.21,6.19,1.5,13.52,1.5,13.52A13.75,13.75,0,0,0,749.17,327.78Z"/><path class="cls-16" d="M760.81,350.56c.89-6.12-2.3-13.08-2.3-13.08a13.65,13.65,0,0,0-5.5,9.08c-.89,6.12,2.3,13.08,2.3,13.08A13.65,13.65,0,0,0,760.81,350.56Z"/><path class="cls-16" d="M773.14,368.58c1.46-5.77-1.12-13.12-1.12-13.12a11.84,11.84,0,0,0-6.42,7.78c-1.46,5.76,1.13,13.11,1.13,13.11A11.8,11.8,0,0,0,773.14,368.58Z"/></g><g id="leaf-12"><path class="cls-17" d="M439.53,645.7s-85.06-23.34-156.47,68.66"/><path class="cls-16" d="M415.3,629.47c4.36-4.28,12.49-5.27,12.49-5.27s1.08,5.95-3.28,10.23S412,639.7,412,639.7,410.94,633.75,415.3,629.47Z"/><path class="cls-16" d="M387.66,631.59c3.49-4.66,11.45-6.57,11.45-6.57s2.3,5.67-1.19,10.33-11.46,6.57-11.46,6.57S384.16,636.26,387.66,631.59Z"/><path class="cls-16" d="M358.94,638.34c2.7-4.9,10.37-7.54,10.37-7.54s3.29,5.31.59,10.22-10.36,7.55-10.36,7.55S356.24,643.25,358.94,638.34Z"/><path class="cls-16" d="M331.22,649.56c.52-5.14,6.88-9.42,6.88-9.42s5.53,4.06,5,9.2-6.88,9.42-6.88,9.42S330.7,654.7,331.22,649.56Z"/><path class="cls-16" d="M303.44,668.49c-.53-5.06,5-10,5-10s6.38,3.31,6.91,8.38-5,10-5,10S304,673.55,303.44,668.49Z"/><path class="cls-16" d="M283.49,686.06c-1.42-4.9,3.27-10.23,3.27-10.23s7,2.62,8.4,7.52-3.27,10.23-3.27,10.23S284.91,691,283.49,686.06Z"/><path class="cls-16" d="M414.7,654.53c4.56,3,12.7,2.66,12.7,2.66a8.68,8.68,0,0,0-3.8-8.12c-4.56-3-12.7-2.66-12.7-2.66A8.68,8.68,0,0,0,414.7,654.53Z"/><path class="cls-16" d="M390,657.73c4.71,2.65,12.85,1.78,12.85,1.78a8.47,8.47,0,0,0-4.21-7.82c-4.71-2.65-12.85-1.78-12.85-1.78A8.47,8.47,0,0,0,390,657.73Z"/><path class="cls-16" d="M366.21,663.75c4,3.08,12.1,2.88,12.1,2.88s1.55-5.19-2.48-8.26-12.1-2.89-12.1-2.89S362.18,660.67,366.21,663.75Z"/><path class="cls-16" d="M346.78,675.55c6.31.18,13.09-3.69,13.09-3.69a13.72,13.72,0,0,0-9.74-4.35c-6.3-.18-13.09,3.7-13.09,3.7A13.76,13.76,0,0,0,346.78,675.55Z"/><path class="cls-16" d="M326.22,690.78c6.18-.13,12.52-4.42,12.52-4.42a13.64,13.64,0,0,0-9.85-3.94c-6.19.13-12.53,4.41-12.53,4.41A13.66,13.66,0,0,0,326.22,690.78Z"/><path class="cls-16" d="M310.47,705.9c5.93.49,12.75-3.27,12.75-3.27a11.81,11.81,0,0,0-8.72-5c-5.93-.49-12.75,3.26-12.75,3.26A11.84,11.84,0,0,0,310.47,705.9Z"/></g><g id="leaf-11"><path class="cls-17" d="M1051.69,689.33s83.43,28.63,160.46-58.71"/><path class="cls-16" d="M1074.85,707.05c-4.61,4-12.8,4.48-12.8,4.48s-.7-6,3.92-10,12.8-4.47,12.8-4.47S1079.47,703.05,1074.85,707.05Z"/><path class="cls-16" d="M1102.58,706.67c-3.78,4.44-11.85,5.83-11.85,5.83s-1.94-5.79,1.84-10.23,11.84-5.84,11.84-5.84S1106.35,702.23,1102.58,706.67Z"/><path class="cls-16" d="M1131.66,701.73c-3,4.73-10.82,6.88-10.82,6.88s-3-5.51,0-10.24,10.82-6.88,10.82-6.88S1134.66,697,1131.66,701.73Z"/><path class="cls-16" d="M1160,692.27c-.84,5.1-7.46,9-7.46,9s-5.27-4.4-4.43-9.5,7.46-9,7.46-9S1160.87,687.17,1160,692.27Z"/><path class="cls-16" d="M1188.93,675.12c.22,5.08-5.59,9.62-5.59,9.62s-6.15-3.7-6.37-8.79,5.59-9.62,5.59-9.62S1188.72,670,1188.93,675.12Z"/><path class="cls-16" d="M1210,658.83c1.11,5-3.9,10-3.9,10s-6.81-3.05-7.92-8,3.91-10,3.91-10S1208.84,653.85,1210,658.83Z"/><path class="cls-16" d="M1077,682.08c-4.36-3.25-12.5-3.45-12.5-3.45a8.65,8.65,0,0,0,3.28,8.34c4.36,3.25,12.5,3.45,12.5,3.45A8.66,8.66,0,0,0,1077,682.08Z"/><path class="cls-16" d="M1101.9,680.44c-4.53-2.94-12.71-2.59-12.71-2.59a8.47,8.47,0,0,0,3.71,8.07c4.54,2.94,12.71,2.59,12.71,2.59A8.45,8.45,0,0,0,1101.9,680.44Z"/><path class="cls-16" d="M1126,675.92c-3.83-3.33-11.9-3.64-11.9-3.64s-1.87,5.08,2,8.41,11.9,3.63,11.9,3.63S1129.83,679.24,1126,675.92Z"/><path class="cls-16" d="M1146.12,665.35c-6.28-.57-13.29,2.87-13.29,2.87a13.73,13.73,0,0,0,9.45,4.95c6.28.58,13.29-2.87,13.29-2.87A13.77,13.77,0,0,0,1146.12,665.35Z"/><path class="cls-16" d="M1167.6,651.45c-6.18-.26-12.78,3.62-12.78,3.62a13.7,13.7,0,0,0,9.6,4.55c6.17.26,12.77-3.62,12.77-3.62A13.66,13.66,0,0,0,1167.6,651.45Z"/><path class="cls-16" d="M1184.27,637.35c-5.89-.87-12.94,2.46-12.94,2.46a11.81,11.81,0,0,0,8.39,5.58c5.89.87,12.93-2.45,12.93-2.45A11.78,11.78,0,0,0,1184.27,637.35Z"/></g><g id="leaf-10"><path class="cls-17" d="M350.07,422.46s81.67,33.32,163.54-49.52"/><path class="cls-16" d="M372.2,441.46c-4.84,3.73-13,3.74-13,3.74s-.36-6,4.48-9.76,13-3.75,13-3.75S377,437.73,372.2,441.46Z"/><path class="cls-16" d="M399.89,442.65c-4,4.22-12.15,5.16-12.15,5.16s-1.61-5.9,2.41-10.12,12.16-5.15,12.16-5.15S403.92,438.43,399.89,442.65Z"/><path class="cls-16" d="M429.21,439.37C426,443.92,418,445.63,418,445.63s-2.64-5.67.62-10.22,11.2-6.26,11.2-6.26S432.47,434.82,429.21,439.37Z"/><path class="cls-16" d="M458.07,431.54c-1.13,5-8,8.53-8,8.53s-5-4.69-3.87-9.73,7.95-8.54,7.95-8.54S459.2,426.49,458.07,431.54Z"/><path class="cls-16" d="M487.9,416.05c-.07,5.09-6.12,9.3-6.12,9.3s-5.94-4.05-5.87-9.14,6.13-9.29,6.13-9.29S488,411,487.9,416.05Z"/><path class="cls-16" d="M509.81,401c.82,5-4.47,9.77-4.47,9.77s-6.62-3.44-7.44-8.47,4.47-9.77,4.47-9.77S509,396,509.81,401Z"/><path class="cls-16" d="M375.77,416.66c-4.16-3.5-12.28-4.16-12.28-4.16a8.64,8.64,0,0,0,2.8,8.51c4.17,3.5,12.29,4.15,12.29,4.15A8.64,8.64,0,0,0,375.77,416.66Z"/><path class="cls-16" d="M400.71,416.43c-4.36-3.2-12.54-3.31-12.54-3.31a8.46,8.46,0,0,0,3.24,8.27c4.36,3.19,12.55,3.3,12.55,3.3A8.45,8.45,0,0,0,400.71,416.43Z"/><path class="cls-16" d="M425,413.28c-3.64-3.54-11.68-4.3-11.68-4.3s-2.15,5,1.48,8.5,11.67,4.3,11.67,4.3S428.66,416.82,425,413.28Z"/><path class="cls-16" d="M445.72,403.88c-6.24-.93-13.44,2.11-13.44,2.11a13.77,13.77,0,0,0,9.15,5.47c6.24.93,13.44-2.11,13.44-2.11A13.77,13.77,0,0,0,445.72,403.88Z"/><path class="cls-16" d="M468,391.21c-6.15-.61-13,2.89-13,2.89a13.65,13.65,0,0,0,9.31,5.09c6.16.61,13-2.89,13-2.89A13.69,13.69,0,0,0,468,391.21Z"/><path class="cls-16" d="M485.39,378.08c-5.83-1.2-13.05,1.72-13.05,1.72a11.81,11.81,0,0,0,8.05,6.06c5.83,1.19,13.06-1.72,13.06-1.72A11.84,11.84,0,0,0,485.39,378.08Z"/></g><g id="leaf-09"><path class="cls-17" d="M1003.07,944.46s81.67,33.32,163.54-49.52"/><path class="cls-16" d="M1025.2,963.46c-4.84,3.73-13,3.74-13,3.74s-.36-6,4.48-9.76,13-3.75,13-3.75S1030,959.73,1025.2,963.46Z"/><path class="cls-16" d="M1052.89,964.65c-4,4.22-12.15,5.16-12.15,5.16s-1.61-5.9,2.41-10.12,12.16-5.15,12.16-5.15S1056.92,960.43,1052.89,964.65Z"/><path class="cls-16" d="M1082.21,961.37c-3.26,4.55-11.19,6.26-11.19,6.26s-2.64-5.67.62-10.22,11.2-6.26,11.2-6.26S1085.47,956.82,1082.21,961.37Z"/><path class="cls-16" d="M1111.07,953.54c-1.13,5-8,8.53-8,8.53s-5-4.69-3.87-9.73,8-8.54,8-8.54S1112.2,948.49,1111.07,953.54Z"/><path class="cls-16" d="M1140.9,938.05c-.07,5.09-6.12,9.3-6.12,9.3s-5.94-4.05-5.87-9.14,6.13-9.29,6.13-9.29S1141,933,1140.9,938.05Z"/><path class="cls-16" d="M1162.81,923c.82,5-4.47,9.77-4.47,9.77s-6.62-3.44-7.44-8.47,4.47-9.77,4.47-9.77S1162,918,1162.81,923Z"/><path class="cls-16" d="M1028.77,938.66c-4.16-3.5-12.28-4.16-12.28-4.16a8.64,8.64,0,0,0,2.8,8.51c4.17,3.5,12.29,4.15,12.29,4.15A8.64,8.64,0,0,0,1028.77,938.66Z"/><path class="cls-16" d="M1053.71,938.43c-4.36-3.2-12.54-3.31-12.54-3.31a8.46,8.46,0,0,0,3.24,8.27c4.36,3.19,12.55,3.3,12.55,3.3A8.45,8.45,0,0,0,1053.71,938.43Z"/><path class="cls-16" d="M1078,935.28c-3.64-3.54-11.68-4.3-11.68-4.3s-2.15,5,1.48,8.5,11.67,4.3,11.67,4.3S1081.66,938.82,1078,935.28Z"/><path class="cls-16" d="M1098.72,925.88c-6.24-.93-13.44,2.11-13.44,2.11a13.77,13.77,0,0,0,9.15,5.47c6.24.93,13.44-2.11,13.44-2.11A13.77,13.77,0,0,0,1098.72,925.88Z"/><path class="cls-16" d="M1121,913.21c-6.15-.61-13,2.89-13,2.89a13.65,13.65,0,0,0,9.31,5.09c6.16.61,13-2.89,13-2.89A13.69,13.69,0,0,0,1121,913.21Z"/><path class="cls-16" d="M1138.39,900.08c-5.83-1.2-13.05,1.72-13.05,1.72a11.81,11.81,0,0,0,8.05,6.06c5.83,1.19,13.06-1.72,13.06-1.72A11.84,11.84,0,0,0,1138.39,900.08Z"/></g><g id="leaf-08"><path class="cls-17" d="M531.07,779.46s81.67,33.32,163.54-49.52"/><path class="cls-16" d="M553.2,798.46c-4.84,3.73-13,3.74-13,3.74s-.36-6,4.48-9.76,13-3.75,13-3.75S558,794.73,553.2,798.46Z"/><path class="cls-16" d="M580.89,799.65c-4,4.22-12.15,5.16-12.15,5.16s-1.61-5.9,2.41-10.12,12.16-5.15,12.16-5.15S584.92,795.43,580.89,799.65Z"/><path class="cls-16" d="M610.21,796.37C607,800.92,599,802.63,599,802.63s-2.64-5.67.62-10.22,11.2-6.26,11.2-6.26S613.47,791.82,610.21,796.37Z"/><path class="cls-16" d="M639.07,788.54c-1.13,5-8,8.53-8,8.53s-5-4.69-3.87-9.73,8-8.54,8-8.54S640.2,783.49,639.07,788.54Z"/><path class="cls-16" d="M668.9,773.05c-.07,5.09-6.12,9.3-6.12,9.3s-5.94-4.05-5.87-9.14,6.13-9.29,6.13-9.29S669,768,668.9,773.05Z"/><path class="cls-16" d="M690.81,758c.82,5-4.47,9.77-4.47,9.77s-6.62-3.44-7.44-8.47,4.47-9.77,4.47-9.77S690,753,690.81,758Z"/><path class="cls-16" d="M556.77,773.66c-4.16-3.5-12.28-4.16-12.28-4.16a8.64,8.64,0,0,0,2.8,8.51c4.17,3.5,12.29,4.15,12.29,4.15A8.64,8.64,0,0,0,556.77,773.66Z"/><path class="cls-16" d="M581.71,773.43c-4.36-3.2-12.54-3.31-12.54-3.31a8.46,8.46,0,0,0,3.24,8.27c4.36,3.19,12.55,3.3,12.55,3.3A8.45,8.45,0,0,0,581.71,773.43Z"/><path class="cls-16" d="M606,770.28c-3.64-3.54-11.68-4.3-11.68-4.3s-2.15,5,1.48,8.5,11.67,4.3,11.67,4.3S609.66,773.82,606,770.28Z"/><path class="cls-16" d="M626.72,760.88c-6.24-.93-13.44,2.11-13.44,2.11a13.77,13.77,0,0,0,9.15,5.47c6.24.93,13.44-2.11,13.44-2.11A13.77,13.77,0,0,0,626.72,760.88Z"/><path class="cls-16" d="M649,748.21c-6.15-.61-13,2.89-13,2.89a13.65,13.65,0,0,0,9.31,5.09c6.16.61,13-2.89,13-2.89A13.69,13.69,0,0,0,649,748.21Z"/><path class="cls-16" d="M666.39,735.08c-5.83-1.2-13,1.72-13,1.72a11.81,11.81,0,0,0,8,6.06c5.83,1.19,13.06-1.72,13.06-1.72A11.84,11.84,0,0,0,666.39,735.08Z"/></g><g id="leaf-07"><path class="cls-18" d="M1107.47,408.21s-80.92,29.55-156.57-56.94"/><path class="cls-16" d="M1085.08,426.18c4.52,3.94,12.49,4.33,12.49,4.33s.63-6-3.89-10-12.49-4.33-12.49-4.33S1080.56,422.23,1085.08,426.18Z"/><path class="cls-16" d="M1058.11,426.1c3.72,4.4,11.58,5.71,11.58,5.71s1.84-5.82-1.88-10.22-11.57-5.7-11.57-5.7S1054.4,421.7,1058.11,426.1Z"/><path class="cls-16" d="M1029.78,421.49c3,4.69,10.59,6.76,10.59,6.76s2.83-5.55-.13-10.24-10.58-6.77-10.58-6.77S1026.83,416.79,1029.78,421.49Z"/><path class="cls-16" d="M1002.11,412.34c.86,5.09,7.33,8.89,7.33,8.89s5.08-4.46,4.23-9.55-7.33-8.88-7.33-8.88S1001.25,407.25,1002.11,412.34Z"/><path class="cls-16" d="M973.85,395.51c-.17,5.09,5.52,9.57,5.52,9.57s6-3.78,6.13-8.86-5.52-9.57-5.52-9.57S974,390.42,973.85,395.51Z"/><path class="cls-16" d="M953.28,379.46c-1,5,3.88,10,3.88,10s6.59-3.12,7.63-8.12-3.88-10-3.88-10S954.31,374.47,953.28,379.46Z"/><path class="cls-16" d="M1082.77,401.24c4.21-3.31,12.13-3.59,12.13-3.59a8.82,8.82,0,0,1-3.12,8.37c-4.21,3.3-12.14,3.59-12.14,3.59A8.84,8.84,0,0,1,1082.77,401.24Z"/><path class="cls-16" d="M1058.55,399.87c4.39-3,12.35-2.73,12.35-2.73a8.61,8.61,0,0,1-3.55,8.11C1063,408.24,1055,408,1055,408A8.61,8.61,0,0,1,1058.55,399.87Z"/><path class="cls-16" d="M1035.08,395.61c3.69-3.36,11.54-3.76,11.54-3.76s1.86,5.06-1.83,8.42-11.55,3.77-11.55,3.77S1031.38,399,1035.08,395.61Z"/><path class="cls-16" d="M1015.41,385.28c6.11-.65,13,2.72,13,2.72a13.36,13.36,0,0,1-9.15,5.05c-6.1.64-13-2.72-13-2.72A13.36,13.36,0,0,1,1015.41,385.28Z"/><path class="cls-16" d="M994.41,371.61c6-.33,12.46,3.48,12.46,3.48a13.27,13.27,0,0,1-9.3,4.66c-6,.32-12.45-3.48-12.45-3.48A13.2,13.2,0,0,1,994.41,371.61Z"/><path class="cls-16" d="M978.08,357.69c5.72-.93,12.6,2.32,12.6,2.32a11.58,11.58,0,0,1-8.11,5.68c-5.72.93-12.6-2.32-12.6-2.32A11.58,11.58,0,0,1,978.08,357.69Z"/></g><g id="leaf-06"><path class="cls-18" d="M950.07,745.46S870.63,778.78,791,695.94"/><path class="cls-16" d="M928.55,764.46c4.71,3.73,12.68,3.74,12.68,3.74s.35-6-4.35-9.76-12.68-3.75-12.68-3.75S923.85,760.73,928.55,764.46Z"/><path class="cls-16" d="M901.61,765.65c3.92,4.22,11.83,5.16,11.83,5.16s1.56-5.9-2.35-10.12-11.83-5.15-11.83-5.15S897.7,761.43,901.61,765.65Z"/><path class="cls-16" d="M873.1,762.37c3.17,4.55,10.89,6.26,10.89,6.26s2.56-5.67-.61-10.22-10.89-6.26-10.89-6.26S869.92,757.82,873.1,762.37Z"/><path class="cls-16" d="M845,754.54c1.09,5,7.74,8.53,7.74,8.53s4.86-4.69,3.77-9.73-7.74-8.54-7.74-8.54S843.93,749.49,845,754.54Z"/><path class="cls-16" d="M816,739.05c.07,5.09,6,9.3,6,9.3s5.77-4.05,5.7-9.14-6-9.29-6-9.29S815.94,734,816,739.05Z"/><path class="cls-16" d="M794.7,724c-.8,5,4.34,9.77,4.34,9.77s6.44-3.44,7.24-8.47-4.34-9.77-4.34-9.77S795.5,719,794.7,724Z"/><path class="cls-16" d="M925.07,739.66c4.06-3.5,12-4.16,12-4.16A8.84,8.84,0,0,1,934.3,744c-4.06,3.5-12,4.15-12,4.15A8.82,8.82,0,0,1,925.07,739.66Z"/><path class="cls-16" d="M900.82,739.43c4.24-3.2,12.2-3.31,12.2-3.31a8.62,8.62,0,0,1-3.16,8.27c-4.24,3.19-12.2,3.3-12.2,3.3A8.6,8.6,0,0,1,900.82,739.43Z"/><path class="cls-16" d="M877.17,736.28c3.53-3.54,11.35-4.3,11.35-4.3s2.1,5-1.43,8.5-11.36,4.3-11.36,4.3S873.64,739.82,877.17,736.28Z"/><path class="cls-16" d="M857,726.88c6.07-.93,13.07,2.11,13.07,2.11a13.35,13.35,0,0,1-8.9,5.47c-6.07.93-13.07-2.11-13.07-2.11A13.35,13.35,0,0,1,857,726.88Z"/><path class="cls-16" d="M835.42,714.21c6-.61,12.6,2.89,12.6,2.89a13.22,13.22,0,0,1-9.06,5.09c-6,.61-12.61-2.89-12.61-2.89A13.26,13.26,0,0,1,835.42,714.21Z"/><path class="cls-16" d="M818.45,701.08c5.67-1.2,12.7,1.72,12.7,1.72a11.61,11.61,0,0,1-7.84,6.06c-5.67,1.19-12.69-1.72-12.69-1.72A11.57,11.57,0,0,1,818.45,701.08Z"/></g><g id="leaf-05"><path class="cls-18" d="M580.35,914s-85.82-7.41-117.85-117.76"/><path class="cls-16" d="M552.46,920.86c2.44,5.49,9.49,9.21,9.49,9.21s3.11-5.19.68-10.67-9.48-9.21-9.48-9.21S550,915.37,552.46,920.86Z"/><path class="cls-16" d="M528.05,909.39c1.51,5.56,8.08,10.07,8.08,10.07s4.13-4.5,2.62-10.05-8.08-10.06-8.08-10.06S526.55,903.84,528.05,909.39Z"/><path class="cls-16" d="M504.33,893.24c.7,5.51,6.73,10.6,6.73,10.6s4.91-3.83,4.21-9.34-6.73-10.6-6.73-10.6S503.63,887.74,504.33,893.24Z"/><path class="cls-16" d="M483.11,873.26c-1.37,5,2.89,11.15,2.89,11.15s6.49-1.89,7.86-6.87S491,866.39,491,866.39,484.49,868.28,483.11,873.26Z"/><path class="cls-16" d="M464.61,846.06c-2.3,4.54,1,11,1,11s7-.9,9.3-5.44-1-11-1-11S466.92,841.53,464.61,846.06Z"/><path class="cls-16" d="M452.75,822.82c-3.05,4.09-.7,10.67-.7,10.67s7.3,0,10.35-4.13.69-10.67.69-10.67S455.8,818.74,452.75,822.82Z"/><path class="cls-16" d="M560.91,897.28c5.21-1.21,12.51,1.88,12.51,1.88a8.8,8.8,0,0,1-6.37,6.26c-5.21,1.21-12.51-1.88-12.51-1.88A8.8,8.8,0,0,1,560.91,897.28Z"/><path class="cls-16" d="M539.54,885.81c5.24-.86,12.34,2.74,12.34,2.74a8.61,8.61,0,0,1-6.64,5.85c-5.24.86-12.34-2.74-12.34-2.74A8.59,8.59,0,0,1,539.54,885.81Z"/><path class="cls-16" d="M520.06,872c4.77-1.49,12.05,1.46,12.05,1.46s-.45,5.37-5.22,6.87-12-1.47-12-1.47S515.29,873.52,520.06,872Z"/><path class="cls-16" d="M506.61,854.35c5.8,2,10.59,7.94,10.59,7.94a13.36,13.36,0,0,1-10.43.71c-5.8-2-10.59-7.94-10.59-7.94A13.35,13.35,0,0,1,506.61,854.35Z"/><path class="cls-16" d="M493.34,833.09c5.59,2.24,9.82,8.41,9.82,8.41a13.24,13.24,0,0,1-10.39.3c-5.58-2.24-9.82-8.42-9.82-8.42A13.22,13.22,0,0,1,493.34,833.09Z"/><path class="cls-16" d="M484.42,813.58c5.58,1.57,10.45,7.42,10.45,7.42a11.61,11.61,0,0,1-9.75,1.72c-5.58-1.57-10.45-7.42-10.45-7.42A11.57,11.57,0,0,1,484.42,813.58Z"/></g><g id="leaf-04"><path class="cls-19" d="M440.07,146.91S518.94,115.23,598,194"/><path class="cls-16" d="M461.44,128.84c-4.67-3.54-12.59-3.56-12.59-3.56a11.61,11.61,0,0,0,4.32,9.29c4.67,3.55,12.59,3.56,12.59,3.56A11.61,11.61,0,0,0,461.44,128.84Z"/><path class="cls-16" d="M488.18,127.71c-3.88-4-11.74-4.9-11.74-4.9s-1.55,5.6,2.34,9.61,11.74,4.91,11.74,4.91S492.07,131.72,488.18,127.71Z"/><path class="cls-16" d="M516.49,130.83c-3.15-4.33-10.81-6-10.81-6s-2.54,5.39.61,9.72,10.81,6,10.81,6S519.65,135.16,516.49,130.83Z"/><path class="cls-16" d="M544.36,138.28c-1.08-4.8-7.68-8.11-7.68-8.11s-4.83,4.45-3.74,9.25,7.68,8.11,7.68,8.11S545.45,143.07,544.36,138.28Z"/><path class="cls-16" d="M573.17,153c-.06-4.84-5.91-8.84-5.91-8.84s-5.74,3.85-5.67,8.69,5.92,8.84,5.92,8.84S573.24,157.84,573.17,153Z"/><path class="cls-16" d="M594.33,167.33c.79-4.79-4.31-9.29-4.31-9.29s-6.4,3.26-7.19,8.05,4.31,9.29,4.31,9.29S593.53,172.12,594.33,167.33Z"/><path class="cls-16" d="M464.89,152.43c-4,3.32-11.86,3.95-11.86,3.95a8.14,8.14,0,0,1,2.7-8.09c4-3.33,11.87-3.95,11.87-3.95A8.13,8.13,0,0,1,464.89,152.43Z"/><path class="cls-16" d="M489,152.65c-4.21,3-12.11,3.14-12.11,3.14a8,8,0,0,1,3.14-7.86c4.21-3,12.11-3.14,12.11-3.14A8,8,0,0,1,489,152.65Z"/><path class="cls-16" d="M512.45,155.64c-3.5,3.36-11.27,4.09-11.27,4.09s-2.08-4.72,1.43-8.08,11.27-4.1,11.27-4.1S516,152.28,512.45,155.64Z"/><path class="cls-16" d="M532.44,164.58c-6,.89-13-2-13-2a13.26,13.26,0,0,1,8.84-5.2c6-.89,13,2,13,2A13.24,13.24,0,0,1,532.44,164.58Z"/><path class="cls-16" d="M553.9,176.62c-5.94.58-12.51-2.74-12.51-2.74a13.17,13.17,0,0,1,9-4.84c5.94-.58,12.51,2.74,12.51,2.74A13.17,13.17,0,0,1,553.9,176.62Z"/><path class="cls-16" d="M570.75,189.11c-5.63,1.14-12.61-1.63-12.61-1.63a11.37,11.37,0,0,1,7.78-5.76c5.63-1.14,12.61,1.63,12.61,1.63A11.37,11.37,0,0,1,570.75,189.11Z"/></g><g id="leaf-03"><path class="cls-19" d="M1030.07,84.91S1108.94,53.23,1188,132"/><path class="cls-16" d="M1051.44,66.84c-4.67-3.54-12.59-3.56-12.59-3.56a11.61,11.61,0,0,0,4.32,9.29c4.67,3.55,12.59,3.56,12.59,3.56A11.61,11.61,0,0,0,1051.44,66.84Z"/><path class="cls-16" d="M1078.18,65.71c-3.88-4-11.74-4.9-11.74-4.9s-1.55,5.6,2.34,9.61,11.74,4.91,11.74,4.91S1082.07,69.72,1078.18,65.71Z"/><path class="cls-16" d="M1106.49,68.83c-3.15-4.33-10.81-5.95-10.81-5.95s-2.54,5.39.61,9.72,10.81,6,10.81,6S1109.65,73.16,1106.49,68.83Z"/><path class="cls-16" d="M1134.36,76.28c-1.08-4.8-7.68-8.11-7.68-8.11s-4.83,4.45-3.74,9.25,7.68,8.11,7.68,8.11S1135.45,81.07,1134.36,76.28Z"/><path class="cls-16" d="M1163.17,91c-.06-4.84-5.91-8.84-5.91-8.84s-5.74,3.85-5.67,8.69,5.92,8.84,5.92,8.84S1163.24,95.84,1163.17,91Z"/><path class="cls-16" d="M1184.33,105.33c.79-4.79-4.31-9.29-4.31-9.29s-6.4,3.26-7.19,8,4.31,9.29,4.31,9.29S1183.53,110.12,1184.33,105.33Z"/><path class="cls-16" d="M1054.89,90.43c-4,3.32-11.86,3.95-11.86,3.95a8.14,8.14,0,0,1,2.7-8.09c4-3.33,11.87-4,11.87-4A8.13,8.13,0,0,1,1054.89,90.43Z"/><path class="cls-16" d="M1079,90.65c-4.21,3-12.11,3.14-12.11,3.14a8,8,0,0,1,3.14-7.86c4.21-3,12.11-3.14,12.11-3.14A8,8,0,0,1,1079,90.65Z"/><path class="cls-16" d="M1102.45,93.64c-3.5,3.36-11.27,4.09-11.27,4.09s-2.08-4.72,1.43-8.08,11.27-4.1,11.27-4.1S1106,90.28,1102.45,93.64Z"/><path class="cls-16" d="M1122.44,102.58c-6,.89-13-2-13-2a13.26,13.26,0,0,1,8.84-5.2c6-.89,13,2,13,2A13.24,13.24,0,0,1,1122.44,102.58Z"/><path class="cls-16" d="M1143.9,114.62c-5.94.58-12.51-2.74-12.51-2.74a13.17,13.17,0,0,1,9-4.84c5.94-.58,12.51,2.74,12.51,2.74A13.17,13.17,0,0,1,1143.9,114.62Z"/><path class="cls-16" d="M1160.75,127.11c-5.63,1.14-12.61-1.63-12.61-1.63a11.37,11.37,0,0,1,7.78-5.76c5.63-1.14,12.61,1.63,12.61,1.63A11.37,11.37,0,0,1,1160.75,127.11Z"/></g><g id="leaf-02"><path class="cls-19" d="M774.07,830.91S852.94,799.23,932,878"/><path class="cls-16" d="M795.44,812.84c-4.67-3.54-12.59-3.56-12.59-3.56a11.61,11.61,0,0,0,4.32,9.29c4.67,3.55,12.59,3.56,12.59,3.56A11.61,11.61,0,0,0,795.44,812.84Z"/><path class="cls-16" d="M822.18,811.71c-3.88-4-11.74-4.9-11.74-4.9s-1.55,5.6,2.34,9.61,11.74,4.91,11.74,4.91S826.07,815.72,822.18,811.71Z"/><path class="cls-16" d="M850.49,814.83c-3.15-4.33-10.81-6-10.81-6s-2.54,5.39.61,9.72,10.81,5.95,10.81,5.95S853.65,819.16,850.49,814.83Z"/><path class="cls-16" d="M878.36,822.28c-1.08-4.8-7.68-8.11-7.68-8.11s-4.83,4.45-3.74,9.25,7.68,8.11,7.68,8.11S879.45,827.07,878.36,822.28Z"/><path class="cls-16" d="M907.17,837c-.06-4.84-5.91-8.84-5.91-8.84s-5.74,3.85-5.67,8.69,5.92,8.84,5.92,8.84S907.24,841.84,907.17,837Z"/><path class="cls-16" d="M928.33,851.33c.79-4.79-4.31-9.29-4.31-9.29s-6.4,3.26-7.19,8.05,4.31,9.29,4.31,9.29S927.53,856.12,928.33,851.33Z"/><path class="cls-16" d="M798.89,836.43c-4,3.32-11.86,4-11.86,4a8.14,8.14,0,0,1,2.7-8.09c4-3.33,11.87-3.95,11.87-3.95A8.13,8.13,0,0,1,798.89,836.43Z"/><path class="cls-16" d="M823,836.65c-4.21,3-12.11,3.14-12.11,3.14a8,8,0,0,1,3.14-7.86c4.21-3,12.11-3.14,12.11-3.14A8,8,0,0,1,823,836.65Z"/><path class="cls-16" d="M846.45,839.64c-3.5,3.36-11.27,4.09-11.27,4.09s-2.08-4.72,1.43-8.08,11.27-4.1,11.27-4.1S850,836.28,846.45,839.64Z"/><path class="cls-16" d="M866.44,848.58c-6,.89-13-2-13-2a13.26,13.26,0,0,1,8.84-5.2c6-.89,13,2,13,2A13.24,13.24,0,0,1,866.44,848.58Z"/><path class="cls-16" d="M887.9,860.62c-5.94.58-12.51-2.74-12.51-2.74a13.17,13.17,0,0,1,9-4.84c5.94-.58,12.51,2.74,12.51,2.74A13.17,13.17,0,0,1,887.9,860.62Z"/><path class="cls-16" d="M904.75,873.11c-5.63,1.14-12.61-1.63-12.61-1.63a11.37,11.37,0,0,1,7.78-5.76c5.63-1.14,12.61,1.63,12.61,1.63A11.37,11.37,0,0,1,904.75,873.11Z"/></g><g id="leaf-01"><path class="cls-19" d="M1502.07,618.91S1580.94,587.23,1660,666"/><path class="cls-16" d="M1523.44,600.84c-4.67-3.54-12.59-3.56-12.59-3.56a11.61,11.61,0,0,0,4.32,9.29c4.67,3.55,12.59,3.56,12.59,3.56A11.61,11.61,0,0,0,1523.44,600.84Z"/><path class="cls-16" d="M1550.18,599.71c-3.88-4-11.74-4.9-11.74-4.9s-1.55,5.6,2.34,9.61,11.74,4.91,11.74,4.91S1554.07,603.72,1550.18,599.71Z"/><path class="cls-16" d="M1578.49,602.83c-3.15-4.33-10.81-6-10.81-6s-2.54,5.39.61,9.72,10.81,5.95,10.81,5.95S1581.65,607.16,1578.49,602.83Z"/><path class="cls-16" d="M1606.36,610.28c-1.08-4.8-7.68-8.11-7.68-8.11s-4.83,4.45-3.74,9.25,7.68,8.11,7.68,8.11S1607.45,615.07,1606.36,610.28Z"/><path class="cls-16" d="M1635.17,625c-.06-4.84-5.91-8.84-5.91-8.84s-5.74,3.85-5.67,8.69,5.92,8.84,5.92,8.84S1635.24,629.84,1635.17,625Z"/><path class="cls-16" d="M1656.33,639.33c.79-4.79-4.31-9.29-4.31-9.29s-6.4,3.26-7.19,8.05,4.31,9.29,4.31,9.29S1655.53,644.12,1656.33,639.33Z"/><path class="cls-16" d="M1526.89,624.43c-4,3.32-11.86,4-11.86,4a8.14,8.14,0,0,1,2.7-8.09c4-3.33,11.87-3.95,11.87-3.95A8.13,8.13,0,0,1,1526.89,624.43Z"/><path class="cls-16" d="M1551,624.65c-4.21,3-12.11,3.14-12.11,3.14a8,8,0,0,1,3.14-7.86c4.21-3,12.11-3.14,12.11-3.14A8,8,0,0,1,1551,624.65Z"/><path class="cls-16" d="M1574.45,627.64c-3.5,3.36-11.27,4.09-11.27,4.09s-2.08-4.72,1.43-8.08,11.27-4.1,11.27-4.1S1578,624.28,1574.45,627.64Z"/><path class="cls-16" d="M1594.44,636.58c-6,.89-13-2-13-2a13.26,13.26,0,0,1,8.84-5.2c6-.89,13,2,13,2A13.24,13.24,0,0,1,1594.44,636.58Z"/><path class="cls-16" d="M1615.9,648.62c-5.94.58-12.51-2.74-12.51-2.74a13.17,13.17,0,0,1,9-4.84c5.94-.58,12.51,2.74,12.51,2.74A13.17,13.17,0,0,1,1615.9,648.62Z"/><path class="cls-16" d="M1632.75,661.11c-5.63,1.14-12.61-1.63-12.61-1.63a11.37,11.37,0,0,1,7.78-5.76c5.63-1.14,12.61,1.63,12.61,1.63A11.37,11.37,0,0,1,1632.75,661.11Z"/></g><g id="banda-03"><path class="cls-20" d="M495.26,955.63A331.34,331.34,0,0,1,450,961a91.92,91.92,0,0,1-43-9A101.32,101.32,0,0,1,449,940.47C473,939.4,495.26,955.63,495.26,955.63Z"/><path class="cls-20" d="M492.74,986.24s-31.61,8.14-52.67-3.42S407,952,407,952a123.67,123.67,0,0,1,42.52,13.64C470.57,977.17,492.74,986.24,492.74,986.24Z"/><path class="cls-20" d="M471.25,1019.4s-32.1-5.95-46.33-25.31S407,952,407,952s19.51,11.14,33.74,30.5S471.25,1019.4,471.25,1019.4Z"/></g><g id="banda-02"><path class="cls-20" d="M426.54,174.78a331,331,0,0,1-22.7,39.57A92,92,0,0,1,371,243.45a101.37,101.37,0,0,1,15.83-40.61C400.27,182.94,426.54,174.78,426.54,174.78Z"/><path class="cls-20" d="M449.62,195.05s-12.32,30.23-34.16,40.24S371,243.45,371,243.45a123.59,123.59,0,0,1,36.3-26C429.12,207.44,449.62,195.05,449.62,195.05Z"/><path class="cls-20" d="M463.42,232.07s-23.91,22.23-47.94,22.11S371,243.45,371,243.45s20.58-9,44.6-8.89S463.42,232.07,463.42,232.07Z"/></g><g id="banda-01"><path class="cls-20" d="M1613.91,536.22a330.66,330.66,0,0,1,9.47-44.63,92,92,0,0,1,22.36-37.77,101.24,101.24,0,0,1-2.62,43.51C1636.41,520.4,1613.91,536.22,1613.91,536.22Z"/><path class="cls-20" d="M1585.73,524s2.46-32.55,20.17-48.78,39.84-21.4,39.84-21.4a123.83,123.83,0,0,1-26.58,35.87C1601.44,505.92,1585.73,524,1585.73,524Z"/><path class="cls-20" d="M1561.24,493s16-28.49,38.85-35.74,45.65-3.43,45.65-3.43S1628.92,468.71,1606,476,1561.24,493,1561.24,493Z"/></g><g id="indigenous-08"><path class="cls-21" d="M1621.08,186.07s2.91,14.54,16.67,19.7c0,0-17.86,10.91-16.67,17.5s-1.25-11.1-15.51-18.6C1605.57,204.67,1618.17,199.06,1621.08,186.07Z"/><path class="cls-22" d="M1621.07,193.39s1.71,8.55,9.8,11.58c0,0-10.5,6.42-9.8,10.29s-.73-6.52-9.12-10.93C1612,204.33,1619.36,201,1621.07,193.39Z"/></g><g id="indigenous-07"><path class="cls-21" d="M1007.55,798.79s3.11,15.54,17.82,21.06c0,0-19.09,11.66-17.82,18.7s-1.33-11.87-16.58-19.88C991,818.67,1004.45,812.67,1007.55,798.79Z"/><path class="cls-22" d="M1007.54,806.61s1.83,9.14,10.48,12.38c0,0-11.23,6.86-10.48,11s-.78-7-9.75-11.69C997.79,818.3,1005.71,814.77,1007.54,806.61Z"/></g><g id="indigenous-06"><path class="cls-21" d="M943.54,65s3.17,15.86,18.18,21.49c0,0-19.47,11.89-18.18,19.08s-1.36-12.11-16.92-20.29C926.62,85.23,940.37,79.11,943.54,65Z"/><path class="cls-22" d="M943.53,72.94s1.86,9.32,10.69,12.63c0,0-11.45,7-10.69,11.21s-.8-7.11-9.95-11.92C933.58,84.86,941.66,81.26,943.53,72.94Z"/></g><g id="indigenous-05"><path class="cls-21" d="M610.6,262.63s2.87,14.36,16.47,19.46c0,0-17.64,10.78-16.47,17.29s-1.23-11-15.33-18.38C595.27,281,607.73,275.46,610.6,262.63Z"/><path class="cls-22" d="M610.59,269.86s1.69,8.45,9.68,11.44c0,0-10.37,6.34-9.68,10.17s-.73-6.45-9-10.81C601.58,280.66,608.9,277.4,610.59,269.86Z"/></g><g id="indigenous-04"><path class="cls-21" d="M729.11,664.07s2.78,13.91,15.95,18.85c0,0-17.09,10.43-15.95,16.74s-1.2-10.62-14.84-17.8C714.27,681.86,726.33,676.49,729.11,664.07Z"/><path class="cls-22" d="M729.1,671.07s1.63,8.18,9.37,11.08c0,0-10,6.14-9.37,9.85s-.71-6.25-8.73-10.47C720.37,681.53,727.46,678.38,729.1,671.07Z"/></g><g id="indigenous-03"><path class="cls-21" d="M1236.05,299.7s3.07,15.37,17.61,20.82c0,0-18.87,11.53-17.61,18.49s-1.32-11.73-16.39-19.66C1219.66,319.35,1233,313.42,1236.05,299.7Z"/><path class="cls-22" d="M1236,307.44s1.8,9,10.35,12.24c0,0-11.09,6.77-10.35,10.87s-.78-6.9-9.64-11.56C1226.4,319,1234.23,315.5,1236,307.44Z"/></g><g id="indigenous-02"><path class="cls-21" d="M146.69,924.63s2.43,12.15,13.94,16.47c0,0-14.93,9.12-13.94,14.63s-1.05-9.28-13-15.55C133.72,940.18,144.26,935.48,146.69,924.63Z"/><path class="cls-22" d="M146.68,930.75s1.43,7.14,8.19,9.68c0,0-8.78,5.36-8.19,8.6s-.62-5.45-7.63-9.14C139.05,939.89,145.25,937.13,146.68,930.75Z"/></g><g id="indigenous-01"><path class="cls-21" d="M1216.15,865.07s2.78,13.91,15.95,18.85c0,0-17.09,10.43-15.95,16.74s-1.2-10.62-14.84-17.8C1201.31,882.86,1213.37,877.49,1216.15,865.07Z"/><path class="cls-22" d="M1216.14,872.07s1.63,8.18,9.37,11.08c0,0-10,6.14-9.37,9.85s-.71-6.25-8.73-10.47C1207.41,882.53,1214.5,879.38,1216.14,872.07Z"/></g><g id="son-jarocho-07"><path class="cls-13" d="M1774.11,485c-3.09-10.34-16.82-15-16.82-15s-8.74,12.05-5.66,22.39,10.62,17.08,16.82,15.05S1777.19,495.38,1774.11,485Z"/><path class="cls-13" d="M1752.76,491.11c-10.09-2.37-20.85,7.74-20.85,7.74s5.6,13.95,15.69,16.32,19.43-1.09,20.85-7.73S1762.85,493.49,1752.76,491.11Z"/><path class="cls-13" d="M1747.11,513.51c-7,8-4,22.78-4,22.78s14.34,1.89,21.34-6.07,8.82-18.17,4-22.78S1754.12,505.54,1747.11,513.51Z"/><path class="cls-13" d="M1762.8,529.84c3.09,10.34,16.82,15,16.82,15s8.74-12.06,5.65-22.4-10.61-17.07-16.82-15S1759.72,519.5,1762.8,529.84Z"/><path class="cls-13" d="M1784.15,523.76C1794.24,526.14,1805,516,1805,516s-5.6-13.95-15.69-16.32-19.43,1.09-20.86,7.73S1774.06,521.39,1784.15,523.76Z"/><path class="cls-13" d="M1789.8,501.37c7-8,4-22.78,4-22.78s-14.34-1.9-21.34,6.07-8.82,18.17-4,22.78S1782.79,509.33,1789.8,501.37Z"/><path class="cls-23" d="M1772.16,491.52c-2.11-7.09-11.53-10.31-11.53-10.31s-6,8.26-3.88,15.35,7.28,11.71,11.54,10.32S1774.28,498.61,1772.16,491.52Z"/><path class="cls-23" d="M1757.53,495.69c-6.92-1.63-14.3,5.3-14.3,5.3s3.84,9.56,10.76,11.19,13.32-.75,14.3-5.3S1764.45,497.31,1757.53,495.69Z"/><path class="cls-23" d="M1753.65,511c-4.8,5.47-2.76,15.62-2.76,15.62s9.83,1.3,14.63-4.16,6-12.46,2.77-15.62S1758.46,505.58,1753.65,511Z"/><path class="cls-23" d="M1764.41,522.24c2.12,7.09,11.54,10.31,11.54,10.31s6-8.26,3.87-15.35-7.28-11.71-11.53-10.32S1762.3,515.15,1764.41,522.24Z"/><path class="cls-23" d="M1779.05,518.07c6.92,1.63,14.3-5.3,14.3-5.3s-3.84-9.57-10.76-11.19-13.33.74-14.3,5.3S1772.13,516.45,1779.05,518.07Z"/><path class="cls-23" d="M1782.93,502.72c4.8-5.47,2.76-15.62,2.76-15.62s-9.83-1.3-14.64,4.16-6,12.46-2.76,15.62S1778.12,508.18,1782.93,502.72Z"/><ellipse class="cls-14" cx="1767.93" cy="507.8" rx="6.66" ry="6.97"/></g><g id="son-jarocho-06"><path class="cls-13" d="M515.11,252c-3.09-10.34-16.82-15-16.82-15s-8.74,12.05-5.66,22.39,10.62,17.08,16.82,15.05S518.19,262.38,515.11,252Z"/><path class="cls-13" d="M493.76,258.11c-10.09-2.37-20.85,7.74-20.85,7.74s5.6,13.95,15.69,16.32,19.43-1.09,20.85-7.73S503.85,260.49,493.76,258.11Z"/><path class="cls-13" d="M488.11,280.51c-7,8-4,22.78-4,22.78s14.34,1.89,21.34-6.07,8.82-18.17,4-22.78S495.12,272.54,488.11,280.51Z"/><path class="cls-13" d="M503.8,296.84c3.09,10.34,16.82,15,16.82,15s8.74-12.06,5.65-22.4-10.61-17.07-16.82-15S500.72,286.5,503.8,296.84Z"/><path class="cls-13" d="M525.15,290.76C535.24,293.14,546,283,546,283s-5.6-13.95-15.69-16.32-19.43,1.09-20.86,7.73S515.06,288.39,525.15,290.76Z"/><path class="cls-13" d="M530.8,268.37c7-8,4-22.78,4-22.78s-14.34-1.9-21.34,6.07-8.82,18.17-4,22.78S523.79,276.33,530.8,268.37Z"/><path class="cls-23" d="M513.16,258.52c-2.11-7.09-11.53-10.31-11.53-10.31s-6,8.26-3.88,15.35,7.28,11.71,11.54,10.32S515.28,265.61,513.16,258.52Z"/><path class="cls-23" d="M498.53,262.69c-6.92-1.63-14.3,5.3-14.3,5.3s3.84,9.56,10.76,11.19,13.32-.75,14.3-5.3S505.45,264.31,498.53,262.69Z"/><path class="cls-23" d="M494.65,278c-4.8,5.47-2.76,15.62-2.76,15.62s9.83,1.3,14.63-4.16,6.05-12.46,2.77-15.62S499.46,272.58,494.65,278Z"/><path class="cls-23" d="M505.41,289.24c2.12,7.09,11.54,10.31,11.54,10.31s6-8.26,3.87-15.35-7.28-11.71-11.53-10.32S503.3,282.15,505.41,289.24Z"/><path class="cls-23" d="M520.05,285.07c6.92,1.63,14.3-5.3,14.3-5.3s-3.84-9.57-10.76-11.19-13.33.74-14.3,5.3S513.13,283.45,520.05,285.07Z"/><path class="cls-23" d="M523.93,269.72c4.8-5.47,2.76-15.62,2.76-15.62s-9.83-1.3-14.64,4.16-6,12.46-2.76,15.62S519.12,275.18,523.93,269.72Z"/><ellipse class="cls-14" cx="508.93" cy="274.8" rx="6.66" ry="6.97"/></g><g id="son-jarocho-05"><path class="cls-13" d="M794.11,78C791,67.7,777.29,63,777.29,63s-8.74,12-5.66,22.39,10.62,17.08,16.82,15S797.19,88.38,794.11,78Z"/><path class="cls-13" d="M772.76,84.11c-10.09-2.37-20.85,7.74-20.85,7.74s5.6,14,15.69,16.32,19.43-1.09,20.85-7.73S782.85,86.49,772.76,84.11Z"/><path class="cls-13" d="M767.11,106.51c-7,8-4,22.78-4,22.78s14.34,1.89,21.34-6.07,8.82-18.17,4-22.78S774.12,98.54,767.11,106.51Z"/><path class="cls-13" d="M782.8,122.84c3.09,10.34,16.82,15,16.82,15s8.74-12.06,5.65-22.4-10.61-17.07-16.82-15S779.72,112.5,782.8,122.84Z"/><path class="cls-13" d="M804.15,116.76C814.24,119.14,825,109,825,109s-5.6-14-15.69-16.32-19.43,1.09-20.86,7.73S794.06,114.39,804.15,116.76Z"/><path class="cls-13" d="M809.8,94.37c7-8,4-22.78,4-22.78s-14.34-1.9-21.34,6.07-8.82,18.17-4,22.78S802.79,102.33,809.8,94.37Z"/><path class="cls-23" d="M792.16,84.52c-2.11-7.09-11.53-10.31-11.53-10.31s-6,8.26-3.88,15.35,7.28,11.71,11.54,10.32S794.28,91.61,792.16,84.52Z"/><path class="cls-23" d="M777.53,88.69c-6.92-1.63-14.3,5.3-14.3,5.3s3.84,9.56,10.76,11.19,13.32-.75,14.3-5.3S784.45,90.31,777.53,88.69Z"/><path class="cls-23" d="M773.65,104c-4.8,5.47-2.76,15.62-2.76,15.62s9.83,1.3,14.63-4.16,6.05-12.46,2.77-15.62S778.46,98.58,773.65,104Z"/><path class="cls-23" d="M784.41,115.24c2.12,7.09,11.54,10.31,11.54,10.31s6-8.26,3.87-15.35-7.28-11.71-11.53-10.32S782.3,108.15,784.41,115.24Z"/><path class="cls-23" d="M799.05,111.07c6.92,1.63,14.3-5.3,14.3-5.3s-3.84-9.57-10.76-11.19-13.33.74-14.3,5.3S792.13,109.45,799.05,111.07Z"/><path class="cls-23" d="M802.93,95.72c4.8-5.47,2.76-15.62,2.76-15.62s-9.83-1.3-14.64,4.16-6,12.46-2.76,15.62S798.12,101.18,802.93,95.72Z"/><ellipse class="cls-14" cx="787.93" cy="100.8" rx="6.66" ry="6.97"/></g><g id="son-jarocho-04"><path class="cls-13" d="M150.05,773.66c-3-10.08-16.4-14.66-16.4-14.66s-8.52,11.75-5.51,21.83,10.35,16.65,16.4,14.67S153.05,783.74,150.05,773.66Z"/><path class="cls-13" d="M129.24,779.58c-9.84-2.31-20.33,7.54-20.33,7.54s5.46,13.6,15.3,15.91,18.94-1.06,20.33-7.53S139.07,781.9,129.24,779.58Z"/><path class="cls-13" d="M123.73,801.42c-6.84,7.76-3.93,22.2-3.93,22.2s14,1.85,20.81-5.92,8.59-17.71,3.93-22.2S130.56,793.65,123.73,801.42Z"/><path class="cls-13" d="M139,817.33c3,10.08,16.4,14.67,16.4,14.67s8.52-11.76,5.51-21.84-10.35-16.64-16.39-14.66S136,807.25,139,817.33Z"/><path class="cls-13" d="M159.83,811.41c9.84,2.31,20.33-7.54,20.33-7.54s-5.46-13.6-15.3-15.91-18.94,1.06-20.32,7.54S150,809.1,159.83,811.41Z"/><path class="cls-13" d="M165.34,789.58c6.84-7.77,3.93-22.21,3.93-22.21s-14-1.84-20.8,5.92-8.6,17.71-3.93,22.21S158.51,797.34,165.34,789.58Z"/><path class="cls-23" d="M148.15,780c-2.06-6.91-11.24-10.06-11.24-10.06s-5.84,8.06-3.78,15,7.09,11.42,11.24,10.06S150.21,786.89,148.15,780Z"/><path class="cls-23" d="M133.88,784c-6.74-1.59-13.94,5.17-13.94,5.17s3.75,9.32,10.49,10.91,13-.73,13.94-5.17S140.63,785.63,133.88,784Z"/><path class="cls-23" d="M130.1,799c-4.68,5.32-2.69,15.23-2.69,15.23s9.58,1.26,14.27-4.06S147.57,798,144.37,795,134.79,793.68,130.1,799Z"/><path class="cls-23" d="M140.59,809.92c2.07,6.91,11.25,10.06,11.25,10.06s5.84-8.06,3.78-15-7.1-11.42-11.25-10.06S138.53,803,140.59,809.92Z"/><path class="cls-23" d="M154.86,805.86c6.75,1.59,13.94-5.17,13.94-5.17s-3.74-9.32-10.49-10.91-13,.73-13.94,5.17S148.12,804.28,154.86,805.86Z"/><path class="cls-23" d="M158.64,790.89c4.69-5.32,2.7-15.22,2.7-15.22s-9.59-1.27-14.27,4.06-5.89,12.14-2.7,15.22S154,796.22,158.64,790.89Z"/><ellipse class="cls-14" cx="144.03" cy="795.85" rx="6.49" ry="6.8"/></g><g id="son-jarocho-03"><path class="cls-13" d="M1310.81,182.11c-3.46-11.61-18.89-16.9-18.89-16.9s-9.81,13.55-6.35,25.16,11.92,19.18,18.89,16.9S1314.27,193.72,1310.81,182.11Z"/><path class="cls-13" d="M1286.83,188.93c-11.33-2.66-23.42,8.69-23.42,8.69s6.3,15.67,17.63,18.33,21.82-1.22,23.42-8.68S1298.17,191.6,1286.83,188.93Z"/><path class="cls-13" d="M1280.48,214.09c-7.87,8.94-4.52,25.58-4.52,25.58s16.1,2.13,24-6.82,9.9-20.4,4.53-25.58S1288.36,205.14,1280.48,214.09Z"/><path class="cls-13" d="M1298.11,232.42c3.47,11.61,18.89,16.9,18.89,16.9s9.81-13.54,6.35-25.15-11.92-19.18-18.89-16.9S1294.65,220.81,1298.11,232.42Z"/><path class="cls-13" d="M1322.09,225.6c11.33,2.67,23.42-8.68,23.42-8.68s-6.3-15.67-17.63-18.34-21.82,1.23-23.42,8.69S1310.75,222.94,1322.09,225.6Z"/><path class="cls-13" d="M1328.44,200.45c7.87-8.95,4.52-25.58,4.52-25.58s-16.1-2.13-24,6.81-9.9,20.41-4.53,25.59S1320.56,209.4,1328.44,200.45Z"/><path class="cls-23" d="M1308.63,189.39c-2.38-8-13-11.59-13-11.59s-6.73,9.29-4.35,17.25,8.17,13.15,13,11.59S1311,197.35,1308.63,189.39Z"/><path class="cls-23" d="M1292.19,194.07c-7.78-1.83-16.06,6-16.06,6s4.31,10.75,12.08,12.57,15-.84,16.06-6S1300,195.89,1292.19,194.07Z"/><path class="cls-23" d="M1287.83,211.31c-5.39,6.14-3.1,17.55-3.1,17.55s11,1.46,16.44-4.68,6.79-14,3.1-17.54S1293.23,205.18,1287.83,211.31Z"/><path class="cls-23" d="M1299.92,223.89c2.37,8,12.95,11.58,12.95,11.58s6.73-9.28,4.36-17.24-8.18-13.15-13-11.59S1297.54,215.92,1299.92,223.89Z"/><path class="cls-23" d="M1316.36,219.21c7.77,1.83,16.06-6,16.06-6s-4.32-10.75-12.09-12.58-15,.84-16.06,6S1308.59,217.38,1316.36,219.21Z"/><path class="cls-23" d="M1320.71,202c5.4-6.13,3.11-17.54,3.11-17.54s-11-1.46-16.44,4.68-6.79,14-3.11,17.54S1315.32,208.1,1320.71,202Z"/><ellipse class="cls-14" cx="1303.87" cy="207.68" rx="7.48" ry="7.83"/></g><g id="son-jarocho-02"><path class="cls-13" d="M1778.81,876.11c-3.46-11.61-18.89-16.9-18.89-16.9s-9.81,13.55-6.35,25.16,11.92,19.18,18.89,16.9S1782.27,887.72,1778.81,876.11Z"/><path class="cls-13" d="M1754.83,882.93c-11.33-2.66-23.42,8.69-23.42,8.69s6.3,15.67,17.63,18.33,21.82-1.22,23.42-8.68S1766.17,885.6,1754.83,882.93Z"/><path class="cls-13" d="M1748.48,908.09c-7.87,8.94-4.52,25.58-4.52,25.58s16.1,2.13,24-6.82,9.9-20.4,4.53-25.58S1756.36,899.14,1748.48,908.09Z"/><path class="cls-13" d="M1766.11,926.42c3.47,11.61,18.89,16.9,18.89,16.9s9.81-13.54,6.35-25.15-11.92-19.18-18.89-16.9S1762.65,914.81,1766.11,926.42Z"/><path class="cls-13" d="M1790.09,919.6c11.33,2.67,23.42-8.68,23.42-8.68s-6.3-15.67-17.63-18.34-21.82,1.23-23.42,8.69S1778.75,916.94,1790.09,919.6Z"/><path class="cls-13" d="M1796.44,894.45c7.87-9,4.52-25.58,4.52-25.58s-16.1-2.13-24,6.81-9.9,20.41-4.53,25.59S1788.56,903.4,1796.44,894.45Z"/><path class="cls-23" d="M1776.63,883.39c-2.38-8-13-11.59-13-11.59s-6.73,9.29-4.35,17.25,8.17,13.15,13,11.59S1779,891.35,1776.63,883.39Z"/><path class="cls-23" d="M1760.19,888.07c-7.78-1.83-16.06,5.95-16.06,5.95s4.31,10.75,12.08,12.57,15-.84,16.06-6S1768,889.89,1760.19,888.07Z"/><path class="cls-23" d="M1755.83,905.31c-5.39,6.14-3.1,17.55-3.1,17.55s11,1.46,16.44-4.68,6.79-14,3.1-17.54S1761.23,899.18,1755.83,905.31Z"/><path class="cls-23" d="M1767.92,917.89c2.37,8,12.95,11.58,12.95,11.58s6.73-9.28,4.36-17.24-8.18-13.15-13-11.59S1765.54,909.92,1767.92,917.89Z"/><path class="cls-23" d="M1784.36,913.21c7.77,1.83,16.06-6,16.06-6s-4.32-10.75-12.09-12.58-15,.84-16.06,6S1776.59,911.38,1784.36,913.21Z"/><path class="cls-23" d="M1788.71,896c5.4-6.13,3.11-17.54,3.11-17.54s-11-1.46-16.44,4.68-6.79,14-3.11,17.54S1783.32,902.1,1788.71,896Z"/><ellipse class="cls-14" cx="1771.87" cy="901.68" rx="7.48" ry="7.83"/></g><g id="son-jarocho-01"><path class="cls-13" d="M756.35,920.84c-3.46-11.61-18.89-16.9-18.89-16.9s-9.81,13.55-6.35,25.16S743,948.28,750,946,759.81,932.45,756.35,920.84Z"/><path class="cls-13" d="M732.37,927.66C721,925,709,936.35,709,936.35s6.3,15.67,17.63,18.33S748.4,953.46,750,946,743.71,930.33,732.37,927.66Z"/><path class="cls-13" d="M726,952.82c-7.88,8.94-4.53,25.58-4.53,25.58s16.1,2.13,24-6.82,9.9-20.4,4.53-25.58S733.9,943.87,726,952.82Z"/><path class="cls-13" d="M743.65,971.15c3.47,11.61,18.89,16.9,18.89,16.9s9.82-13.54,6.35-25.16S757,943.72,750,946,740.19,959.54,743.65,971.15Z"/><path class="cls-13" d="M767.63,964.33c11.33,2.67,23.42-8.68,23.42-8.68s-6.3-15.67-17.63-18.34S751.6,938.54,750,946,756.29,961.67,767.63,964.33Z"/><path class="cls-13" d="M774,939.18c7.87-8.95,4.52-25.59,4.52-25.59s-16.1-2.12-24,6.82S744.63,940.82,750,946,766.11,948.13,774,939.18Z"/><path class="cls-23" d="M754.17,928.12c-2.38-8-13-11.59-13-11.59s-6.72,9.29-4.35,17.25,8.17,13.15,12.95,11.59S756.54,936.08,754.17,928.12Z"/><path class="cls-23" d="M737.73,932.8c-7.77-1.83-16.06,6-16.06,6s4.31,10.75,12.09,12.57,15-.84,16-6S745.5,934.62,737.73,932.8Z"/><path class="cls-23" d="M733.37,950c-5.39,6.14-3.1,17.55-3.1,17.55s11,1.45,16.44-4.68,6.79-14,3.1-17.54S738.77,943.91,733.37,950Z"/><path class="cls-23" d="M745.46,962.62c2.38,8,12.95,11.58,12.95,11.58s6.73-9.28,4.36-17.25-8.18-13.15-13-11.58S743.09,954.65,745.46,962.62Z"/><path class="cls-23" d="M761.9,957.94c7.77,1.83,16.06-6,16.06-6s-4.32-10.75-12.09-12.58-15,.84-16.06,6S754.13,956.11,761.9,957.94Z"/><path class="cls-23" d="M766.25,940.69c5.4-6.13,3.11-17.54,3.11-17.54s-11-1.46-16.44,4.68-6.79,14-3.11,17.54S760.86,946.83,766.25,940.69Z"/><ellipse class="cls-14" cx="749.41" cy="946.4" rx="7.48" ry="7.83"/></g></g></g></svg>