<svg xmlns="http://www.w3.org/2000/svg" viewBox="0 0 73.09 74.88">
<defs><style>.cls-1{fill:#f15a24;}.cls-2{fill:#fff;opacity:0.08;}.cls-3{fill:#f7931e;}</style>
</defs>
<g id="Layer_2" data-name="Layer 2"><g id="Layer_1-2" data-name="Layer 1">
<g id="son-jarocho-07">
<path class="cls-1" d="M42.2,15.05C39.11,4.71,25.38,0,25.38,0s-8.74,12.06-5.65,22.4,10.61,17.07,16.82,15S45.28,25.38,42.2,15.05Z"/>
<path class="cls-1" d="M20.85,21.12C10.76,18.74,0,28.85,0,28.85S5.6,42.8,15.69,45.17s19.43-1.08,20.86-7.73S30.94,23.49,20.85,21.12Z"/>
<path class="cls-1" d="M15.2,43.51c-7,8-4,22.78-4,22.78s14.34,1.9,21.34-6.07,8.82-18.16,4-22.78S22.21,35.55,15.2,43.51Z"/>
<path class="cls-1" d="M30.89,59.84c3.09,10.34,16.82,15,16.82,15s8.74-12,5.66-22.39S42.75,35.41,36.55,37.44,27.81,49.5,30.89,59.84Z"/>
<path class="cls-1" d="M52.24,53.77C62.33,56.14,73.09,46,73.09,46s-5.6-14-15.69-16.32S38,30.8,36.55,37.44,42.15,51.39,52.24,53.77Z"/>
<path class="cls-1" d="M57.89,31.37c7-8,4-22.78,4-22.78S47.59,6.7,40.58,14.66s-8.82,18.17-4,22.78S50.88,39.34,57.89,31.37Z"/>
<path class="cls-2" d="M40.26,21.53c-2.12-7.09-11.54-10.32-11.54-10.32s-6,8.27-3.87,15.36,7.27,11.7,11.53,10.31S42.37,28.62,40.26,21.53Z"/>
<path class="cls-2" d="M25.62,25.69C18.7,24.06,11.32,31,11.32,31s3.84,9.57,10.76,11.19,13.32-.74,14.3-5.3S32.54,27.32,25.62,25.69Z"/>
<path class="cls-2" d="M21.74,41.05C16.94,46.51,19,56.66,19,56.66S28.81,58,33.61,52.5s6-12.45,2.77-15.62S26.55,35.58,21.74,41.05Z"/>
<path class="cls-2" d="M32.5,52.24C34.62,59.33,44,62.56,44,62.56s6-8.27,3.87-15.36S40.63,35.49,36.38,36.88,30.39,45.15,32.5,52.24Z"/>
<path class="cls-2" d="M47.14,48.08c6.92,1.62,14.3-5.31,14.3-5.31S57.6,33.21,50.68,31.58s-13.32.75-14.3,5.3S40.22,46.45,47.14,48.08Z"/>
<path class="cls-2" d="M51,32.72c4.8-5.46,2.76-15.62,2.76-15.62S44,15.8,39.14,21.26s-6,12.46-2.76,15.62S46.21,38.18,51,32.72Z"/>
<ellipse class="cls-3" cx="36.02" cy="37.81" rx="6.66" ry="6.97"/></g></g></g></svg>