<svg xmlns="http://www.w3.org/2000/svg" viewBox="0 0 116.42 76.52"><defs><style>.cls-1{fill:#b3b3b3;}.cls-1,.cls-2,.cls-3,.cls-4{stroke:#fff;stroke-miterlimit:10;stroke-width:0.15px;}.cls-2{fill:#29abe2;}.cls-3{fill:#ed1c24;}.cls-4{fill:#8cc63f;}</style></defs><g id="Layer_2" data-name="Layer 2"><g id="Norteno"><g id="Mexico"><path class="cls-1" d="M54.94,47.61l-.36-.5.59-1,.21-.59,1.07-.61.29-.32.54.57.4.18.34.76.3.67-.66.31-.38.54-.63.24L56,47.51l-.71-.07Z"/><path class="cls-2" d="M11.46,21.41h0l0-.05v0h0v0Zm-.08-.08h0Zm0,0h0Zm0-.06,0,.06h0v0h-.06v0h0v-.08h0Zm.24-.35h0Zm-.11.31H11l.49-.59ZM11.83,20v0h0Zm-4.59-.36v0h0Zm6.66-3.31h0Zm0,0h0ZM8.92,1.1h-.4L8.07,2l.21.38L8.1,3.52,9,4.14,9.07,5l-.31.57-.1,1.7.18.52.46.3.07,1.36.27.67-.16,1.23.52,1,.47.34,0,.46.44.07,1.11.85,1.37,1.3-.09.27.46.72,0,.71.28-.23.38.63.59,0,.32,1.19.4.3.62.05-.09.72.23.58.17,1.15-.23-.31-4.84,0v-.33h0l.12-.54.05-.3h0v0l-.28-.13.3-.95-.42-.42-.14-.39-.58-.31-.27-.66-.71-.44,0-.35-.38-.18-.9-1.11-.95-.32-.22-.37-1-.46-.74-.59v-.61l-.45-.33.11-.57L5,10.76l-.83-.58.09-.85-.11-.55L3.38,8l-.29,0,.12-.81L2.48,6l-.55-.48L1.82,4.6,2,4l-.53-.25L1,3.18.86,2.31l-.4-.2L.1.93,9.29.09Z"/><path class="cls-1" d="M21.85,36.65h0l0,0v0h0Zm-2.13-.84h.45l.64.6-.16.14Zm-.17-1.17h0ZM19,34.25h0Zm.09-.07v0h0Zm.09,0,.06-.09v0h0l0,0v0Zm.16-.43h0l0,0Zm-.2-.44v0l0,0Zm0,0h0Zm0-.09h0Zm.25-.52h0Zm0,0,0,.06h-.06l.06-.09ZM19.07,34H19v0h0l.07.21v0l-.08.06h0v0h0l.17.64-.62-.22.23-.45.47-1.55Zm.25-1.42Zm0,0h0v0h0l-.05,0,0-.11h0Zm0,0h0Zm0-.2h.05v0h0v0h0l0,0v-.1Zm.05,0h0Zm0-.24h0Zm0-.55,0,0h0v.07h0v.05h-.06Zm.05,0v0h0Zm-.05-.17h0v.07h0v-.09Zm0-.13h0v.12h0v-.13Zm0-.1h0l0,.05v0h-.05v-.1Zm0,0h0l0,0h0v0Zm0,0v0h0v0h0v0h0v0Zm0,0v0h0v0h0v0h0v0h0V31h0v0Zm0,0h0v0Zm-.06,0v0h0v.07Zm-2.65-3.19v0h0Zm-.06,0h0Zm0,0h0Zm-.49-.42h0ZM16,27.26h0v0Zm-.47-.38Zm-.08-.08Zm0,0,.07.11-.07-.11Zm-2-.33h0Zm0,0v0h0Zm-.09-.07h0ZM15,26.27l.11.06h0l-.05,0h0Zm0,0h0l0,0Zm-.95-.21h0Zm.08,0h0v0h-.06v0h.06Zm0,0,0,0h-.07v0h0Zm-3.59-4.32v0Zm.14,0h0Zm1.51-.06v0Zm0,0v0Zm-4.88-.22h0Zm0,0h0Zm4-.17,0-.06h0v0h0Zm.07-.1h0Zm0,0h.22l4.84,0,.23.31.25.53.47.48.61.23.34.31.45,1.35,1,.47-.2.6.51.53-.08.36-.07.13.67.77L20.9,27l-.5-.53v-.77l1,.85v.59l.44.19-.06.45.27.31v.37l.32.79-.16.43.18.65.33.38.41.84.37,0,.43,1.54.57.59.37.91-.26.52,0,.59.21.74.48.62.48.14.07.28.41-.28L26,36.69l.14-.16,1.12.8.08.48.62-.06-.05.57.53.52v.57l.87.46.16.4-.11,1.1-.45.47-.41.11-.49.53-.61.23L26.91,42l-.26-1.16-.54-.91L25,39.27,23.79,38l-.54-.45-1.33-.81h0v0l0,0h0l-.68-.48-.11-.44-.61-.15h0l-.62-.83-.27-.1h0l-.13.17-.1-.28,0-.74h0l0,0-.08.33v0h0l0,0v0h0v.13h0L19,34h0v0h.08l0-.58v-.09h0l.15-.46h.06l.05,0h0l0,0,0-.38v0h0v0h0l.05-.26h0v-.38h.06v-.05h0v-.1l0,0,0,0h0v-.07h0v-.19h0v0l0-.05h0l0,0,0,0V31h0L19,29.62l-.45-.35-.16-.48L18,28.46l-.18.14-1.11-.79h0v0h-.06v0h0l-.56-.48h.06l-.09-.05h0v0l-.46-.38v0h0v0l-.28-.65h0l0,0h0l0,0-.21.14h0l.3-.63-.12-.37-.38,1-.53-.28-.24,0h0v0H14l-.35.47-.27-.19,0,.06h0l0,0v0l0,0-.05-.05h0L13,26.15l-.26-.59L12,25.42l-.42-.57-.69-.16-.73-.35-.07-.79-1-.61-.36-.59-.61-.19v-.43h.58L9.6,22l.53,0,.58-.24h-.12v0l.33-.21-.08.46.8.68.56-.21.05-.41-.05.44.28.4V21.84l-.28-.22-.11.46-.57.13-.06-.79h0l0,0h0v0h0V21.3h0v0h0V21.2Z"/><path class="cls-1" d="M96.29,60.2h0Zm1-.34h0l0,0v0h0Zm0,0Zm0,0h0v0l0,0h0Zm.57-.23h0l-.55.25h0v0h0v0h0v0H97l.9-.46Zm.63-.49h0v0h0Zm3.76-7.91v1.19l.63,0,.15.31.46.12.22-.27.25.61.24.14.33.72.53.27.78,1.1.13.48,1.22,1.16.29.42v1l-.25.2-.06,1.38.18.27.08,1.5-.47.64,0,.36v.52h-7v-.25l-.71-.17-.6-.48-.9-.13-.09.55-.45.17-.78-.2-.68-.6-.44-.75,0-.3-.83-.5-.24-.7,1.74-.19.59.34-.37.08h0l.6.37.72.22,1.18-.45.26-.77-.55-.33.22-.32-.22.17h0V59l.64-.31,1.21-.83.69-.72.14-1-.08-.27.28-.43.68-.68-.15-.43,0-1.27-.07-.39.23-1Z"/><path class="cls-1" d="M92.85,73.9h0Zm0,0,0,0v0h0v0h0Zm0,0,0,0ZM90.82,72h.05v0h.06l0,0h0l.05,0h0l0,0h0l-.2-.15-.05,0h0Zm-2.74-1.64,0-.17v.06Zm10.31-4.79L99.71,67l1.37.73.26.82.65.23.34.33-.2.28,0,.93-4.91,0L95.32,73.5l.59.78-.35.36-.12.55.13.68-.31.53-.68-.65-1.7-1.84h0l0,0h0v0L91.1,72.24h0l0,0h0l-.05,0h0l0,0h-.06v0h-.05l-1-.78-1-.59.24-.08-.3-.35-.58-.13L88,69.77v0l.06-.63-.2-.53.37-1.06.35-.26.32-.82L89,66l1-.75.39-.48.55-1,0-.88.36-.14.65.45h.42l-.3.66.38.48v.34h.37l.26.51.23,0,1.57-1.27.47-.16.14-.51.49.07.11-.29.76.12.17.51.4.24.17.47,0,.46.59.13.41.43Z"/><path class="cls-2" d="M52.62,16.53l-.34.69-.32,1-.46.27-.46.74.14.28-.61,1.28-.31-.09.2.56-.26,0,.12.73-.17.18.29.77.12,1.77.3.46-.62.27.09.44.45.5-.5-.17-.88.21-.7-.36-.25.47-.5.39-.31.78-.61.12-.6-.52-.8,0-.71.28-.5-.12-.9-.62L43,26.72l-.2-.36L42.09,26l-.44.37-.27,1.79-.6.48-.34.93.24.58-.31.51-.73.68-1-.68-.42.22-.29-.36-.13-.57-.56-.82-1.28-.21-.16-.65L35,26.77,35,26l-.48-.46-.09-.4-.75,0-.51,0L32.67,25l-.05-.58.2-.94-.46-1.09-.48-.29-.05-.77-.56-.53.06-.49L31,20l.21-.23.65-.19.38.22.79-.57-.59-.37L32.4,18l.26-.5-.14-.44.31-1.18.25-.12,0-.91.15-.34-.12-1.33-.25-.2.09-.83.22-.47-.28-.45.2-.37-.55-2.22-.42-.43.33-.57L32,6.33h2.15v-2h6.41l.71.41.54,1,.76.33.87,1,.51.24.32.56.62.62.71.22.9.83.22.05.24.95.57.69.11,1.47.49.71.05.33.78.64.47.16.17.39.72.43.75.14.25.37.59.1Z"/><path class="cls-3" d="M66.16,22l-.64.42-.86-.14-.71.14-.37.75-.08.55-1,.23-.26.42,0,.54.43.32.27-.5.31.22.1.8-.46.82h-.56l-.34.25-.5,0L60.73,28l1.17,1.13.16.48.39.24-.11.88.11.24.63.14.14.57,1.1.67.28.3-.18.36-.87-.14-.41-.25-.63.68.08.93h-.37l0,.36.33.67-.14.47L62,35.62l-.32.22-.38-.19-.41-.71-.58-.2-.53.23-.48,0-.06-.54-.4,0L58.49,34l-1.08-.66L56,33.19l-1,.25v.25l-.51.33-.2.85-.78-.23-.67-.39-.19-.66-.4-.31L52,32.75l-.12-.53.57-.28L52,31.46l.57-.93-.21-1.05.08-.3-.28-.61.06-.65L52,27.3l-.59-.65-.63-.25-.45-.5-.09-.44.62-.27-.3-.46L50.44,23l-.29-.77.17-.18-.12-.73.26,0-.2-.56.31.09.61-1.28L51,19.23l.46-.74.46-.27.32-1,.34-.69,1,.16.15-.46.68-.49.05-.64L55,14l.5-.6.46-.21.48.08.31-.5.73.38h1.27l.29.12,1-.1.79.71-.06.43.76.3.19.39.84.55.42.59.12.7.46.66.11.58.64.72-.06.43.55.89.45.19.73,1.11Z"/><path class="cls-1" d="M52.21,58.73l-1,1.05-1.46-1L49,58.49l-.25-.27-1.16-.38.07-.09.37,0,.51-.33.95-.07.78-.44.61,0,1-.61.08.67.29.23-.13,1Z"/><path class="cls-1" d="M69.89,58.28l-.94.16-.39-.14-.43-.73.49-.5.37-.66.43.75.31.25.22.48Z"/><path class="cls-1" d="M50.78,26.4l.63.25.59.65.22.62-.06.65.28.61-.08.3.21,1.05-.57.93.44.48-.57.28.12.53.32.53.4.31.19.66.67.39.78.23.2-.85.51-.33,0,.33.47.37,0,.88.2.06.13.61-.22.33-1.18.17-.58-.26-.49.12-.93-.15L51,37.67l-.25.06.14.52-.06.7.12.72-.77.79-.22,1.18-.32.55.15.59-.05.91-.48.23-.36.74-.52.41L48,44.83l-.46-.61-.5-.34-.34.53-.43-.69.54-.46-.32-.75L46,42.42l-.22-.26-.5.24L44.93,42l-.3-.31-.56,0-.34-.79-.26-1.24-.58-.77-.43-1.59-.6-.79L41,36.2l-.51.49-.57.05-.35-1.15-.19,0-.21-.71-.3-.4-.64-.13.06-.22-.55-.86.1-1.09.22-.51-.18-.17.46-.49-.16-.16.42-.22,1,.68.73-.68.31-.51-.24-.58.34-.93.6-.48.27-1.79.44-.37.74.37.2.36.49.18.9.62.5.12.71-.28.8,0,.6.52.61-.12.31-.78.5-.39.25-.47.7.36.88-.21Z"/><path class="cls-1" d="M66.4,48.32l-.13.68.39.09-.11.41-.49.28-.21-.24-.37.12-.35.92-.25.16-1.32.08-.23.88.25.4v.41l.61.8.09.88L63,54.82l-1.31-.13,0-.45H61.1l-.25.32-.68-.17-.25-1.18-.69.14-.27.37-.9-.06,0-.5L57.66,53,58,52l-.56-.69.68-.77.09-.32.52-.49.14-.54.45-.34-.13-.45.2-1,.27-.51.27-.06,1.9.54.93.71.64.09.44-.67.61.2.87.73.63,0Z"/><path class="cls-1" d="M67.06,67.82v0h0v0Zm.55-7.89,0,.34.29,0,.46.5.84.1.31.35v.22l.58.58.44,0-.06.28.94.43.39-.13.47.4L72,63.6l0,.34.37.64.11.83-.11.52.38.13,0,.48.29.2v.55l-.54.41-.06.25-.57.46-.17.44-.63.47-.85-.94-.51.08-1.17-.37-1-.24h-.47v0h0v0l-.31-.07-1.26-.86L63,66.06l-1.36-.55L61,65,60,64.47l.05-.15-.77-.38-.57-.86-.9-.44-.42.14-.17-.73.13-.19.58-.11.42-.26,0-1,.4-.22.56,0,.49.44,1.14-.2.81.15.2.4.31-.17.76.54.23-.17-.45-.62-.22-1.15h.38l1-1.11.06.39-.21.39,0,.82.31.3-.3.42.51.1.3.48.53-.43.34-.07-.1-.27.81-.06.68-.41-.06-.26.57.26Z"/><path class="cls-1" d="M71.16,48.74l.1.53.53.39h.64l.34.54-.25.31,0,.61L72,50.94l-.52.56-.17,1.12.37.5.63-.45.93-.85.26.14v.47l-.62.62-.51.23.46.2-.08,1.05-.27.62.14.58-.37-.09L72,56l-.58.06-.76.27.22-1.12L70,55.3l-.41.4-.11-.5.26-.1.16-.57-.07-.31-1,.34-.1.57-.67.11-.4-.72.13-.11-.37-.61-.63-.07-.65-.47.18-1L67,52l.43-.3-.14-.24.51-.68.12-.7L69,49.68l.17-.46.32-.12.36.52.41-.36.16.22.46-.75Z"/><path class="cls-1" d="M46.31,57h0Zm8.63-9.37.32-.17.71.07.68.35.63-.24.38-.54.66-.31L58,46.1l.73.24.9.62-.27.51-.2,1,.13.45-.45.34-.14.54-.52.49-.09.32-.68.77L58,52l-.33,1L56,53.24l-.76.46,0,.18-.6.28-.52-.28-.24.17-.14.58,1,.28.21.37-.21.27.31.72-.11.34h.51l.14.27-.53.81-.32-.08-1.52,1.1L53,58.46l-.32.25-.49,0-.13-.51.13-1L51.92,57l-.08-.67-1,.61-.61,0-.78.44-.95.07-.51.33-.37,0-.48-.13h0l.07-.23-.55-.07L46.31,57h0L46,56.2l-.14,0-.73-.79-.81-1.3v-.49l-.58-.75.35-.35.9-.12.53-.43-.24-.32.57-.78.64-.09.66-.4.45.35.45.1,1,1v-.7l.25-1.3.76-.09.75-.4.13-.89-.57-1-.69-.11-.08-.61L49,46.55l-.06-.44.17-.81.43-.19,0-.45.54-.09-.17.52.48-.34-.3-.77.35-.37.69.1-.5.68-.22.94.38.41.07-1.27.51-.19.53.25L52,45l-.59,1,.8.13.64-.62-.15-.45.62-.08,0,.43.4.07-.17.79-.23.3-.7.29-.71.62v.6l-.55.37.15.41.43.05,0,.29-.72.3.77.71.75.21,1-.24.32-.49.31.08,1-.83.07-.47L55,48.22Z"/><path class="cls-1" d="M70.63,56.34l.35.34,0,.56.16.5v.7l-.53.35-.69-.51.06-.39-.22-.48-.31-.25L69,56.41l-.37.66-.49.5.43.73-1,1.63-.25.06-.57-.26.06.26-.68.41-.81.06.1.27-.34.07-.53.43-.3-.48-.51-.1.3-.42-.31-.3,0-.82.21-.39L64,58.33l.8-1.52-.07-.8-.23-.39.46,0,.29-.65-.13-.6.37,0,.3-.31-.13-.46.29.07.18-.35.65.47.63.07.37.61-.13.11.4.72.67-.11.1-.57,1-.34.07.31-.16.57-.26.1.11.5.41-.4.86-.08Z"/><path class="cls-1" d="M64.18,53.31l.41.57.49.45.13.6-.29.65-.46,0,.23.39.07.8L64,58.33l-1,1.11h-.38l.22,1.15.45.62-.23.17-.76-.54-.31.17-.2-.4-.81-.15-1.14.2-.49-.44-.56,0-.4.22,0,1-.42.26-.58.11-.13.19.17.73-.2.16L56,62.51l-.8-.14-1.11-.47-1.43-.37-.54-.3-.27-.63-.53-.4-.13-.42,1-1.05.49,0,.32-.25.24.25,1.52-1.1.32.08.53-.81-.14-.27H55l.11-.34-.31-.72.21-.27-.21-.37-1-.28.14-.58.24-.17.52.28.6-.28,0-.18.76-.46L57.66,53l.36.16,0,.5.9.06.27-.37.69-.14.25,1.18.68.17.25-.32h.55l0,.45,1.31.13,1.28-.63Z"/><path class="cls-1" d="M69.89,58.28l.69.51.53-.35-.43,1.21.21,1.08-.52-.28-.88.75-.31-.35-.84-.1-.46-.5-.29,0,0-.34,1-1.63.39.14Z"/><path class="cls-1" d="M43.68,44.32h0v0h0Zm.21-.09h0l0,.08h0v0h0l.07,0h0v.09h0v0h0v0h0v0l0,0v.86l-.31-1.22h0Zm5,.43.2.64-.17.81.06.44.72.22.08.61.69.11.57,1-.13.89-.75.4-.76.09-.25,1.3v.7l-1-1-.45-.1-.45-.35-.66.4-.64.09-.57.78L45,51.4l-.51,0,.18-.44.86-.82,0-1.22.21-.29L44.86,48l-.8-1.43L44,45.61l.59.4.07-.21-.54-.34-.1-.69v-.09l0,0v0h0v0h0v0h0v-.09h0l-.07,0h0v0h0l0-.08h0v-.31l.83.3-.06-.73-.27-.43L44.93,42l.32.42.5-.24.22.26.49.09.32.75-.54.46.43.69.34-.53.5.34.46.61.39.24Z"/><path class="cls-1" d="M66.6,22.43l-.73.44v.45l.57,0-.13.36.44,1.38-.39.62.52.29v.89l.7.35.18.66.47.32.16.4.32-.09.14.63.49.07.36.51.48-.21.76-.05.16.39v1.57l.51.26-.3.54-.68.51-.75.19-.2.42-.6-.2-.45.51.21.34-.58.65-.09-.24-.42.5-1.26.79.45.68-.15.82.52,1.15.3.43-.41-.05-.37.39-.51-.07-.29.17-.35.78v.77l-.41-.08-.16.46L64.5,41l-.32.43-.52-.58-.1-1.07.16-.73-.17-.3,0-.59-.82-1.47.17-.52-.39-.09-.25-.36.1-.07.14-.47-.33-.67,0-.36h.37l-.08-.93.63-.68.41.25.87.14.18-.36-.28-.3-1.1-.67-.14-.57-.63-.14-.11-.24.11-.88-.39-.24-.16-.48L60.73,28l.74-1.09.5,0,.34-.25h.56l.46-.82-.1-.8-.31-.22-.27.5-.43-.32,0-.54.26-.42,1-.23.08-.55.37-.75.71-.14.86.14.64-.42Z"/><path class="cls-1" d="M88.11,70.21v0l-.15,0Zm-4.41-.15v0ZM88,69.75v0Zm-2.32,0v0ZM89,66l0,.43-.32.82-.35.26-.37,1.06.2.53-.06.63-.38.11-.58-.42-.26.34.34.13h0l.74.22.07.09.15.08,0,.11-.64-.3-.93-.25-.8-.11v0l.57-.43-.39-.13-.34.15-.28-.41-.3,0-.66.76.87,0L83.7,70v0l-.69.62-2,.59-.77.43-.21.13-.83,0-.25.15-1.36-.33-1.36-.74L75,70.72l-1,0-.6-.43-1.12-.61-1.21-.31.63-.47.17-.44.57-.46.06-.25.54-.41v-.55l-.29-.2,0-.48-.38-.13.11-.52-.11-.83L72,63.94l0-.34.29-.65.5-.41,1-.14.56.25.27-.25L74.19,62l.31-.69.55-.11-.17.39.26.26.39.89.69-.78L77,62l.55-.42.37-.08.41-.65.23-.47-.06-.33.39.2,0,.63.37.37.44.07.42.49.3-.13.82.2.14.56-.39,1.16.33.7,1-.07.47-.32.7-.28.25.16-.31.36.6.76.44.35.06.45Z"/><path class="cls-1" d="M78.37,60.87l-.41.65-.37.08L77,62,76.22,62l-.69.78-.39-.89-.26-.26.17-.39-.55.11-.31.69.44.41-.27.25-.56-.25-1,.14-.5.41-.47-.4-.39.13-.94-.43.06-.28-.44,0-.58-.58V61.2l.88-.75.52.28-.21-1.08.43-1.21v-.7l-.16-.5,0-.56.18,0,.74.58.35.51.68.27.53-.44.3.17.4-.45.74-.16,0-.19-1.72-1.45-.23.28-.41,0-.14-.58.27-.62.08-1.05-.46-.2.51-.23.62-.62V52l.42-.93h.51l.13.86.43.26-.16.48-.29-.11-.19.4.15.75.34,0,.34.27.45-.56,1.11.39-.6,1.18,0,.32-.43.76.13.7.3.24.95.29.09.41-.83,0,0,1.17-.29.36.19.75.56.14.18.53.25.14.48-.31Z"/><path class="cls-1" d="M69.21,49.22l-.17.46-1.11.39-.12.7-.51.68.14.24L67,52l-.74.24-.18,1-.18.35-.29-.07.13.46-.3.31-.37,0-.49-.45-.41-.57-.61-.8V52.1l-.25-.4.23-.88,1.32-.08.25-.16.35-.92.37-.12.21.24.49-.28.11-.41L66.27,49l.13-.68.11-.3.32.07.29.49h.78l.19-.46Z"/><path class="cls-1" d="M112.83,57.67h0Zm0,0h0Zm.51-1.46h0Zm.27,0v0h0Zm2.7-4.09-.14.34-.88,1-.09-.57.37-.58Zm-.58-3.41h0Zm0,0h0Zm-.21-.17h0Zm-.32-.43h0v0Zm.1,0-.13,0v0l0,0Zm-8.24,14.7,0-.36.47-.64-.08-1.5-.18-.27.06-1.38.25-.2v-1l-.29-.42L106,55.92l.22-.73.57,0,.59-.38.45,0L109,54l.85-.3.24-.48.33.24.29-.81.81,0,1.28-.93.47-1.21-.21-.64.21-.56.06-.94.65.23.88-.16.1-.48h0l.36.11.21.36h0l.31.88.42.5L115.75,51l-.88,1.07-.58.45-.66,1-.19.56.17.86-.19.27-.38.09-.29.51-.34.29.46.18.47-.14h0l.15,0h.12v0h0l-.12-.07.21,0-.08.46-.35.36-.45.09-.07.3h0l.06.48.35-.45.44-.08-.35.44-.06.54-.28.52-.34.94-.18,1.19-.43.81h0l-.08-.58-.11-.31-.55-.17.28-1.19-.34-.22-.74,1.34-.89.13-.7,1.61-.56.55v.25l-.7-.57ZM114.93,48l-.51.29.5-.29Z"/><path class="cls-1" d="M65.12,41.15l.39.77v1.13l.88.36.79.14.27-.3.76.67.4.78,1.4.12.47,0,0,.15,1,.18.4.73-.56.12.05.42-.49.09.51.67-.63.44.11.62.21,0,0,.52h-.24l-.46.75-.16-.22-.41.36-.36-.52-.32.12-1.12-1.1-.19.46h-.78l-.29-.49L66.51,48l-.11.3-.46.21-.63,0-.87-.73-.61-.2-.44.67-.64-.09-.93-.71-1.9-.54.44-1.17-.19-.61.52-1.3-.28-.36-.36.08-.62.68-.8.1-.31-.59-.55-.15-.72-.53-.24-.35.23-.92-.16-.38.12-.69.88,0,.28-.42L58.9,40l.69-.93.65-.19.37-.69L60.45,38l.24-.63.44-.18.31-.61.38,0,.47-.78.25.36.39.09-.17.52.82,1.47,0,.59.17.3-.16.73.1,1.07.52.58L64.5,41Z"/><path class="cls-1" d="M43.79,44.35h0Zm.06-.7,0,0h0l0,0v.1h0l-.15-.16Zm-5.7-6.16v0h0Zm0,0h0ZM37.27,37h0v0Zm-.93-.92v0h0ZM36.26,36h0Zm-.82-.55h0v0l0,0h0Zm-.39-.23v0h0v0ZM34.43,34l0-.43.28.24,0,.73Zm-.32-.53h0Zm0,0h0Zm-.1-.33v0Zm0-.09h0l0,.05v0Zm-4.41-3.68h0Zm0,0h0v-.06h0v0h0v0h0v0Zm0-.06h0v0h0v0Zm6.74,6.72v0h0l-.06-.1h0l-.33-.07-.48-.45v0h0l-.38-.2v0h0v0l-.32-.51h.36v0L35,34.46h0v-.54h0l-.16-.38-.33-.13h0l-.39-.31h0l-.49-.36-.25.08L32,32l0-.46-.48-.07,0,.34-.71,0,.1-.43.28.22L31.4,31l-.39.32-.45,0-.5-.61-.56-.26.1-1h0l0,0h0v0h0l.48-.89V29l.25-.78.16,0,.05-.14V28l.43.33.95-.51.14-.55.6-.14.27-.55.32-.14-.07-.34.54-.89.75,0,.09.4L35,26l-.06.78.8,1.49.16.65,1.28.21.56.82.13.57.29.36.16.16-.46.49.18.17-.22.51-.1,1.09.55.86-.06.22.64.13.3.4.21.71.19,0,.35,1.15.57-.05L41,36.2l.85.33.6.79.43,1.59.58.77.26,1.24.34.79.56,0,.3.31-.53,1.08.27.43.06.73-.83-.3v-.08h0v-.1l0,0h0l0,0-.09,0,.06.66h0l-.5-.75-.83-.75-.59-.73-1-1-.27-.58-1-1-.39-.86-1.17-1.08.13-.12L37.33,37v0h0l-.86-.66.44.14v0l-.2-.65Z"/><path class="cls-4" d="M30.48,28.22l-.16,0,0-.09h0Zm.05-.21v0Zm-.34.1V28h0V28h0l0-.08Zm0-.32h0ZM28,26.31v0h0Zm-.27-.89h0Zm-.11,0h0v0h0v0h0v0l0,0Zm-.78-.64h0ZM25.3,23.62h-.07v0h0l0,0Zm-.09-.1Zm-.07-.15h0v0h-.06v-.07h0Zm-.08-.91h0v0l0,0Zm0-.58v0l-.09,0h0l0,0Zm-.07,0,0,0h0Zm-1-.43h0Zm-.34-.24h0ZM20,17.48v0h0Zm-1.4-1.85h0Zm-3.2-8.77h0v0ZM12.17,5h0l0,0h0V5ZM9,4.14l.5.71-.46-.22ZM32,6.33l.39,1.33-.33.57.42.43.55,2.22-.2.37.28.45-.22.47-.09.83.25.2.12,1.33-.15.34,0,.91-.25.12-.31,1.18.14.44-.26.5.06.84.59.37-.79.57-.38-.22-.65.19L31,20l.31.29-.06.49.56.53.05.77.48.29.46,1.09-.2.94.05.58.53.22.51,0-.54.89.07.34-.32.14-.27.55-.6.14-.14.55-.95.51L30.53,28l-.29-.09v-.06h0l0,.16h0V28h0v.08l-.12-.83-.93-.94,0,.32-.58,0L28,26.31v0h0l-.43-1,0,0v0h0v0h0v0h.09l-.33-.61-.55,0h0l-.75-.18-.63-.53-.23-.42h.07v0l0,0h0l0-.1h0l-.09-.11v0h0l0,0h0v.07l-.14-.7.12-.25v0l0,0v0h0l0-.54v0l.1-.36-1.12-.26-.09.15h0l.07.1-.33,0-.11-.36h0l-.3.11h0l-.21-.13-.63-.55-.65-.95,0-.25v0l-1-.4-.2-.57-.74-.74.22-.17H20v0h0l0,0h0v.08l-.44-.26-.51-.68-.24-.72-.06-.61-.63-.09.12-.64-.2-.15-1-1.69-.24,0,0-1.19-.42-.42.05-.48-.88-1.28-.15-.58.24-1-.26-.8h0v0l-1.87-.52-.05-.59-.29-.31-1-.46h0v0h0L12,5.6l-1-.2-1.31-1L9,4.14,8.1,3.52l.18-1.13L8.07,2l.45-.9h.4l5.67,2.05,8.64,3.19H32Z"/><path class="cls-1" d="M90.71,61Zm1.1-.05h0Zm0-.07h0Zm8.23,2.5L100,65.56l-1.6,0,.21-.23-.41-.43-.59-.13,0-.46-.17-.47-.4-.24-.17-.51L96.13,63l-.11.29-.49-.07-.14.51-.47.16-1.57,1.27-.23,0-.26-.51h-.37v-.34l-.38-.48.3-.66H92l-.65-.45-.36.14,0,.88-.55,1-.39.48-.25-.06-.06-.68-.21-.57-.7-.28-.57-.51L88,61.74l.45-.16.58-.18,1-.12.08-.28.55,0h0l1-.12h0l0,.06h0l0,0h0l.21.16h0l-.09-.2h-.06l.06,0h.83l.48-.21.34-.44.88-.21.24.7.83.5,0,.3.44.75.68.6.78.2.45-.17.09-.55.9.13.6.48.71.17Z"/><path class="cls-1" d="M73.79,43.49v0h0Zm.22-.44h0Zm.18-4.29h0Zm-.09,0Zm0,0h0Zm.06-.11h0v0Zm0,0v0h0Zm-.07-.11h0Zm.09-.25Zm0-.58h0Zm0-.12Zm0-.06h0l0,0h0l0,0h0l0,0h0v0h0Zm0,.76h0l0-.56h0v-.08h0l0,0h0l0,0h0l0,0h0l0-.59h0Zm.08-1.37h0Zm.09-.84v0Zm0,0h0v0Zm-.6-.23h0l0,0Zm.49-.15v0Zm0-.15h0v0h0Zm0-.1h0Zm0-.06Zm.25,0h0Zm-.24,0Zm0,0Zm0,0h0v0Zm0-.09h0v0Zm0,0h0v.06l0,0,0,0h0Zm0,0h0Zm0,0v0h0v0h0ZM74.4,35h0Zm.17.32h0l.06-.27ZM74.39,35v0h0Zm0-.08h0Zm0,0Zm-.14-.3v0Zm0-.09h0Zm0,0h0Zm.54,0h0Zm0,0h0Zm-.54-.08h0Zm.17,0h0Zm0,0h0Zm0,0h0Zm.37,0h0l0,0Zm0,0h0l0-.11h0Zm-.23-.42h0Zm0,0h0Zm.26.3h0Zm.29-1.11Zm0-.06v0h0Zm0,0v0h0l0,0h0Zm-.19.45.13-.28.25-.32-.41,1Zm.29-.68h0Zm0,0h0Zm.13-.18h0Zm-.32,0h0Zm0-.05h0Zm0,.05,0-.05h0l0,0h0Zm.4-.17h0Zm0,0v0Zm-.52,0h0Zm.54,0h0v0h0Zm-.54,0Zm.54,0h0Zm-.34,0h0v0h0Zm.24,0,0,0h0l0,0h0Zm-.24,0h0ZM75,32.26Zm0,0h0Zm.08,0h0Zm.1,0v0Zm.09-.2v0Zm.06,0h0l0,0h0v0Zm0-.06h0l0,.05,0-.06h.07ZM73.76,35.8l.22.73.17-.39-.05,1.22v1.1h0v.41l.09-.11h0l-.1,1.79,0,1.68-.1.86-.22.4.2-.44h0l-.39.6.13.07h0l0-.21h0l-.1.84.32.93-.32.22-.47-.59-1.1-.44-.33.31-.4-.2-.9.19-.47,0-1.4-.12-.4-.78-.76-.67-.27.3-.79-.14-.88-.36V41.92l-.39-.77.16-.46.41.08V40l.35-.78.29-.17.51.07.37-.39.41.05-.3-.43-.52-1.15.15-.82-.45-.68,1.26-.79.42-.5.09.24.58-.65-.21-.34.45-.51.6.2.2-.42.75-.19.68-.51.3-.54-.51-.26V29.86L71,29.47l-.76.05-.48.21-.36-.51-.49-.07-.14-.63-.32.09-.16-.4-.47-.32-.18-.66-.7-.35V26l-.52-.29.39-.62-.44-1.38.13-.36-.57,0v-.45l.73-.44.47.11.46.69-.11.65.33.67-.08.68.45.4.45.88.16.76.4.61,1,.13.33.42,1,.18,1,.73,1,0,1.1.16.91.8.45-.49.5-.05.08.34-.19,1-.78,1.51-.24.21.09-.1,0-.06h0l0-.18h0l0,0v0l0,0v0h0v0h0l-.12,0h0l0,0h0v-.24h-.14l0-.06h-.07v0h0l0,.21v.11l.05,0h0v0l-.07,0h0l0-.08h0l-.06,0h0l0,.19h0l-.13,0h0l-.31-.25,0,0-.07.62.11.21-.32.89.23.25-.13.08v.09h0l0,0v.16h0v0l.06.26h0v.34l0,0h0v.09h0l0,.06h0l0,0h0v0h0l0,.13v0l-.49.14h0Z"/><path class="cls-1" d="M71,56.68l-.35-.34.76-.27L72,56l.24-.37.37.09.41,0,.23-.28,1.72,1.45,0,.19-.74.16-.4.45-.3-.17-.53.44-.68-.27-.35-.51-.74-.58Z"/><path class="cls-1" d="M81.47,59.66h0ZM74.56,47.14v0h0ZM74,45.28l.09.84.23.67.12,1,.37.74.24,0,.28.76v0h0v0h0L76.49,52l1.69,1.88,1,1.22.18.69h0l.32.79.08.71.62.37.14.52.47.13.11.6.69.57-.46-.21.17.35h0l.37-.25.67.31,1.42.05.61.53.82.11.37.66.38.36.08.37.4.19L87,62l1.45-.37-.45.16.17,1.4.57.51.7.28.21.57.06.68.25.06L89,66l-4.36-.26-.06-.45-.44-.35-.6-.76.31-.36-.25-.16-.7.28-.47.32-1,.07-.33-.7.39-1.16-.14-.56-.82-.2-.3.13-.42-.49-.44-.07L79,60.9l0-.63-.39-.2.06.33-.23.47-.62-.46-.48.31L77,60.58l-.18-.53-.56-.14-.19-.75.29-.36,0-1.17.83,0-.09-.41L76.12,57l-.3-.24-.13-.7.43-.76,0-.32.6-1.18-1.11-.39-.45.56-.34-.27-.34,0-.15-.75.19-.4.29.11.16-.48-.43-.26L74.38,51h-.51l-.42.93-.26-.14-.93.85-.63.45-.37-.5.17-1.12.52-.56.54.17,0-.61.25-.31-.34-.54h-.64l-.53-.39-.1-.53,0-.52-.21,0-.11-.62.63-.44-.51-.67.49-.09L71.38,46l.56-.12-.4-.73-1-.18,0-.15.9-.19.4.2.33-.31,1.1.44.47.59Z"/><path class="cls-1" d="M104.26,49.48Zm.66-.15h0ZM110.75,48l0,0h0Zm0,0,0,0h0l-.11.06-.11,0h0Zm2.53.49-.06.94-.21.56.21.64-.47,1.21-1.28.93-.81,0-.29.81-.33-.24-.24.48L109,54l-1.11.74-.45,0-.59.38-.57,0-.22.73-.13-.48-.78-1.1-.53-.27-.33-.72-.24-.14-.25-.61-.22.27-.46-.12-.15-.31-.63,0V51.2l.22-.84.9-.58.78-.27h0l.06,0h0l.68-.15h0l1.29-.28,2-.27.74-.27.08-.22,1.57-.26.16-.08h0l0,0,1.29.2.29.23Z"/><path class="cls-1" d="M62.39,35.68l-.1.07-.47.78-.38,0-.31.61-.44.18-.24.63.16.19-.37.69-.65.19L58.9,40l-.74.32-.28.42-.88,0-.12.69.16.38-.23.92.24.35.72.53.55.15.31.59.8-.1.62-.68.36-.08.28.36-.52,1.3.19.61-.44,1.17-.27.06-.9-.62L58,46.1l-.34-.76-.4-.18-.54-.57-.29.32-1.07.61-.21.59-.59,1,.36.5.09.61.42.26-.07.47-1,.83-.31-.08-.32.49-1,.24L52,50.22l-.77-.71.72-.3,0-.29-.43-.05-.15-.41.55-.37v-.6l.71-.62.7-.29.23-.3.17-.79-.4-.07,0-.43-.62.08.15.45-.64.62-.8-.13L52,45l-.1-.46-.53-.25-.51.19-.07,1.27-.38-.41.22-.94.5-.68-.69-.1-.35.37.3.77-.48.34.17-.52-.54.09,0,.45-.43.19-.2-.64.36-.74.48-.23.05-.91-.15-.59.32-.55.22-1.18.77-.79L50.81,39l.06-.7-.14-.52.25-.06,1.48-1.52.93.15.49-.12.58.26,1.18-.17.22-.33-.13-.61-.2-.06,0-.88L55.1,34l0-.33v-.25l1-.25,1.39.1,1.08.66.32.49.4,0,.06.54.48,0,.53-.23.58.2.41.71.38.19.32-.22Z"/></g></g></g></svg>