<svg xmlns="http://www.w3.org/2000/svg" viewBox="0 0 92.44 79.4"><defs>
<style>.cls-1{fill:#ff0;opacity:0.85;}</style></defs>
<g id="Layer_2" data-name="Layer 2"><g id="Layer_1-2" data-name="Layer 1"><g id="banda-02">
<path class="cls-1" d="M55.56,0a331.55,331.55,0,0,1-22.7,39.58A92,92,0,0,1,0,68.68,101.31,101.31,0,0,1,15.84,28.06C29.29,8.16,55.56,0,55.56,0Z"/>
<path class="cls-1" d="M78.64,20.27S66.32,50.5,44.48,60.52,0,68.68,0,68.68a123.89,123.89,0,0,1,36.3-26C58.14,32.67,78.64,20.27,78.64,20.27Z"/>
<path class="cls-1" d="M92.44,57.3S68.53,79.52,44.5,79.4,0,68.68,0,68.68s20.58-9,44.6-8.9S92.44,57.3,92.44,57.3Z"/>
</g></g></g></svg>