<svg xmlns="http://www.w3.org/2000/svg" viewBox="0 0 36 36">
<defs>
<style>.cls-1{fill:#f15a24;}.cls-2{fill:#f7931e;}</style>
</defs>
<g id="Layer_2" data-name="Layer 2"><g id="Layer_1-2" data-name="Layer 1"><g id="corridos-05">
<circle class="cls-1" cx="17.89" cy="18" r="9.22"/>
<path class="cls-2" d="M21.62,6.15c0,3.39-3.73,6.14-3.73,6.14s-3.73-2.75-3.73-6.14S17.89,0,17.89,0,21.62,2.75,21.62,6.15Z"/>
<path class="cls-2" d="M15.21,5.92c1.7,2.94-.16,7.19-.16,7.19s-4.61-.52-6.3-3.45.15-7.19.15-7.19S13.51,3,15.21,5.92Z"/>
<path class="cls-2" d="M9.55,8.94c2.94,1.69,3.45,6.3,3.45,6.3s-4.25,1.86-7.19.16S2.36,9.1,2.36,9.1,6.61,7.24,9.55,8.94Z"/>
<path class="cls-2" d="M6.15,14.38c3.39,0,6.14,3.73,6.14,3.73s-2.75,3.73-6.14,3.73S0,18.11,0,18.11,2.75,14.38,6.15,14.38Z"/>
<path class="cls-2" d="M5.92,20.79c2.94-1.7,7.19.16,7.19.16s-.52,4.61-3.45,6.3-7.19-.15-7.19-.15S3,22.49,5.92,20.79Z"/>
<path class="cls-2" d="M8.94,26.45c1.69-2.94,6.3-3.45,6.3-3.45s1.86,4.25.16,7.19-6.3,3.45-6.3,3.45S7.24,29.39,8.94,26.45Z"/>
<path class="cls-2" d="M14.38,29.85c0-3.39,3.73-6.14,3.73-6.14s3.73,2.75,3.73,6.14S18.11,36,18.11,36,14.38,33.25,14.38,29.85Z"/>
<path class="cls-2" d="M20.79,30.08c-1.7-2.94.16-7.19.16-7.19s4.61.52,6.3,3.45-.15,7.19-.15,7.19S22.49,33,20.79,30.08Z"/>
<path class="cls-2" d="M26.45,27.06c-2.94-1.69-3.45-6.3-3.45-6.3s4.25-1.86,7.19-.16,3.45,6.3,3.45,6.3S29.39,28.76,26.45,27.06Z"/>
<path class="cls-2" d="M29.85,21.62c-3.39,0-6.14-3.73-6.14-3.73s2.75-3.73,6.14-3.73S36,17.89,36,17.89,33.25,21.62,29.85,21.62Z"/>
<path class="cls-2" d="M30.08,15.21c-2.94,1.7-7.19-.16-7.19-.16s.52-4.61,3.45-6.3,7.19.15,7.19.15S33,13.51,30.08,15.21Z"/>
<path class="cls-2" d="M27.06,9.55c-1.69,2.94-6.3,3.45-6.3,3.45S18.9,8.75,20.6,5.81s6.3-3.45,6.3-3.45S28.76,6.61,27.06,9.55Z"/>
</g></g></g></svg>