<svg xmlns="http://www.w3.org/2000/svg" viewBox="0 0 114.77 85.78"><defs>
<style>.cls-1{fill:#ec297b;}.cls-2{fill:#faaf40;opacity:0.55;}.cls-3{fill:#f2f2f2;opacity:0.21;}</style></defs>
<g id="Layer_2" data-name="Layer 2"><g id="Layer_1-2" data-name="Layer 1"><g id="son-huasteco-06">
<ellipse class="cls-1" cx="23.01" cy="49.19" rx="10.05" ry="41.37" transform="translate(-22.07 18.91) rotate(-31.04)"/>
<ellipse class="cls-1" cx="43.22" cy="43.5" rx="41.37" ry="10.05" transform="translate(-1.27 85.7) rotate(-88.67)"/>
<ellipse class="cls-1" cx="77.72" cy="64.72" rx="41.37" ry="10.05" transform="translate(-21.02 42.83) rotate(-27.29)"/>
<ellipse class="cls-1" cx="65.79" cy="49.1" rx="41.37" ry="10.05" transform="translate(-11.59 76.53) rotate(-56.25)"/>
<circle class="cls-2" cx="66.45" cy="2.98" r="2.98"/>
<circle class="cls-2" cx="23.34" cy="5.36" r="2.98"/>
<circle class="cls-2" cx="105.22" cy="30.29" r="2.98"/>
<ellipse class="cls-3" cx="32.09" cy="63.39" rx="6.16" ry="25.39" transform="translate(-28.09 25.62) rotate(-31.04)"/>
<ellipse class="cls-3" cx="44.49" cy="59.9" rx="25.39" ry="6.16" transform="translate(-16.43 102.99) rotate(-88.67)"/>
<ellipse class="cls-3" cx="65.66" cy="72.92" rx="25.39" ry="6.16" transform="translate(-26.12 38.21) rotate(-27.29)"/>
<ellipse class="cls-3" cx="58.34" cy="63.34" rx="25.39" ry="6.16" transform="translate(-26.73 76.66) rotate(-56.25)"/>
</g></g></g></svg>