<svg xmlns="http://www.w3.org/2000/svg" viewBox="0 0 39.78 43.54"><defs><style>.cls-1{fill:#39b54a;}</style></defs><g id="Layer_2" data-name="Layer 2"><g id="Layer_1-2" data-name="Layer 1"><g id="leaf-08"><path class="cls-1" d="M.21,11.38C1.42,5.39,7.59,0,7.59,0s4.23,4.32,3,10.31S3.24,21.68,3.24,21.68-1,17.37.21,11.38Z"/><path class="cls-1" d="M29.23,17.26c5.15-.46,10.55,5,10.55,5s-3,6.19-8.1,6.64-10.54-5-10.54-5S24.09,17.71,29.23,17.26Z"/><path class="cls-1" d="M15.31,7.51c3.58-3.64,10.52-2.16,10.52-2.16s1.14,7.37-2.44,11-10.52,2.16-10.52,2.16S11.73,11.14,15.31,7.51Z"/><path class="cls-1" d="M.37,33C1.74,38.3,8,43.54,8,43.54A8.64,8.64,0,0,0,10.62,35C9.26,29.72,3,24.47,3,24.47A8.67,8.67,0,0,0,.37,33Z"/><path class="cls-1" d="M12.72,31.83c4,4.36,11.63,6.18,11.63,6.18A11.85,11.85,0,0,0,21.3,28.4C17.25,24,9.67,22.22,9.67,22.22A11.81,11.81,0,0,0,12.72,31.83Z"/></g></g></g></svg>