<svg xmlns="http://www.w3.org/2000/svg" viewBox="0 0 94.4 166.92"><defs>
<style>.cls-1{fill:none;stroke:#39b54a;stroke-miterlimit:10;stroke-width:2px;}.cls-2{fill:#39b54a;}</style></defs>
<g id="Layer_2" data-name="Layer 2"><g id="Layer_1-2" data-name="Layer 1"><g id="leaf-19">
<path class="cls-1" d="M57.72.53S107.91,80.61.62,166.14"/>
<path class="cls-2" d="M84.84,21.77c4.77-5,4.28-13.19,4.28-13.19s-8.2-.08-13,4.92-4.27,13.19-4.27,13.19S80.08,26.77,84.84,21.77Z"/>
<path class="cls-2" d="M88.16,49.39C93.63,45.18,94.4,37,94.4,37s-8.09-1.34-13.56,2.87-6.25,12.38-6.25,12.38S82.69,53.6,88.16,49.39Z"/>
<path class="cls-2" d="M85.51,78.82c6-3.46,7.8-11.46,7.8-11.46S85.46,65,79.49,68.45s-7.8,11.46-7.8,11.46S79.54,82.29,85.51,78.82Z"/>
<path class="cls-2" d="M76.66,108c6.77-1.36,11.08-8.34,11.08-8.34s-6.66-4.78-13.43-3.43-11.08,8.34-11.08,8.34S69.89,109.36,76.66,108Z"/>
<path class="cls-2" d="M57.5,138.51c6.9-.3,12.23-6.54,12.23-6.54s-5.86-5.75-12.75-5.45-12.23,6.54-12.23,6.54S50.6,138.81,57.5,138.51Z"/>
<path class="cls-2" d="M38.42,161.08c6.87.59,13-4.91,13-4.91s-5.06-6.46-11.94-7-13,4.9-13,4.9S31.54,160.48,38.42,161.08Z"/>
<path class="cls-2" d="M51.43,26.47c-5-4-6.38-12.09-6.38-12.09s6.71-1.59,11.71,2.42,6.38,12.09,6.38,12.09S56.43,30.47,51.43,26.47Z"/>
<path class="cls-2" d="M52.65,51.39C48.06,47.18,47.4,39,47.4,39s6.81-1.34,11.41,2.87,5.25,12.38,5.25,12.38S57.25,55.6,52.65,51.39Z"/>
<path class="cls-2" d="M49.88,75.82c-5-3.46-6.55-11.46-6.55-11.46S49.93,62,55,65.45,61.5,76.91,61.5,76.91,54.9,79.29,49.88,75.82Z"/>
<path class="cls-2" d="M38.4,96.92c-1.64-6.19,2-13.52,2-13.52s6.35,2.71,8,8.9-2,13.51-2,13.51S40,103.11,38.4,96.92Z"/>
<path class="cls-2" d="M22.59,119.7c-1.2-6.12,3.13-13.08,3.13-13.08s6.27,3,7.47,9.08-3.12,13.08-3.12,13.08S23.79,125.82,22.59,119.7Z"/>
<path class="cls-2" d="M5.86,137.72c-2-5.77,1.53-13.12,1.53-13.12s6.72,2,8.7,7.77-1.53,13.12-1.53,13.12S7.84,143.49,5.86,137.72Z"/>
</g></g></g></svg>