<svg xmlns="http://www.w3.org/2000/svg" viewBox="0 0 39.78 43.54"><defs><style>.cls-1{fill:#39b54a;}</style></defs><g id="Layer_2" data-name="Layer 2"><g id="Layer_1-2" data-name="Layer 1"><g id="leaf-08"><path class="cls-1" d="M39.57,32.17c-1.21,6-7.38,11.37-7.38,11.37s-4.23-4.31-3-10.3,7.38-11.38,7.38-11.38S40.77,26.18,39.57,32.17Z"/><path class="cls-1" d="M10.55,26.29C5.4,26.75,0,21.3,0,21.3s3-6.19,8.1-6.65,10.54,5,10.54,5S15.69,25.83,10.55,26.29Z"/><path class="cls-1" d="M24.47,36C20.89,39.67,14,38.2,14,38.2s-1.14-7.37,2.44-11S26.91,25,26.91,25,28.05,32.4,24.47,36Z"/><path class="cls-1" d="M39.41,10.51C38,5.25,31.81,0,31.81,0a8.65,8.65,0,0,0-2.65,8.56c1.36,5.26,7.59,10.51,7.59,10.51A8.67,8.67,0,0,0,39.41,10.51Z"/><path class="cls-1" d="M27.06,11.71C23,7.35,15.43,5.54,15.43,5.54a11.82,11.82,0,0,0,3.05,9.6c4.05,4.36,11.63,6.18,11.63,6.18A11.81,11.81,0,0,0,27.06,11.71Z"/></g></g></g></svg>