<svg xmlns="http://www.w3.org/2000/svg" viewBox="0 0 209.57 204.72">
<defs>
<style>.cls-1{fill:#652d90;opacity:0.9;}.cls-2{fill:none;stroke:#f6921e;stroke-miterlimit:10;stroke-width:1.32px;}.cls-2,.cls-3{opacity:0.56;}.cls-3{fill:#faaf40;}.cls-4{fill:#f6921e;opacity:0.95;}</style>
</defs>
<g id="Layer_2" data-name="Layer 2"><g id="Layer_1-2" data-name="Layer 1">
<g id="mariachi-02">
<ellipse class="cls-1" cx="104.79" cy="53.64" rx="19.95" ry="53.64"/>
<ellipse class="cls-1" cx="62.85" cy="73.84" rx="19.95" ry="53.64" transform="translate(-34.07 76.94) rotate(-51.43)"/>
<ellipse class="cls-1" cx="52.49" cy="119.22" rx="53.64" ry="19.95" transform="translate(-25.21 14.67) rotate(-12.86)"/>
<ellipse class="cls-1" cx="81.51" cy="155.61" rx="53.64" ry="19.95" transform="translate(-94.06 161.53) rotate(-64.29)"/>
<ellipse class="cls-1" cx="128.06" cy="155.61" rx="19.95" ry="53.64" transform="translate(-54.84 70.97) rotate(-25.71)"/>
<ellipse class="cls-1" cx="157.08" cy="119.22" rx="19.95" ry="53.64" transform="translate(5.9 245.83) rotate(-77.14)"/>
<ellipse class="cls-1" cx="146.72" cy="73.84" rx="53.64" ry="19.95" transform="translate(-14.03 107.59) rotate(-38.57)"/>
<line class="cls-2" x1="59.96" y1="73.84" x2="105.52" y2="106.02"/>
<line class="cls-2" x1="46.94" y1="118.79" x2="105.52" y2="106.02"/>
<line class="cls-2" x1="83.22" y1="153.61" x2="105.52" y2="106.02"/>
<line class="cls-2" x1="132.54" y1="159.37" x2="105.52" y2="106.02"/>
<line class="cls-2" x1="153.52" y1="70.74" x2="105.52" y2="106.02"/>
<line class="cls-2" x1="105.31" y1="43.86" x2="105.52" y2="106.02"/>
<circle class="cls-3" cx="166.76" cy="119.22" r="2.88"/>
<circle class="cls-3" cx="105.52" cy="42.88" r="2.88"/>
<circle class="cls-3" cx="44.28" cy="119.72" r="2.88"/>
<circle class="cls-3" cx="59.96" cy="73.84" r="2.88"/>
<circle class="cls-4" cx="105.52" cy="106.02" r="15.72"/>
<circle class="cls-3" cx="81.39" cy="155.54" r="2.88"/>
<circle class="cls-3" cx="133.01" cy="160.84" r="2.88"/>
<circle class="cls-3" cx="154.19" cy="69.51" r="2.88"/>
<line class="cls-2" x1="164.31" y1="118.34" x2="105.52" y2="106.02"/>
</g></g></g></svg>