<svg xmlns="http://www.w3.org/2000/svg" viewBox="0 0 86.22 84.96"><defs>
<style>.cls-1{fill:#f6921e;}.cls-2{fill:#478bc9;}</style></defs><g id="Layer_2" data-name="Layer 2"><g id="Layer_1-2" data-name="Layer 1">
<g id="norteno-06">
<circle class="cls-1" cx="43.11" cy="43.75" r="3.75"/>
<path class="cls-2" d="M48.37,18a36.62,36.62,0,0,1-5.26,18,36.62,36.62,0,0,1-5.26-18c0-9.93,2.36-18,5.26-18S48.37,8.06,48.37,18Z"/>
<path class="cls-2" d="M30.58,20.64A36.57,36.57,0,0,1,38.12,37.8a36.62,36.62,0,0,1-15.6-10.4C16.14,19.79,12.76,12.1,15,10.24S24.2,13,30.58,20.64Z"/>
<path class="cls-2" d="M18.66,34.1a36.55,36.55,0,0,1,16.8,8.3,36.61,36.61,0,0,1-18.63,2.06C7,42.73-.48,39,0,36.15S8.87,32.37,18.66,34.1Z"/>
<path class="cls-2" d="M18.17,52.08a36.67,36.67,0,0,1,18.22-4.45,36.61,36.61,0,0,1-13,13.56c-8.6,5-16.76,7-18.21,4.44S9.57,57,18.17,52.08Z"/>
<path class="cls-2" d="M29.36,66.16A36.61,36.61,0,0,1,40.45,51.05a36.58,36.58,0,0,1-1.21,18.71c-3.39,9.33-8.36,16.1-11.09,15.1S26,75.5,29.36,66.16Z"/>
<path class="cls-2" d="M47,69.76a36.58,36.58,0,0,1-1.21-18.71A36.61,36.61,0,0,1,56.86,66.16c3.4,9.34,3.94,17.71,1.21,18.7S50.38,79.09,47,69.76Z"/>
<path class="cls-2" d="M62.79,61.19A36.53,36.53,0,0,1,49.84,47.63a36.64,36.64,0,0,1,18.21,4.45c8.6,5,14.4,11,13,13.55S71.39,66.15,62.79,61.19Z"/>
<path class="cls-2" d="M69.39,44.46A36.61,36.61,0,0,1,50.76,42.4a36.55,36.55,0,0,1,16.8-8.3c9.79-1.73,18.13-.81,18.64,2S79.18,42.73,69.39,44.46Z"/>
<path class="cls-2" d="M63.7,27.4A36.62,36.62,0,0,1,48.1,37.8a36.57,36.57,0,0,1,7.54-17.16C62,13,69,8.37,71.23,10.24S70.08,19.79,63.7,27.4Z"/>
</g></g></g></svg>