<svg xmlns="http://www.w3.org/2000/svg" viewBox="0 0 54.42 54.42"><defs>
<style>.cls-1{fill:#ec1c24;}.cls-2{fill:#f6921e;opacity:0.76;}</style></defs>
<g id="Layer_2" data-name="Layer 2"><g id="Layer_1-2" data-name="Layer 1"><g id="ranchera-08">
<path class="cls-1" d="M37.81,13.21c0,7.29-10.6,13.21-10.6,13.21S16.6,20.5,16.6,13.21,21.35,0,27.21,0,37.81,5.91,37.81,13.21Z"/>
<path class="cls-1" d="M41.21,37.81c-7.3,0-13.21-10.6-13.21-10.6S33.91,16.6,41.21,16.6s13.21,4.75,13.21,10.61S48.5,37.81,41.21,37.81Z"/>
<path class="cls-1" d="M13.21,16.6c7.29,0,13.21,10.61,13.21,10.61s-5.92,10.6-13.21,10.6S0,33.07,0,27.21,5.91,16.6,13.21,16.6Z"/>
<path class="cls-1" d="M16.6,41.21C16.6,33.91,27.21,28,27.21,28s10.6,5.91,10.6,13.21-4.74,13.21-10.6,13.21S16.6,48.5,16.6,41.21Z"/>
<circle class="cls-2" cx="27.21" cy="27" r="3.63"/>
</g></g></g></svg>