<svg xmlns="http://www.w3.org/2000/svg" viewBox="0 0 1923.5 1087.5"><defs><style>.cls-1{fill:#1a1a1a;}.cls-2{fill:#ec1c24;}.cls-3,.cls-7,.cls-8{fill:#f6921e;}.cls-3{opacity:0.76;}.cls-4{fill:#652d90;opacity:0.9;}.cls-15,.cls-17,.cls-18,.cls-19,.cls-5{fill:none;stroke-miterlimit:10;}.cls-5{stroke:#f6921e;stroke-width:1.32px;}.cls-5,.cls-6{opacity:0.56;}.cls-11,.cls-6{fill:#faaf40;}.cls-7{opacity:0.95;}.cls-9{fill:#478bc9;}.cls-10{fill:#ec297b;}.cls-11{opacity:0.55;}.cls-12{fill:#f2f2f2;opacity:0.21;}.cls-13{fill:#f15a24;}.cls-14{fill:#f7931e;}.cls-15,.cls-17,.cls-18,.cls-19{stroke:#39b54a;}.cls-15{stroke-width:2px;}.cls-16{fill:#39b54a;}.cls-17{stroke-width:1.72px;}.cls-18{stroke-width:1.69px;}.cls-19{stroke-width:1.65px;}.cls-20{fill:#ff0;opacity:0.85;}.cls-21{fill:#f0f;}.cls-22{fill:#ed1e79;}.cls-23{fill:#fff;opacity:0.08;}</style></defs><g id="Layer_2" data-name="Layer 2"><g id="final"><rect id="background" class="cls-1" width="1923.5" height="1087.5"/><g id="ranchera-10"><path class="cls-2" d="M1747.73,134.13c0,7.29-10.6,13.21-10.6,13.21s-10.61-5.92-10.61-13.21,4.75-13.21,10.61-13.21S1747.73,126.83,1747.73,134.13Z"/><path class="cls-2" d="M1751.13,158.73c-7.3,0-13.21-10.6-13.21-10.6s5.91-10.61,13.21-10.61,13.21,4.75,13.21,10.61S1758.42,158.73,1751.13,158.73Z"/><path class="cls-2" d="M1723.13,137.52c7.29,0,13.21,10.61,13.21,10.61s-5.92,10.6-13.21,10.6-13.21-4.75-13.21-10.6S1715.83,137.52,1723.13,137.52Z"/><path class="cls-2" d="M1726.52,162.13c0-7.3,10.61-13.21,10.61-13.21s10.6,5.91,10.6,13.21-4.74,13.21-10.6,13.21S1726.52,169.42,1726.52,162.13Z"/><circle class="cls-3" cx="1737.13" cy="147.92" r="3.63"/></g><g id="ranchera-09"><path class="cls-2" d="M456.73,697.13c0,7.29-10.6,13.21-10.6,13.21s-10.61-5.92-10.61-13.21,4.75-13.21,10.61-13.21S456.73,689.83,456.73,697.13Z"/><path class="cls-2" d="M460.13,721.73c-7.3,0-13.21-10.6-13.21-10.6s5.91-10.61,13.21-10.61,13.21,4.75,13.21,10.61S467.42,721.73,460.13,721.73Z"/><path class="cls-2" d="M432.13,700.52c7.29,0,13.21,10.61,13.21,10.61s-5.92,10.6-13.21,10.6-13.21-4.75-13.21-10.6S424.83,700.52,432.13,700.52Z"/><path class="cls-2" d="M435.52,725.13c0-7.3,10.61-13.21,10.61-13.21s10.6,5.91,10.6,13.21-4.74,13.21-10.6,13.21S435.52,732.42,435.52,725.13Z"/><circle class="cls-3" cx="446.13" cy="710.92" r="3.63"/></g><g id="ranchera-08"><path class="cls-2" d="M1176.73,425.13c0,7.29-10.6,13.21-10.6,13.21s-10.61-5.92-10.61-13.21,4.75-13.21,10.61-13.21S1176.73,417.83,1176.73,425.13Z"/><path class="cls-2" d="M1180.13,449.73c-7.3,0-13.21-10.6-13.21-10.6s5.91-10.61,13.21-10.61,13.21,4.75,13.21,10.61S1187.42,449.73,1180.13,449.73Z"/><path class="cls-2" d="M1152.13,428.52c7.29,0,13.21,10.61,13.21,10.61s-5.92,10.6-13.21,10.6-13.21-4.75-13.21-10.6S1144.83,428.52,1152.13,428.52Z"/><path class="cls-2" d="M1155.52,453.13c0-7.3,10.61-13.21,10.61-13.21s10.6,5.91,10.6,13.21-4.74,13.21-10.6,13.21S1155.52,460.42,1155.52,453.13Z"/><circle class="cls-3" cx="1166.13" cy="438.92" r="3.63"/></g><g id="ranchera-07"><path class="cls-2" d="M1369.73,88.13c0,7.29-10.6,13.21-10.6,13.21s-10.61-5.92-10.61-13.21,4.75-13.21,10.61-13.21S1369.73,80.83,1369.73,88.13Z"/><path class="cls-2" d="M1373.13,112.73c-7.3,0-13.21-10.6-13.21-10.6s5.91-10.61,13.21-10.61,13.21,4.75,13.21,10.61S1380.42,112.73,1373.13,112.73Z"/><path class="cls-2" d="M1345.13,91.52c7.29,0,13.21,10.61,13.21,10.61s-5.92,10.6-13.21,10.6-13.21-4.75-13.21-10.6S1337.83,91.52,1345.13,91.52Z"/><path class="cls-2" d="M1348.52,116.13c0-7.3,10.61-13.21,10.61-13.21s10.6,5.91,10.6,13.21-4.74,13.21-10.6,13.21S1348.52,123.42,1348.52,116.13Z"/><circle class="cls-3" cx="1359.13" cy="101.92" r="3.63"/></g><g id="ranchera-06"><path class="cls-2" d="M1318.73,958.13c0,7.29-10.6,13.21-10.6,13.21s-10.61-5.92-10.61-13.21,4.75-13.21,10.61-13.21S1318.73,950.83,1318.73,958.13Z"/><path class="cls-2" d="M1322.13,982.73c-7.3,0-13.21-10.6-13.21-10.6s5.91-10.61,13.21-10.61,13.21,4.75,13.21,10.61S1329.42,982.73,1322.13,982.73Z"/><path class="cls-2" d="M1294.13,961.52c7.29,0,13.21,10.61,13.21,10.61s-5.92,10.6-13.21,10.6-13.21-4.75-13.21-10.6S1286.83,961.52,1294.13,961.52Z"/><path class="cls-2" d="M1297.52,986.13c0-7.3,10.61-13.21,10.61-13.21s10.6,5.91,10.6,13.21-4.74,13.21-10.6,13.21S1297.52,993.42,1297.52,986.13Z"/><circle class="cls-3" cx="1308.13" cy="971.92" r="3.63"/></g><g id="ranchera-05"><path class="cls-2" d="M537.73,73.13c0,7.29-10.6,13.21-10.6,13.21s-10.61-5.92-10.61-13.21,4.75-13.21,10.61-13.21S537.73,65.83,537.73,73.13Z"/><path class="cls-2" d="M541.13,97.73c-7.3,0-13.21-10.6-13.21-10.6s5.91-10.61,13.21-10.61,13.21,4.75,13.21,10.61S548.42,97.73,541.13,97.73Z"/><path class="cls-2" d="M513.13,76.52c7.29,0,13.21,10.61,13.21,10.61s-5.92,10.6-13.21,10.6S499.92,93,499.92,87.13,505.83,76.52,513.13,76.52Z"/><path class="cls-2" d="M516.52,101.13c0-7.3,10.61-13.21,10.61-13.21s10.6,5.91,10.6,13.21-4.74,13.21-10.6,13.21S516.52,108.42,516.52,101.13Z"/><circle class="cls-3" cx="527.13" cy="86.92" r="3.63"/></g><g id="ranchera-04"><path class="cls-2" d="M1227.73,725.13c0,7.29-10.6,13.21-10.6,13.21s-10.61-5.92-10.61-13.21,4.75-13.21,10.61-13.21S1227.73,717.83,1227.73,725.13Z"/><path class="cls-2" d="M1231.13,749.73c-7.3,0-13.21-10.6-13.21-10.6s5.91-10.61,13.21-10.61,13.21,4.75,13.21,10.61S1238.42,749.73,1231.13,749.73Z"/><path class="cls-2" d="M1203.13,728.52c7.29,0,13.21,10.61,13.21,10.61s-5.92,10.6-13.21,10.6-13.21-4.75-13.21-10.6S1195.83,728.52,1203.13,728.52Z"/><path class="cls-2" d="M1206.52,753.13c0-7.3,10.61-13.21,10.61-13.21s10.6,5.91,10.6,13.21-4.74,13.21-10.6,13.21S1206.52,760.42,1206.52,753.13Z"/><circle class="cls-3" cx="1217.13" cy="738.92" r="3.63"/></g><g id="ranchera-03"><path class="cls-2" d="M609.73,888.13c0,7.29-10.6,13.21-10.6,13.21s-10.61-5.92-10.61-13.21,4.75-13.21,10.61-13.21S609.73,880.83,609.73,888.13Z"/><path class="cls-2" d="M613.13,912.73c-7.3,0-13.21-10.6-13.21-10.6s5.91-10.61,13.21-10.61,13.21,4.75,13.21,10.61S620.42,912.73,613.13,912.73Z"/><path class="cls-2" d="M585.13,891.52c7.29,0,13.21,10.61,13.21,10.61s-5.92,10.6-13.21,10.6-13.21-4.75-13.21-10.6S577.83,891.52,585.13,891.52Z"/><path class="cls-2" d="M588.52,916.13c0-7.3,10.61-13.21,10.61-13.21s10.6,5.91,10.6,13.21-4.74,13.21-10.6,13.21S588.52,923.42,588.52,916.13Z"/><circle class="cls-3" cx="599.13" cy="901.92" r="3.63"/></g><g id="ranchera-02"><path class="cls-2" d="M525.73,558.13c0,7.29-10.6,13.21-10.6,13.21s-10.61-5.92-10.61-13.21,4.75-13.21,10.61-13.21S525.73,550.83,525.73,558.13Z"/><path class="cls-2" d="M529.13,582.73c-7.3,0-13.21-10.6-13.21-10.6s5.91-10.61,13.21-10.61,13.21,4.75,13.21,10.61S536.42,582.73,529.13,582.73Z"/><path class="cls-2" d="M501.13,561.52c7.29,0,13.21,10.61,13.21,10.61s-5.92,10.6-13.21,10.6-13.21-4.75-13.21-10.6S493.83,561.52,501.13,561.52Z"/><path class="cls-2" d="M504.52,586.13c0-7.3,10.61-13.21,10.61-13.21s10.6,5.91,10.6,13.21-4.74,13.21-10.6,13.21S504.52,593.42,504.52,586.13Z"/><circle class="cls-3" cx="515.13" cy="571.92" r="3.63"/></g><g id="ranchera-01"><path class="cls-2" d="M820.73,254.13c0,7.29-10.6,13.21-10.6,13.21s-10.61-5.92-10.61-13.21,4.75-13.21,10.61-13.21S820.73,246.83,820.73,254.13Z"/><path class="cls-2" d="M824.13,278.73c-7.3,0-13.21-10.6-13.21-10.6s5.91-10.61,13.21-10.61,13.21,4.75,13.21,10.61S831.42,278.73,824.13,278.73Z"/><path class="cls-2" d="M796.13,257.52c7.29,0,13.21,10.61,13.21,10.61s-5.92,10.6-13.21,10.6-13.21-4.75-13.21-10.6S788.83,257.52,796.13,257.52Z"/><path class="cls-2" d="M799.52,282.13c0-7.3,10.61-13.21,10.61-13.21s10.6,5.91,10.6,13.21-4.74,13.21-10.6,13.21S799.52,289.42,799.52,282.13Z"/><circle class="cls-3" cx="810.13" cy="267.92" r="3.63"/></g><g id="mariachi-03"><ellipse class="cls-4" cx="1375.22" cy="669.56" rx="19.95" ry="53.64"/><ellipse class="cls-4" cx="1333.28" cy="689.75" rx="19.95" ry="53.64" transform="translate(-37.28 1302.1) rotate(-51.43)"/><ellipse class="cls-4" cx="1322.92" cy="735.14" rx="53.64" ry="19.95" transform="translate(-130.41 312.81) rotate(-12.86)"/><ellipse class="cls-4" cx="1351.94" cy="771.53" rx="53.64" ry="19.95" transform="translate(70.23 1654.83) rotate(-64.29)"/><ellipse class="cls-4" cx="1398.49" cy="771.53" rx="19.95" ry="53.64" transform="translate(-196.26 683.19) rotate(-25.71)"/><ellipse class="cls-4" cx="1427.51" cy="735.14" rx="19.95" ry="53.64" transform="translate(393.16 1963.27) rotate(-77.14)"/><ellipse class="cls-4" cx="1417.15" cy="689.75" rx="53.64" ry="19.95" transform="translate(-120.88 1034.06) rotate(-38.57)"/><line class="cls-5" x1="1330.4" y1="689.75" x2="1375.95" y2="721.93"/><line class="cls-5" x1="1317.37" y1="734.71" x2="1375.95" y2="721.93"/><line class="cls-5" x1="1353.66" y1="769.53" x2="1375.95" y2="721.93"/><line class="cls-5" x1="1402.97" y1="775.28" x2="1375.95" y2="721.93"/><line class="cls-5" x1="1423.95" y1="686.65" x2="1375.95" y2="721.93"/><line class="cls-5" x1="1375.74" y1="659.77" x2="1375.95" y2="721.93"/><circle class="cls-6" cx="1437.19" cy="735.14" r="2.88"/><circle class="cls-6" cx="1375.95" cy="658.79" r="2.88"/><circle class="cls-6" cx="1314.71" cy="735.63" r="2.88"/><circle class="cls-6" cx="1330.4" cy="689.75" r="2.88"/><circle class="cls-7" cx="1375.95" cy="721.93" r="15.72"/><circle class="cls-6" cx="1351.82" cy="771.46" r="2.88"/><circle class="cls-6" cx="1403.44" cy="776.75" r="2.88"/><circle class="cls-6" cx="1424.62" cy="685.43" r="2.88"/><line class="cls-5" x1="1434.74" y1="734.25" x2="1375.95" y2="721.93"/></g><g id="mariachi-02"><ellipse class="cls-4" cx="1100.22" cy="225.56" rx="19.95" ry="53.64"/><ellipse class="cls-4" cx="1058.28" cy="245.75" rx="19.95" ry="53.64" transform="translate(206.31 919.92) rotate(-51.43)"/><ellipse class="cls-4" cx="1047.92" cy="291.14" rx="53.64" ry="19.95" transform="translate(-38.51 240.48) rotate(-12.86)"/><ellipse class="cls-4" cx="1076.94" cy="327.53" rx="53.64" ry="19.95" transform="translate(314.58 1155.71) rotate(-64.29)"/><ellipse class="cls-4" cx="1123.49" cy="327.53" rx="19.95" ry="53.64" transform="translate(-30.85 519.9) rotate(-25.71)"/><ellipse class="cls-4" cx="1152.51" cy="291.14" rx="19.95" ry="53.64" transform="translate(612.22 1349.97) rotate(-77.14)"/><ellipse class="cls-4" cx="1142.15" cy="245.75" rx="53.64" ry="19.95" transform="translate(95.96 765.74) rotate(-38.57)"/><line class="cls-5" x1="1055.4" y1="245.75" x2="1100.95" y2="277.93"/><line class="cls-5" x1="1042.37" y1="290.71" x2="1100.95" y2="277.93"/><line class="cls-5" x1="1078.66" y1="325.53" x2="1100.95" y2="277.93"/><line class="cls-5" x1="1127.97" y1="331.28" x2="1100.95" y2="277.93"/><line class="cls-5" x1="1148.95" y1="242.65" x2="1100.95" y2="277.93"/><line class="cls-5" x1="1100.74" y1="215.77" x2="1100.95" y2="277.93"/><circle class="cls-6" cx="1162.19" cy="291.14" r="2.88"/><circle class="cls-6" cx="1100.95" cy="214.79" r="2.88"/><circle class="cls-6" cx="1039.71" cy="291.63" r="2.88"/><circle class="cls-6" cx="1055.4" cy="245.75" r="2.88"/><circle class="cls-7" cx="1100.95" cy="277.93" r="15.72"/><circle class="cls-6" cx="1076.82" cy="327.46" r="2.88"/><circle class="cls-6" cx="1128.44" cy="332.75" r="2.88"/><circle class="cls-6" cx="1149.62" cy="241.43" r="2.88"/><line class="cls-5" x1="1159.74" y1="290.25" x2="1100.95" y2="277.93"/></g><g id="mariachi-01"><ellipse class="cls-4" cx="319.22" cy="813.56" rx="19.95" ry="53.64"/><ellipse class="cls-4" cx="277.28" cy="833.75" rx="19.95" ry="53.64" transform="translate(-547.46 530.7) rotate(-51.43)"/><ellipse class="cls-4" cx="266.92" cy="879.14" rx="53.64" ry="19.95" transform="translate(-188.93 81.44) rotate(-12.86)"/><ellipse class="cls-4" cx="295.94" cy="915.53" rx="53.64" ry="19.95" transform="translate(-657.33 784.93) rotate(-64.29)"/><ellipse class="cls-4" cx="342.49" cy="915.53" rx="19.95" ry="53.64" transform="translate(-363.32 239.27) rotate(-25.71)"/><ellipse class="cls-4" cx="371.51" cy="879.14" rx="19.95" ry="53.64" transform="translate(-568.25 1045.71) rotate(-77.14)"/><ellipse class="cls-4" cx="361.15" cy="833.75" rx="53.64" ry="19.95" transform="translate(-441.04 407.08) rotate(-38.57)"/><line class="cls-5" x1="274.4" y1="833.75" x2="319.95" y2="865.93"/><line class="cls-5" x1="261.37" y1="878.71" x2="319.95" y2="865.93"/><line class="cls-5" x1="297.66" y1="913.53" x2="319.95" y2="865.93"/><line class="cls-5" x1="346.97" y1="919.28" x2="319.95" y2="865.93"/><line class="cls-5" x1="367.95" y1="830.65" x2="319.95" y2="865.93"/><line class="cls-5" x1="319.74" y1="803.77" x2="319.95" y2="865.93"/><circle class="cls-6" cx="381.19" cy="879.14" r="2.88"/><circle class="cls-6" cx="319.95" cy="802.79" r="2.88"/><circle class="cls-6" cx="258.71" cy="879.63" r="2.88"/><circle class="cls-6" cx="274.4" cy="833.75" r="2.88"/><circle class="cls-7" cx="319.95" cy="865.93" r="15.72"/><circle class="cls-6" cx="295.82" cy="915.46" r="2.88"/><circle class="cls-6" cx="347.44" cy="920.75" r="2.88"/><circle class="cls-6" cx="368.62" cy="829.43" r="2.88"/><line class="cls-5" x1="378.74" y1="878.25" x2="319.95" y2="865.93"/></g><g id="norteno-06"><circle class="cls-8" cx="653.56" cy="153.79" r="3.75"/><path class="cls-9" d="M658.82,128a36.62,36.62,0,0,1-5.26,18,36.62,36.62,0,0,1-5.26-18c0-9.93,2.36-18,5.26-18S658.82,118.1,658.82,128Z"/><path class="cls-9" d="M641,130.68a36.57,36.57,0,0,1,7.54,17.16A36.55,36.55,0,0,1,633,137.44c-6.39-7.61-9.77-15.3-7.54-17.16S634.65,123.07,641,130.68Z"/><path class="cls-9" d="M629.11,144.14a36.55,36.55,0,0,1,16.8,8.3,36.49,36.49,0,0,1-18.63,2.06c-9.78-1.73-17.31-5.44-16.8-8.3S619.32,142.41,629.11,144.14Z"/><path class="cls-9" d="M628.62,162.12a36.67,36.67,0,0,1,18.22-4.45,36.61,36.61,0,0,1-13,13.56c-8.6,5-16.76,7-18.21,4.44S620,167.08,628.62,162.12Z"/><path class="cls-9" d="M639.81,176.2a36.59,36.59,0,0,1,11.1-15.11,36.64,36.64,0,0,1-1.22,18.71c-3.39,9.33-8.36,16.1-11.09,15.11S636.41,185.54,639.81,176.2Z"/><path class="cls-9" d="M657.43,179.8a36.58,36.58,0,0,1-1.21-18.71,36.52,36.52,0,0,1,11.09,15.11c3.4,9.34,4,17.71,1.22,18.71S660.83,189.13,657.43,179.8Z"/><path class="cls-9" d="M673.24,171.23a36.53,36.53,0,0,1-13-13.56,36.64,36.64,0,0,1,18.21,4.45c8.61,5,14.4,11,13,13.55S681.84,176.2,673.24,171.23Z"/><path class="cls-9" d="M679.84,154.5a36.51,36.51,0,0,1-18.63-2.06,36.55,36.55,0,0,1,16.81-8.3c9.78-1.73,18.12-.81,18.63,2.06S689.63,152.77,679.84,154.5Z"/><path class="cls-9" d="M674.15,137.44a36.62,36.62,0,0,1-15.6,10.4,36.57,36.57,0,0,1,7.54-17.16c6.39-7.61,13.37-12.27,15.59-10.4S680.54,129.83,674.15,137.44Z"/></g><g id="norteno-05"><circle class="cls-8" cx="1646.56" cy="373.79" r="3.75"/><path class="cls-9" d="M1651.82,348a36.62,36.62,0,0,1-5.26,18,36.62,36.62,0,0,1-5.26-18c0-9.93,2.36-18,5.26-18S1651.82,338.1,1651.82,348Z"/><path class="cls-9" d="M1634,350.68a36.57,36.57,0,0,1,7.54,17.16,36.55,36.55,0,0,1-15.59-10.4c-6.39-7.61-9.77-15.3-7.54-17.16S1627.65,343.07,1634,350.68Z"/><path class="cls-9" d="M1622.11,364.14a36.55,36.55,0,0,1,16.8,8.3,36.49,36.49,0,0,1-18.63,2.06c-9.78-1.73-17.31-5.44-16.8-8.3S1612.32,362.41,1622.11,364.14Z"/><path class="cls-9" d="M1621.62,382.12a36.67,36.67,0,0,1,18.22-4.45,36.61,36.61,0,0,1-13,13.56c-8.6,5-16.76,6.95-18.21,4.44S1613,387.08,1621.62,382.12Z"/><path class="cls-9" d="M1632.81,396.2a36.59,36.59,0,0,1,11.1-15.11,36.64,36.64,0,0,1-1.22,18.71c-3.39,9.33-8.36,16.1-11.09,15.11S1629.41,405.54,1632.81,396.2Z"/><path class="cls-9" d="M1650.43,399.8a36.58,36.58,0,0,1-1.21-18.71,36.52,36.52,0,0,1,11.09,15.11c3.4,9.34,4,17.71,1.22,18.71S1653.83,409.13,1650.43,399.8Z"/><path class="cls-9" d="M1666.24,391.23a36.53,36.53,0,0,1-13-13.56,36.64,36.64,0,0,1,18.21,4.45c8.61,5,14.4,11,13,13.55S1674.84,396.2,1666.24,391.23Z"/><path class="cls-9" d="M1672.84,374.5a36.51,36.51,0,0,1-18.63-2.06,36.55,36.55,0,0,1,16.81-8.3c9.78-1.73,18.12-.81,18.63,2.06S1682.63,372.77,1672.84,374.5Z"/><path class="cls-9" d="M1667.15,357.44a36.62,36.62,0,0,1-15.6,10.4,36.57,36.57,0,0,1,7.54-17.16c6.39-7.61,13.37-12.27,15.59-10.4S1673.54,349.83,1667.15,357.44Z"/></g><g id="norteno-04"><circle class="cls-8" cx="954.56" cy="568.79" r="3.75"/><path class="cls-9" d="M959.82,543a36.62,36.62,0,0,1-5.26,18,36.62,36.62,0,0,1-5.26-18c0-9.93,2.36-18,5.26-18S959.82,533.1,959.82,543Z"/><path class="cls-9" d="M942,545.68a36.57,36.57,0,0,1,7.54,17.16A36.55,36.55,0,0,1,934,552.44c-6.39-7.61-9.77-15.3-7.54-17.16S935.65,538.07,942,545.68Z"/><path class="cls-9" d="M930.11,559.14a36.55,36.55,0,0,1,16.8,8.3,36.49,36.49,0,0,1-18.63,2.06c-9.78-1.73-17.31-5.44-16.8-8.3S920.32,557.41,930.11,559.14Z"/><path class="cls-9" d="M929.62,577.12a36.67,36.67,0,0,1,18.22-4.45,36.61,36.61,0,0,1-13,13.56c-8.6,5-16.76,6.95-18.21,4.44S921,582.08,929.62,577.12Z"/><path class="cls-9" d="M940.81,591.2a36.59,36.59,0,0,1,11.1-15.11,36.64,36.64,0,0,1-1.22,18.71c-3.39,9.33-8.36,16.1-11.09,15.11S937.41,600.54,940.81,591.2Z"/><path class="cls-9" d="M958.43,594.8a36.58,36.58,0,0,1-1.21-18.71,36.52,36.52,0,0,1,11.09,15.11c3.4,9.34,4,17.71,1.22,18.71S961.83,604.13,958.43,594.8Z"/><path class="cls-9" d="M974.24,586.23a36.53,36.53,0,0,1-13-13.56,36.64,36.64,0,0,1,18.21,4.45c8.61,5,14.4,11,13,13.55S982.84,591.2,974.24,586.23Z"/><path class="cls-9" d="M980.84,569.5a36.51,36.51,0,0,1-18.63-2.06,36.55,36.55,0,0,1,16.81-8.3c9.78-1.73,18.12-.81,18.63,2.06S990.63,567.77,980.84,569.5Z"/><path class="cls-9" d="M975.15,552.44a36.62,36.62,0,0,1-15.6,10.4,36.57,36.57,0,0,1,7.54-17.16c6.39-7.61,13.37-12.27,15.59-10.4S981.54,544.83,975.15,552.44Z"/></g><g id="norteno-03"><circle class="cls-8" cx="143.56" cy="605.79" r="3.75"/><path class="cls-9" d="M148.82,580a36.62,36.62,0,0,1-5.26,18,36.62,36.62,0,0,1-5.26-18c0-9.93,2.36-18,5.26-18S148.82,570.1,148.82,580Z"/><path class="cls-9" d="M131,582.68a36.57,36.57,0,0,1,7.54,17.16A36.55,36.55,0,0,1,123,589.44c-6.39-7.61-9.77-15.3-7.54-17.16S124.65,575.07,131,582.68Z"/><path class="cls-9" d="M119.11,596.14a36.55,36.55,0,0,1,16.8,8.3,36.49,36.49,0,0,1-18.63,2.06c-9.78-1.73-17.31-5.44-16.8-8.3S109.32,594.41,119.11,596.14Z"/><path class="cls-9" d="M118.62,614.12a36.67,36.67,0,0,1,18.22-4.45,36.61,36.61,0,0,1-13,13.56c-8.6,5-16.76,6.95-18.21,4.44S110,619.08,118.62,614.12Z"/><path class="cls-9" d="M129.81,628.2a36.59,36.59,0,0,1,11.1-15.11,36.64,36.64,0,0,1-1.22,18.71c-3.39,9.33-8.36,16.1-11.09,15.11S126.41,637.54,129.81,628.2Z"/><path class="cls-9" d="M147.43,631.8a36.58,36.58,0,0,1-1.21-18.71,36.52,36.52,0,0,1,11.09,15.11c3.4,9.34,3.95,17.71,1.22,18.71S150.83,641.13,147.43,631.8Z"/><path class="cls-9" d="M163.24,623.23a36.53,36.53,0,0,1-13-13.56,36.64,36.64,0,0,1,18.21,4.45c8.61,5,14.4,11,12.95,13.55S171.84,628.2,163.24,623.23Z"/><path class="cls-9" d="M169.84,606.5a36.51,36.51,0,0,1-18.63-2.06,36.55,36.55,0,0,1,16.81-8.3c9.78-1.73,18.12-.81,18.63,2.06S179.63,604.77,169.84,606.5Z"/><path class="cls-9" d="M164.15,589.44a36.62,36.62,0,0,1-15.6,10.4,36.57,36.57,0,0,1,7.54-17.16c6.39-7.61,13.37-12.27,15.59-10.4S170.54,581.83,164.15,589.44Z"/></g><g id="norteno-02"><circle class="cls-8" cx="1425.56" cy="523.79" r="3.75"/><path class="cls-9" d="M1430.82,498a36.62,36.62,0,0,1-5.26,18,36.62,36.62,0,0,1-5.26-18c0-9.93,2.36-18,5.26-18S1430.82,488.1,1430.82,498Z"/><path class="cls-9" d="M1413,500.68a36.57,36.57,0,0,1,7.54,17.16,36.55,36.55,0,0,1-15.59-10.4c-6.39-7.61-9.77-15.3-7.54-17.16S1406.65,493.07,1413,500.68Z"/><path class="cls-9" d="M1401.11,514.14a36.55,36.55,0,0,1,16.8,8.3,36.49,36.49,0,0,1-18.63,2.06c-9.78-1.73-17.31-5.44-16.8-8.3S1391.32,512.41,1401.11,514.14Z"/><path class="cls-9" d="M1400.62,532.12a36.67,36.67,0,0,1,18.22-4.45,36.61,36.61,0,0,1-13,13.56c-8.6,5-16.76,6.95-18.21,4.44S1392,537.08,1400.62,532.12Z"/><path class="cls-9" d="M1411.81,546.2a36.59,36.59,0,0,1,11.1-15.11,36.64,36.64,0,0,1-1.22,18.71c-3.39,9.33-8.36,16.1-11.09,15.11S1408.41,555.54,1411.81,546.2Z"/><path class="cls-9" d="M1429.43,549.8a36.58,36.58,0,0,1-1.21-18.71,36.52,36.52,0,0,1,11.09,15.11c3.4,9.34,4,17.71,1.22,18.71S1432.83,559.13,1429.43,549.8Z"/><path class="cls-9" d="M1445.24,541.23a36.53,36.53,0,0,1-13-13.56,36.64,36.64,0,0,1,18.21,4.45c8.61,5,14.4,11,13,13.55S1453.84,546.2,1445.24,541.23Z"/><path class="cls-9" d="M1451.84,524.5a36.51,36.51,0,0,1-18.63-2.06,36.55,36.55,0,0,1,16.81-8.3c9.78-1.73,18.12-.81,18.63,2.06S1461.63,522.77,1451.84,524.5Z"/><path class="cls-9" d="M1446.15,507.44a36.62,36.62,0,0,1-15.6,10.4,36.57,36.57,0,0,1,7.54-17.16c6.39-7.61,13.37-12.27,15.59-10.4S1452.54,499.83,1446.15,507.44Z"/></g><g id="norteno-01"><circle class="cls-8" cx="1563.56" cy="960.79" r="3.75"/><path class="cls-9" d="M1568.82,935a36.62,36.62,0,0,1-5.26,18,36.62,36.62,0,0,1-5.26-18c0-9.93,2.36-18,5.26-18S1568.82,925.1,1568.82,935Z"/><path class="cls-9" d="M1551,937.68a36.57,36.57,0,0,1,7.54,17.16,36.55,36.55,0,0,1-15.59-10.4c-6.39-7.61-9.77-15.3-7.54-17.16S1544.65,930.07,1551,937.68Z"/><path class="cls-9" d="M1539.11,951.14a36.55,36.55,0,0,1,16.8,8.3,36.49,36.49,0,0,1-18.63,2.06c-9.78-1.73-17.31-5.44-16.8-8.3S1529.32,949.41,1539.11,951.14Z"/><path class="cls-9" d="M1538.62,969.12a36.67,36.67,0,0,1,18.22-4.45,36.61,36.61,0,0,1-13,13.56c-8.6,5-16.76,6.95-18.21,4.44S1530,974.08,1538.62,969.12Z"/><path class="cls-9" d="M1549.81,983.2a36.59,36.59,0,0,1,11.1-15.11,36.64,36.64,0,0,1-1.22,18.71c-3.39,9.33-8.36,16.1-11.09,15.11S1546.41,992.54,1549.81,983.2Z"/><path class="cls-9" d="M1567.43,986.8a36.58,36.58,0,0,1-1.21-18.71,36.52,36.52,0,0,1,11.09,15.11c3.4,9.34,4,17.71,1.22,18.71S1570.83,996.13,1567.43,986.8Z"/><path class="cls-9" d="M1583.24,978.23a36.53,36.53,0,0,1-13-13.56,36.64,36.64,0,0,1,18.21,4.45c8.61,5,14.4,11,13,13.55S1591.84,983.2,1583.24,978.23Z"/><path class="cls-9" d="M1589.84,961.5a36.51,36.51,0,0,1-18.63-2.06,36.55,36.55,0,0,1,16.81-8.3c9.78-1.73,18.12-.81,18.63,2.06S1599.63,959.77,1589.84,961.5Z"/><path class="cls-9" d="M1584.15,944.44a36.62,36.62,0,0,1-15.6,10.4,36.57,36.57,0,0,1,7.54-17.16c6.39-7.61,13.37-12.27,15.59-10.4S1590.54,936.83,1584.15,944.44Z"/></g><g id="son-huasteco-07"><ellipse class="cls-10" cx="143.96" cy="210.64" rx="10.05" ry="41.37" transform="translate(-90.68 310.83) rotate(-78.77)"/><ellipse class="cls-10" cx="153.35" cy="191.86" rx="10.05" ry="41.37" transform="translate(-91.34 170.59) rotate(-46.4)"/><ellipse class="cls-10" cx="192.25" cy="180.61" rx="41.37" ry="10.05" transform="translate(-31.92 319.63) rotate(-75.02)"/><ellipse class="cls-10" cx="172.68" cy="178.93" rx="10.05" ry="41.37" transform="translate(-38.11 47.02) rotate(-13.98)"/><circle class="cls-11" cx="138.99" cy="147.41" r="2.98"/><circle class="cls-11" cx="111.76" cy="180.92" r="2.98"/><circle class="cls-11" cx="185.28" cy="137.1" r="2.98"/><ellipse class="cls-12" cx="160.58" cy="213.48" rx="6.16" ry="25.39" transform="matrix(0.19, -0.98, 0.98, 0.19, -80.08, 329.41)"/><ellipse class="cls-12" cx="166.34" cy="201.95" rx="6.16" ry="25.39" transform="translate(-94.62 183.13) rotate(-46.4)"/><ellipse class="cls-12" cx="190.21" cy="195.04" rx="25.39" ry="6.16" transform="translate(-47.38 328.36) rotate(-75.02)"/><ellipse class="cls-12" cx="178.2" cy="194.01" rx="6.17" ry="25.39" transform="translate(-41.59 48.8) rotate(-13.98)"/></g><g id="son-huasteco-06"><ellipse class="cls-10" cx="606.98" cy="450.02" rx="10.05" ry="41.37" transform="matrix(0.86, -0.52, 0.52, 0.86, -145.13, 377.41)"/><ellipse class="cls-10" cx="627.19" cy="444.34" rx="41.37" ry="10.05" transform="translate(168.38 1061.02) rotate(-88.67)"/><ellipse class="cls-10" cx="661.69" cy="465.55" rx="41.37" ry="10.05" transform="translate(-139.8 355.14) rotate(-27.29)"/><ellipse class="cls-10" cx="649.76" cy="449.94" rx="41.37" ry="10.05" transform="translate(-85.34 740.22) rotate(-56.25)"/><circle class="cls-11" cx="650.42" cy="403.81" r="2.98"/><circle class="cls-11" cx="607.31" cy="406.2" r="2.98"/><circle class="cls-11" cx="689.19" cy="431.13" r="2.98"/><ellipse class="cls-12" cx="616.06" cy="464.22" rx="6.16" ry="25.39" transform="translate(-151.15 384.12) rotate(-31.04)"/><ellipse class="cls-12" cx="628.46" cy="460.73" rx="25.39" ry="6.16" transform="translate(153.22 1078.3) rotate(-88.67)"/><ellipse class="cls-12" cx="649.63" cy="473.75" rx="25.39" ry="6.16" transform="translate(-144.9 350.53) rotate(-27.29)"/><ellipse class="cls-12" cx="642.31" cy="464.17" rx="25.39" ry="6.16" transform="translate(-100.48 740.35) rotate(-56.25)"/></g><g id="son-huasteco-05"><ellipse class="cls-10" cx="1279.39" cy="497.7" rx="10.05" ry="41.37" transform="translate(464 1602.1) rotate(-74.82)"/><ellipse class="cls-10" cx="1290.05" cy="479.61" rx="10.05" ry="41.37" transform="translate(14.41 996.33) rotate(-42.44)"/><ellipse class="cls-10" cx="1329.63" cy="471.06" rx="41.37" ry="10.05" transform="translate(452.6 1575.89) rotate(-71.06)"/><ellipse class="cls-10" cx="1310.22" cy="468.04" rx="10.05" ry="41.37" transform="translate(-61.48 235.3) rotate(-10.03)"/><circle class="cls-11" cx="1278.78" cy="434.28" r="2.98"/><circle class="cls-11" cx="1249.31" cy="465.83" r="2.98"/><circle class="cls-11" cx="1325.67" cy="427.18" r="2.98"/><ellipse class="cls-12" cx="1295.77" cy="501.67" rx="6.16" ry="25.39" transform="translate(472.26 1620.84) rotate(-74.82)"/><ellipse class="cls-12" cx="1302.31" cy="490.57" rx="6.16" ry="25.39" transform="translate(10.22 1007.47) rotate(-42.44)"/><ellipse class="cls-12" cx="1326.6" cy="485.33" rx="25.39" ry="6.16" transform="translate(437.06 1582.66) rotate(-71.06)"/><ellipse class="cls-12" cx="1314.69" cy="483.47" rx="6.16" ry="25.39" transform="translate(-64.1 236.32) rotate(-10.03)"/></g><g id="son-huasteco-04"><ellipse class="cls-10" cx="1756.97" cy="694.27" rx="10.05" ry="41.37" transform="translate(-122.85 881.95) rotate(-27.26)"/><ellipse class="cls-10" cx="1777.52" cy="689.93" rx="41.37" ry="10.05" transform="translate(932.01 2398.93) rotate(-84.89)"/><ellipse class="cls-10" cx="1810.54" cy="713.37" rx="41.37" ry="10.05" transform="translate(-134.28 781.46) rotate(-23.51)"/><ellipse class="cls-10" cx="1799.67" cy="697.01" rx="41.37" ry="10.05" transform="translate(150.66 1699.7) rotate(-52.47)"/><circle class="cls-11" cx="1803.36" cy="651.02" r="2.98"/><circle class="cls-11" cx="1760.19" cy="650.57" r="2.98"/><circle class="cls-11" cx="1840.25" cy="680.83" r="2.98"/><ellipse class="cls-12" cx="1765.1" cy="709.04" rx="6.16" ry="25.39" transform="translate(-128.72 887.31) rotate(-27.26)"/><ellipse class="cls-12" cx="1777.7" cy="706.38" rx="25.39" ry="6.16" transform="translate(915.8 2414.1) rotate(-84.89)"/><ellipse class="cls-12" cx="1797.97" cy="720.76" rx="25.39" ry="6.16" transform="translate(-138.27 777.05) rotate(-23.51)"/><ellipse class="cls-12" cx="1791.3" cy="710.72" rx="25.39" ry="6.16" transform="translate(136.51 1698.42) rotate(-52.47)"/></g><g id="son-huasteco-03"><ellipse class="cls-10" cx="281.14" cy="581.26" rx="10.05" ry="41.37" transform="translate(-344.06 419.94) rotate(-49.72)"/><ellipse class="cls-10" cx="298.47" cy="569.4" rx="10.05" ry="41.37" transform="translate(-156.19 114.89) rotate(-17.35)"/><ellipse class="cls-10" cx="337.94" cy="578.45" rx="41.37" ry="10.05" transform="translate(-312.82 419.34) rotate(-45.97)"/><ellipse class="cls-10" cx="321.65" cy="567.48" rx="41.37" ry="10.05" transform="translate(-309.94 730.52) rotate(-74.93)"/><circle class="cls-11" cx="307.5" cy="523.57" r="2.98"/><circle class="cls-11" cx="267.43" cy="539.64" r="2.98"/><circle class="cls-11" cx="352.97" cy="537.03" r="2.98"/><ellipse class="cls-12" cx="294.29" cy="591.8" rx="6.16" ry="25.39" transform="translate(-347.46 433.7) rotate(-49.72)"/><ellipse class="cls-12" cx="304.93" cy="584.53" rx="6.16" ry="25.39" transform="translate(-160.41 117.5) rotate(-17.35)"/><ellipse class="cls-12" cx="329.15" cy="590.08" rx="25.39" ry="6.16" transform="translate(-323.86 416.56) rotate(-45.97)"/><ellipse class="cls-12" cx="319.15" cy="583.35" rx="25.39" ry="6.16" transform="translate(-327.12 739.85) rotate(-74.93)"/></g><g id="son-huasteco-02"><ellipse class="cls-10" cx="1460.14" cy="183.36" rx="10.05" ry="41.37" transform="translate(249.19 1019.56) rotate(-41.78)"/><ellipse class="cls-10" cx="1478.94" cy="174" rx="10.05" ry="41.37" transform="translate(-8.55 244.17) rotate(-9.41)"/><ellipse class="cls-10" cx="1516.78" cy="188.42" rx="41.37" ry="10.05" transform="translate(205.96 974.47) rotate(-38.03)"/><ellipse class="cls-10" cx="1502.16" cy="175.3" rx="41.37" ry="10.05" transform="translate(753.72 1489.47) rotate(-66.99)"/><circle class="cls-11" cx="1494.2" cy="129.86" r="2.98"/><circle class="cls-11" cx="1452.3" cy="140.24" r="2.98"/><circle class="cls-11" cx="1537.38" cy="149.47" r="2.98"/><ellipse class="cls-12" cx="1471.7" cy="195.62" rx="6.16" ry="25.39" transform="translate(243.96 1030.38) rotate(-41.78)"/><ellipse class="cls-12" cx="1483.24" cy="189.88" rx="6.16" ry="25.39" transform="translate(-11.08 245.09) rotate(-9.41)"/><ellipse class="cls-12" cx="1506.46" cy="198.72" rx="25.39" ry="6.16" transform="translate(197.43 970.31) rotate(-38.03)"/><ellipse class="cls-12" cx="1497.49" cy="190.67" rx="25.39" ry="6.16" transform="translate(736.73 1494.54) rotate(-66.99)"/></g><g id="son-huasteco-01"><ellipse class="cls-10" cx="1008.14" cy="828.36" rx="10.05" ry="41.37" transform="translate(-295.55 882.43) rotate(-41.78)"/><ellipse class="cls-10" cx="1026.94" cy="819" rx="10.05" ry="41.37" transform="translate(-120.1 178.94) rotate(-9.41)"/><ellipse class="cls-10" cx="1064.78" cy="833.42" rx="41.37" ry="10.05" transform="translate(-287.38 832.95) rotate(-38.03)"/><ellipse class="cls-10" cx="1050.16" cy="820.3" rx="41.37" ry="10.05" transform="translate(-115.33 1466.34) rotate(-66.99)"/><circle class="cls-11" cx="1042.2" cy="774.86" r="2.98"/><circle class="cls-11" cx="1000.3" cy="785.24" r="2.98"/><circle class="cls-11" cx="1085.38" cy="794.47" r="2.98"/><ellipse class="cls-12" cx="1019.7" cy="840.62" rx="6.16" ry="25.39" transform="translate(-300.78 893.25) rotate(-41.78)"/><ellipse class="cls-12" cx="1031.24" cy="834.88" rx="6.16" ry="25.39" transform="translate(-122.64 179.86) rotate(-9.41)"/><ellipse class="cls-12" cx="1054.46" cy="843.72" rx="25.39" ry="6.16" transform="translate(-295.92 828.78) rotate(-38.03)"/><ellipse class="cls-12" cx="1045.49" cy="835.67" rx="25.39" ry="6.16" transform="translate(-132.32 1471.41) rotate(-66.99)"/></g><g id="corridos-10"><circle class="cls-13" cx="1104.89" cy="538" r="9.22"/><path class="cls-14" d="M1108.62,526.14c0,3.4-3.73,6.15-3.73,6.15s-3.73-2.75-3.73-6.15,3.73-6.14,3.73-6.14S1108.62,522.75,1108.62,526.14Z"/><path class="cls-14" d="M1102.21,525.92c1.7,2.94-.16,7.19-.16,7.19s-4.61-.52-6.3-3.46.16-7.19.16-7.19S1100.51,523,1102.21,525.92Z"/><path class="cls-14" d="M1096.55,528.93c2.94,1.7,3.45,6.31,3.45,6.31s-4.25,1.85-7.19.16-3.45-6.31-3.45-6.31S1093.61,527.24,1096.55,528.93Z"/><path class="cls-14" d="M1093.15,534.37c3.39,0,6.14,3.74,6.14,3.74s-2.75,3.73-6.14,3.73-6.15-3.73-6.15-3.73S1089.75,534.37,1093.15,534.37Z"/><path class="cls-14" d="M1092.92,540.79c2.94-1.7,7.19.16,7.19.16s-.51,4.6-3.45,6.3-7.19-.16-7.19-.16S1090,542.48,1092.92,540.79Z"/><path class="cls-14" d="M1095.94,546.45c1.69-2.94,6.3-3.46,6.3-3.46s1.86,4.25.16,7.19-6.3,3.46-6.3,3.46S1094.24,549.39,1095.94,546.45Z"/><path class="cls-14" d="M1101.38,549.85c0-3.39,3.73-6.15,3.73-6.15s3.73,2.76,3.73,6.15-3.73,6.15-3.73,6.15S1101.38,553.24,1101.38,549.85Z"/><path class="cls-14" d="M1107.79,550.07c-1.7-2.94.16-7.19.16-7.19s4.61.52,6.3,3.46-.15,7.19-.15,7.19S1109.49,553,1107.79,550.07Z"/><path class="cls-14" d="M1113.46,547.06c-2.94-1.7-3.46-6.3-3.46-6.3s4.25-1.86,7.19-.16,3.45,6.3,3.45,6.3S1116.4,548.76,1113.46,547.06Z"/><path class="cls-14" d="M1116.85,541.62c-3.39,0-6.14-3.73-6.14-3.73s2.75-3.73,6.14-3.73,6.15,3.73,6.15,3.73S1120.25,541.62,1116.85,541.62Z"/><path class="cls-14" d="M1117.08,535.21c-2.94,1.69-7.19-.16-7.19-.16s.52-4.61,3.46-6.31,7.18.16,7.18.16S1120,533.51,1117.08,535.21Z"/><path class="cls-14" d="M1114.06,529.54c-1.69,2.94-6.3,3.46-6.3,3.46s-1.86-4.25-.16-7.19,6.31-3.46,6.31-3.46S1115.76,526.6,1114.06,529.54Z"/></g><g id="corridos-09"><circle class="cls-13" cx="1223.89" cy="81" r="9.22"/><path class="cls-14" d="M1227.62,69.14c0,3.4-3.73,6.15-3.73,6.15s-3.73-2.75-3.73-6.15,3.73-6.14,3.73-6.14S1227.62,65.75,1227.62,69.14Z"/><path class="cls-14" d="M1221.21,68.92c1.7,2.94-.16,7.19-.16,7.19s-4.61-.52-6.3-3.46.16-7.19.16-7.19S1219.51,66,1221.21,68.92Z"/><path class="cls-14" d="M1215.55,71.93c2.94,1.7,3.45,6.31,3.45,6.31s-4.25,1.85-7.19.16-3.45-6.31-3.45-6.31S1212.61,70.24,1215.55,71.93Z"/><path class="cls-14" d="M1212.15,77.37c3.39,0,6.14,3.74,6.14,3.74s-2.75,3.73-6.14,3.73-6.15-3.73-6.15-3.73S1208.75,77.37,1212.15,77.37Z"/><path class="cls-14" d="M1211.92,83.79c2.94-1.7,7.19.16,7.19.16s-.51,4.6-3.45,6.3-7.19-.16-7.19-.16S1209,85.48,1211.92,83.79Z"/><path class="cls-14" d="M1214.94,89.45c1.69-2.94,6.3-3.46,6.3-3.46s1.86,4.25.16,7.19-6.3,3.46-6.3,3.46S1213.24,92.39,1214.94,89.45Z"/><path class="cls-14" d="M1220.38,92.85c0-3.39,3.73-6.15,3.73-6.15s3.73,2.76,3.73,6.15-3.73,6.15-3.73,6.15S1220.38,96.24,1220.38,92.85Z"/><path class="cls-14" d="M1226.79,93.07c-1.7-2.94.16-7.19.16-7.19s4.61.52,6.3,3.46-.15,7.19-.15,7.19S1228.49,96,1226.79,93.07Z"/><path class="cls-14" d="M1232.46,90.06c-2.94-1.7-3.46-6.3-3.46-6.3s4.25-1.86,7.19-.16,3.45,6.3,3.45,6.3S1235.4,91.76,1232.46,90.06Z"/><path class="cls-14" d="M1235.85,84.62c-3.39,0-6.14-3.73-6.14-3.73s2.75-3.73,6.14-3.73,6.15,3.73,6.15,3.73S1239.25,84.62,1235.85,84.62Z"/><path class="cls-14" d="M1236.08,78.21c-2.94,1.69-7.19-.16-7.19-.16s.52-4.61,3.46-6.31,7.18.16,7.18.16S1239,76.51,1236.08,78.21Z"/><path class="cls-14" d="M1233.06,72.54c-1.69,2.94-6.3,3.46-6.3,3.46s-1.86-4.25-.16-7.19,6.31-3.46,6.31-3.46S1234.76,69.6,1233.06,72.54Z"/></g><g id="corridos-08"><circle class="cls-13" cx="305.89" cy="77" r="9.22"/><path class="cls-14" d="M309.62,65.14c0,3.4-3.73,6.15-3.73,6.15s-3.73-2.75-3.73-6.15S305.89,59,305.89,59,309.62,61.75,309.62,65.14Z"/><path class="cls-14" d="M303.21,64.92c1.7,2.94-.16,7.19-.16,7.19s-4.61-.52-6.3-3.46.16-7.19.16-7.19S301.51,62,303.21,64.92Z"/><path class="cls-14" d="M297.55,67.93c2.94,1.7,3.45,6.31,3.45,6.31s-4.25,1.85-7.19.16-3.45-6.31-3.45-6.31S294.61,66.24,297.55,67.93Z"/><path class="cls-14" d="M294.15,73.37c3.39,0,6.14,3.74,6.14,3.74s-2.75,3.73-6.14,3.73S288,77.11,288,77.11,290.75,73.37,294.15,73.37Z"/><path class="cls-14" d="M293.92,79.79c2.94-1.7,7.19.16,7.19.16s-.51,4.6-3.45,6.3-7.19-.16-7.19-.16S291,81.48,293.92,79.79Z"/><path class="cls-14" d="M296.94,85.45c1.69-2.94,6.3-3.46,6.3-3.46s1.86,4.25.16,7.19-6.3,3.46-6.3,3.46S295.24,88.39,296.94,85.45Z"/><path class="cls-14" d="M302.38,88.85c0-3.39,3.73-6.15,3.73-6.15s3.73,2.76,3.73,6.15S306.11,95,306.11,95,302.38,92.24,302.38,88.85Z"/><path class="cls-14" d="M308.79,89.07c-1.7-2.94.16-7.19.16-7.19s4.61.52,6.3,3.46-.15,7.19-.15,7.19S310.49,92,308.79,89.07Z"/><path class="cls-14" d="M314.46,86.06c-2.94-1.7-3.46-6.3-3.46-6.3s4.25-1.86,7.19-.16,3.45,6.3,3.45,6.3S317.4,87.76,314.46,86.06Z"/><path class="cls-14" d="M317.85,80.62c-3.39,0-6.14-3.73-6.14-3.73s2.75-3.73,6.14-3.73S324,76.89,324,76.89,321.25,80.62,317.85,80.62Z"/><path class="cls-14" d="M318.08,74.21c-2.94,1.69-7.19-.16-7.19-.16s.52-4.61,3.46-6.31,7.18.16,7.18.16S321,72.51,318.08,74.21Z"/><path class="cls-14" d="M315.06,68.54c-1.69,2.94-6.3,3.46-6.3,3.46s-1.86-4.25-.16-7.19,6.31-3.46,6.31-3.46S316.76,65.6,315.06,68.54Z"/></g><g id="corridos-07"><circle class="cls-13" cx="605.89" cy="687" r="9.22"/><path class="cls-14" d="M609.62,675.14c0,3.4-3.73,6.15-3.73,6.15s-3.73-2.75-3.73-6.15,3.73-6.14,3.73-6.14S609.62,671.75,609.62,675.14Z"/><path class="cls-14" d="M603.21,674.92c1.7,2.94-.16,7.19-.16,7.19s-4.61-.52-6.3-3.46.16-7.19.16-7.19S601.51,672,603.21,674.92Z"/><path class="cls-14" d="M597.55,677.93c2.94,1.7,3.45,6.31,3.45,6.31s-4.25,1.85-7.19.16-3.45-6.31-3.45-6.31S594.61,676.24,597.55,677.93Z"/><path class="cls-14" d="M594.15,683.37c3.39,0,6.14,3.74,6.14,3.74s-2.75,3.73-6.14,3.73-6.15-3.73-6.15-3.73S590.75,683.37,594.15,683.37Z"/><path class="cls-14" d="M593.92,689.79c2.94-1.7,7.19.16,7.19.16s-.51,4.6-3.45,6.3-7.19-.16-7.19-.16S591,691.48,593.92,689.79Z"/><path class="cls-14" d="M596.94,695.45c1.69-2.94,6.3-3.46,6.3-3.46s1.86,4.25.16,7.19-6.3,3.46-6.3,3.46S595.24,698.39,596.94,695.45Z"/><path class="cls-14" d="M602.38,698.85c0-3.39,3.73-6.15,3.73-6.15s3.73,2.76,3.73,6.15-3.73,6.15-3.73,6.15S602.38,702.24,602.38,698.85Z"/><path class="cls-14" d="M608.79,699.07c-1.7-2.94.16-7.19.16-7.19s4.61.52,6.3,3.46-.15,7.19-.15,7.19S610.49,702,608.79,699.07Z"/><path class="cls-14" d="M614.46,696.06c-2.94-1.7-3.46-6.3-3.46-6.3s4.25-1.86,7.19-.16,3.45,6.3,3.45,6.3S617.4,697.76,614.46,696.06Z"/><path class="cls-14" d="M617.85,690.62c-3.39,0-6.14-3.73-6.14-3.73s2.75-3.73,6.14-3.73,6.15,3.73,6.15,3.73S621.25,690.62,617.85,690.62Z"/><path class="cls-14" d="M618.08,684.21c-2.94,1.69-7.19-.16-7.19-.16s.52-4.61,3.46-6.31,7.18.16,7.18.16S621,682.51,618.08,684.21Z"/><path class="cls-14" d="M615.06,678.54c-1.69,2.94-6.3,3.46-6.3,3.46s-1.86-4.25-.16-7.19,6.31-3.46,6.31-3.46S616.76,675.6,615.06,678.54Z"/></g><g id="corridos-06"><circle class="cls-13" cx="1603.89" cy="97" r="9.22"/><path class="cls-14" d="M1607.62,85.14c0,3.4-3.73,6.15-3.73,6.15s-3.73-2.75-3.73-6.15,3.73-6.14,3.73-6.14S1607.62,81.75,1607.62,85.14Z"/><path class="cls-14" d="M1601.21,84.92c1.7,2.94-.16,7.19-.16,7.19s-4.61-.52-6.3-3.46.16-7.19.16-7.19S1599.51,82,1601.21,84.92Z"/><path class="cls-14" d="M1595.55,87.93c2.94,1.7,3.45,6.31,3.45,6.31s-4.25,1.85-7.19.16-3.45-6.31-3.45-6.31S1592.61,86.24,1595.55,87.93Z"/><path class="cls-14" d="M1592.15,93.37c3.39,0,6.14,3.74,6.14,3.74s-2.75,3.73-6.14,3.73-6.15-3.73-6.15-3.73S1588.75,93.37,1592.15,93.37Z"/><path class="cls-14" d="M1591.92,99.79c2.94-1.7,7.19.16,7.19.16s-.51,4.6-3.45,6.3-7.19-.16-7.19-.16S1589,101.48,1591.92,99.79Z"/><path class="cls-14" d="M1594.94,105.45c1.69-2.94,6.3-3.46,6.3-3.46s1.86,4.25.16,7.19-6.3,3.46-6.3,3.46S1593.24,108.39,1594.94,105.45Z"/><path class="cls-14" d="M1600.38,108.85c0-3.39,3.73-6.15,3.73-6.15s3.73,2.76,3.73,6.15-3.73,6.15-3.73,6.15S1600.38,112.24,1600.38,108.85Z"/><path class="cls-14" d="M1606.79,109.07c-1.7-2.94.16-7.19.16-7.19s4.61.52,6.3,3.46-.15,7.19-.15,7.19S1608.49,112,1606.79,109.07Z"/><path class="cls-14" d="M1612.46,106.06c-2.94-1.7-3.46-6.3-3.46-6.3s4.25-1.86,7.19-.16,3.45,6.3,3.45,6.3S1615.4,107.76,1612.46,106.06Z"/><path class="cls-14" d="M1615.85,100.62c-3.39,0-6.14-3.73-6.14-3.73s2.75-3.73,6.14-3.73,6.15,3.73,6.15,3.73S1619.25,100.62,1615.85,100.62Z"/><path class="cls-14" d="M1616.08,94.21c-2.94,1.69-7.19-.16-7.19-.16s.52-4.61,3.46-6.31,7.18.16,7.18.16S1619,92.51,1616.08,94.21Z"/><path class="cls-14" d="M1613.06,88.54c-1.69,2.94-6.3,3.46-6.3,3.46s-1.86-4.25-.16-7.19,6.31-3.46,6.31-3.46S1614.76,85.6,1613.06,88.54Z"/></g><g id="corridos-05"><circle class="cls-13" cx="847.89" cy="466" r="9.22"/><path class="cls-14" d="M851.62,454.14c0,3.4-3.73,6.15-3.73,6.15s-3.73-2.75-3.73-6.15,3.73-6.14,3.73-6.14S851.62,450.75,851.62,454.14Z"/><path class="cls-14" d="M845.21,453.92c1.7,2.94-.16,7.19-.16,7.19s-4.61-.52-6.3-3.46.16-7.19.16-7.19S843.51,451,845.21,453.92Z"/><path class="cls-14" d="M839.55,456.93c2.94,1.7,3.45,6.31,3.45,6.31s-4.25,1.85-7.19.16-3.45-6.31-3.45-6.31S836.61,455.24,839.55,456.93Z"/><path class="cls-14" d="M836.15,462.37c3.39,0,6.14,3.74,6.14,3.74s-2.75,3.73-6.14,3.73-6.15-3.73-6.15-3.73S832.75,462.37,836.15,462.37Z"/><path class="cls-14" d="M835.92,468.79c2.94-1.7,7.19.16,7.19.16s-.51,4.6-3.45,6.3-7.19-.16-7.19-.16S833,470.48,835.92,468.79Z"/><path class="cls-14" d="M838.94,474.45c1.69-2.94,6.3-3.46,6.3-3.46s1.86,4.25.16,7.19-6.3,3.46-6.3,3.46S837.24,477.39,838.94,474.45Z"/><path class="cls-14" d="M844.38,477.85c0-3.39,3.73-6.15,3.73-6.15s3.73,2.76,3.73,6.15-3.73,6.15-3.73,6.15S844.38,481.24,844.38,477.85Z"/><path class="cls-14" d="M850.79,478.07c-1.7-2.94.16-7.19.16-7.19s4.61.52,6.3,3.46-.15,7.19-.15,7.19S852.49,481,850.79,478.07Z"/><path class="cls-14" d="M856.46,475.06c-2.94-1.7-3.46-6.3-3.46-6.3s4.25-1.86,7.19-.16,3.45,6.3,3.45,6.3S859.4,476.76,856.46,475.06Z"/><path class="cls-14" d="M859.85,469.62c-3.39,0-6.14-3.73-6.14-3.73s2.75-3.73,6.14-3.73,6.15,3.73,6.15,3.73S863.25,469.62,859.85,469.62Z"/><path class="cls-14" d="M860.08,463.21c-2.94,1.69-7.19-.16-7.19-.16s.52-4.61,3.46-6.31,7.18.16,7.18.16S863,461.51,860.08,463.21Z"/><path class="cls-14" d="M857.06,457.54c-1.69,2.94-6.3,3.46-6.3,3.46s-1.86-4.25-.16-7.19,6.31-3.46,6.31-3.46S858.76,454.6,857.06,457.54Z"/></g><g id="corridos-04"><circle class="cls-13" cx="283.89" cy="414" r="9.22"/><path class="cls-14" d="M287.62,402.14c0,3.4-3.73,6.15-3.73,6.15s-3.73-2.75-3.73-6.15,3.73-6.14,3.73-6.14S287.62,398.75,287.62,402.14Z"/><path class="cls-14" d="M281.21,401.92c1.7,2.94-.16,7.19-.16,7.19s-4.61-.52-6.3-3.46.16-7.19.16-7.19S279.51,399,281.21,401.92Z"/><path class="cls-14" d="M275.55,404.93c2.94,1.7,3.45,6.31,3.45,6.31s-4.25,1.85-7.19.16-3.45-6.31-3.45-6.31S272.61,403.24,275.55,404.93Z"/><path class="cls-14" d="M272.15,410.37c3.39,0,6.14,3.74,6.14,3.74s-2.75,3.73-6.14,3.73-6.15-3.73-6.15-3.73S268.75,410.37,272.15,410.37Z"/><path class="cls-14" d="M271.92,416.79c2.94-1.7,7.19.16,7.19.16s-.51,4.6-3.45,6.3-7.19-.16-7.19-.16S269,418.48,271.92,416.79Z"/><path class="cls-14" d="M274.94,422.45c1.69-2.94,6.3-3.46,6.3-3.46s1.86,4.25.16,7.19-6.3,3.46-6.3,3.46S273.24,425.39,274.94,422.45Z"/><path class="cls-14" d="M280.38,425.85c0-3.39,3.73-6.15,3.73-6.15s3.73,2.76,3.73,6.15-3.73,6.15-3.73,6.15S280.38,429.24,280.38,425.85Z"/><path class="cls-14" d="M286.79,426.07c-1.7-2.94.16-7.19.16-7.19s4.61.52,6.3,3.46-.15,7.19-.15,7.19S288.49,429,286.79,426.07Z"/><path class="cls-14" d="M292.46,423.06c-2.94-1.7-3.46-6.3-3.46-6.3s4.25-1.86,7.19-.16,3.45,6.3,3.45,6.3S295.4,424.76,292.46,423.06Z"/><path class="cls-14" d="M295.85,417.62c-3.39,0-6.14-3.73-6.14-3.73s2.75-3.73,6.14-3.73,6.15,3.73,6.15,3.73S299.25,417.62,295.85,417.62Z"/><path class="cls-14" d="M296.08,411.21c-2.94,1.69-7.19-.16-7.19-.16s.52-4.61,3.46-6.31,7.18.16,7.18.16S299,409.51,296.08,411.21Z"/><path class="cls-14" d="M293.06,405.54c-1.69,2.94-6.3,3.46-6.3,3.46s-1.86-4.25-.16-7.19,6.31-3.46,6.31-3.46S294.76,402.6,293.06,405.54Z"/></g><g id="corridos-03"><circle class="cls-13" cx="1572.89" cy="747" r="9.22"/><path class="cls-14" d="M1576.62,735.14c0,3.4-3.73,6.15-3.73,6.15s-3.73-2.75-3.73-6.15,3.73-6.14,3.73-6.14S1576.62,731.75,1576.62,735.14Z"/><path class="cls-14" d="M1570.21,734.92c1.7,2.94-.16,7.19-.16,7.19s-4.61-.52-6.3-3.46.16-7.19.16-7.19S1568.51,732,1570.21,734.92Z"/><path class="cls-14" d="M1564.55,737.93c2.94,1.7,3.45,6.31,3.45,6.31s-4.25,1.85-7.19.16-3.45-6.31-3.45-6.31S1561.61,736.24,1564.55,737.93Z"/><path class="cls-14" d="M1561.15,743.37c3.39,0,6.14,3.74,6.14,3.74s-2.75,3.73-6.14,3.73-6.15-3.73-6.15-3.73S1557.75,743.37,1561.15,743.37Z"/><path class="cls-14" d="M1560.92,749.79c2.94-1.7,7.19.16,7.19.16s-.51,4.6-3.45,6.3-7.19-.16-7.19-.16S1558,751.48,1560.92,749.79Z"/><path class="cls-14" d="M1563.94,755.45c1.69-2.94,6.3-3.46,6.3-3.46s1.86,4.25.16,7.19-6.3,3.46-6.3,3.46S1562.24,758.39,1563.94,755.45Z"/><path class="cls-14" d="M1569.38,758.85c0-3.39,3.73-6.15,3.73-6.15s3.73,2.76,3.73,6.15-3.73,6.15-3.73,6.15S1569.38,762.24,1569.38,758.85Z"/><path class="cls-14" d="M1575.79,759.07c-1.7-2.94.16-7.19.16-7.19s4.61.52,6.3,3.46-.15,7.19-.15,7.19S1577.49,762,1575.79,759.07Z"/><path class="cls-14" d="M1581.46,756.06c-2.94-1.7-3.46-6.3-3.46-6.3s4.25-1.86,7.19-.16,3.45,6.3,3.45,6.3S1584.4,757.76,1581.46,756.06Z"/><path class="cls-14" d="M1584.85,750.62c-3.39,0-6.14-3.73-6.14-3.73s2.75-3.73,6.14-3.73,6.15,3.73,6.15,3.73S1588.25,750.62,1584.85,750.62Z"/><path class="cls-14" d="M1585.08,744.21c-2.94,1.69-7.19-.16-7.19-.16s.52-4.61,3.46-6.31,7.18.16,7.18.16S1588,742.51,1585.08,744.21Z"/><path class="cls-14" d="M1582.06,738.54c-1.69,2.94-6.3,3.46-6.3,3.46s-1.86-4.25-.16-7.19,6.31-3.46,6.31-3.46S1583.76,735.6,1582.06,738.54Z"/></g><g id="corridos-02"><circle class="cls-13" cx="908.89" cy="965" r="9.22"/><path class="cls-14" d="M912.62,953.14c0,3.4-3.73,6.15-3.73,6.15s-3.73-2.75-3.73-6.15,3.73-6.14,3.73-6.14S912.62,949.75,912.62,953.14Z"/><path class="cls-14" d="M906.21,952.92c1.7,2.94-.16,7.19-.16,7.19s-4.61-.52-6.3-3.46.16-7.19.16-7.19S904.51,950,906.21,952.92Z"/><path class="cls-14" d="M900.55,955.93c2.94,1.7,3.45,6.31,3.45,6.31s-4.25,1.85-7.19.16-3.45-6.31-3.45-6.31S897.61,954.24,900.55,955.93Z"/><path class="cls-14" d="M897.15,961.37c3.39,0,6.14,3.74,6.14,3.74s-2.75,3.73-6.14,3.73-6.15-3.73-6.15-3.73S893.75,961.37,897.15,961.37Z"/><path class="cls-14" d="M896.92,967.79c2.94-1.7,7.19.16,7.19.16s-.51,4.6-3.45,6.3-7.19-.16-7.19-.16S894,969.48,896.92,967.79Z"/><path class="cls-14" d="M899.94,973.45c1.69-2.94,6.3-3.46,6.3-3.46s1.86,4.25.16,7.19-6.3,3.46-6.3,3.46S898.24,976.39,899.94,973.45Z"/><path class="cls-14" d="M905.38,976.85c0-3.39,3.73-6.15,3.73-6.15s3.73,2.76,3.73,6.15-3.73,6.15-3.73,6.15S905.38,980.24,905.38,976.85Z"/><path class="cls-14" d="M911.79,977.07c-1.7-2.94.16-7.19.16-7.19s4.61.52,6.3,3.46-.15,7.19-.15,7.19S913.49,980,911.79,977.07Z"/><path class="cls-14" d="M917.46,974.06c-2.94-1.7-3.46-6.3-3.46-6.3s4.25-1.86,7.19-.16,3.45,6.3,3.45,6.3S920.4,975.76,917.46,974.06Z"/><path class="cls-14" d="M920.85,968.62c-3.39,0-6.14-3.73-6.14-3.73s2.75-3.73,6.14-3.73,6.15,3.73,6.15,3.73S924.25,968.62,920.85,968.62Z"/><path class="cls-14" d="M921.08,962.21c-2.94,1.69-7.19-.16-7.19-.16s.52-4.61,3.46-6.31,7.18.16,7.18.16S924,960.51,921.08,962.21Z"/><path class="cls-14" d="M918.06,956.54c-1.69,2.94-6.3,3.46-6.3,3.46s-1.86-4.25-.16-7.19,6.31-3.46,6.31-3.46S919.76,953.6,918.06,956.54Z"/></g><g id="corridos-01"><circle class="cls-13" cx="1385.89" cy="328" r="9.22"/><path class="cls-14" d="M1389.62,316.14c0,3.4-3.73,6.15-3.73,6.15s-3.73-2.75-3.73-6.15,3.73-6.14,3.73-6.14S1389.62,312.75,1389.62,316.14Z"/><path class="cls-14" d="M1383.21,315.92c1.7,2.94-.16,7.19-.16,7.19s-4.61-.52-6.3-3.46.16-7.19.16-7.19S1381.51,313,1383.21,315.92Z"/><path class="cls-14" d="M1377.55,318.93c2.94,1.7,3.45,6.31,3.45,6.31s-4.25,1.85-7.19.16-3.45-6.31-3.45-6.31S1374.61,317.24,1377.55,318.93Z"/><path class="cls-14" d="M1374.15,324.37c3.39,0,6.14,3.74,6.14,3.74s-2.75,3.73-6.14,3.73-6.15-3.73-6.15-3.73S1370.75,324.37,1374.15,324.37Z"/><path class="cls-14" d="M1373.92,330.79c2.94-1.7,7.19.16,7.19.16s-.51,4.6-3.45,6.3-7.19-.16-7.19-.16S1371,332.48,1373.92,330.79Z"/><path class="cls-14" d="M1376.94,336.45c1.69-2.94,6.3-3.46,6.3-3.46s1.86,4.25.16,7.19-6.3,3.46-6.3,3.46S1375.24,339.39,1376.94,336.45Z"/><path class="cls-14" d="M1382.38,339.85c0-3.39,3.73-6.15,3.73-6.15s3.73,2.76,3.73,6.15-3.73,6.15-3.73,6.15S1382.38,343.24,1382.38,339.85Z"/><path class="cls-14" d="M1388.79,340.07c-1.7-2.94.16-7.19.16-7.19s4.61.52,6.3,3.46-.15,7.19-.15,7.19S1390.49,343,1388.79,340.07Z"/><path class="cls-14" d="M1394.46,337.06c-2.94-1.7-3.46-6.3-3.46-6.3s4.25-1.86,7.19-.16,3.45,6.3,3.45,6.3S1397.4,338.76,1394.46,337.06Z"/><path class="cls-14" d="M1397.85,331.62c-3.39,0-6.14-3.73-6.14-3.73s2.75-3.73,6.14-3.73,6.15,3.73,6.15,3.73S1401.25,331.62,1397.85,331.62Z"/><path class="cls-14" d="M1398.08,325.21c-2.94,1.69-7.19-.16-7.19-.16s.52-4.61,3.46-6.31,7.18.16,7.18.16S1401,323.51,1398.08,325.21Z"/><path class="cls-14" d="M1395.06,319.54c-1.69,2.94-6.3,3.46-6.3,3.46s-1.86-4.25-.16-7.19,6.31-3.46,6.31-3.46S1396.76,316.6,1395.06,319.54Z"/></g><g id="leaf-20"><path class="cls-15" d="M305.22,173.39s50.19,80.08-57.1,165.62"/><path class="cls-16" d="M332.35,194.63c4.76-5,4.27-13.18,4.27-13.18s-8.2-.09-13,4.91-4.28,13.19-4.28,13.19S327.58,199.63,332.35,194.63Z"/><path class="cls-16" d="M335.66,222.25c5.47-4.21,6.25-12.38,6.25-12.38s-8.1-1.34-13.57,2.87-6.24,12.38-6.24,12.38S330.19,226.46,335.66,222.25Z"/><path class="cls-16" d="M333,251.69c6-3.47,7.8-11.47,7.8-11.47S333,237.84,327,241.31s-7.8,11.46-7.8,11.46S327,255.15,333,251.69Z"/><path class="cls-16" d="M324.16,280.87c6.77-1.35,11.08-8.34,11.08-8.34s-6.66-4.78-13.43-3.43-11.08,8.34-11.08,8.34S317.39,282.22,324.16,280.87Z"/><path class="cls-16" d="M305,311.37c6.9-.3,12.23-6.54,12.23-6.54s-5.86-5.75-12.75-5.44-12.23,6.54-12.23,6.54S298.11,311.68,305,311.37Z"/><path class="cls-16" d="M285.92,333.94c6.88.59,13-4.9,13-4.9S293.83,322.58,287,322s-13,4.9-13,4.9S279,333.34,285.92,333.94Z"/><path class="cls-16" d="M298.93,199.33c-5-4-6.38-12.09-6.38-12.09s6.71-1.58,11.71,2.42,6.38,12.09,6.38,12.09S303.93,203.34,298.93,199.33Z"/><path class="cls-16" d="M300.16,224.25c-4.6-4.21-5.25-12.38-5.25-12.38s6.8-1.34,11.4,2.87,5.25,12.38,5.25,12.38S304.75,228.46,300.16,224.25Z"/><path class="cls-16" d="M297.38,248.69c-5-3.47-6.55-11.47-6.55-11.47s6.6-2.38,11.62,1.09S309,249.77,309,249.77,302.4,252.15,297.38,248.69Z"/><path class="cls-16" d="M285.9,269.78c-1.64-6.19,2-13.52,2-13.52s6.34,2.71,8,8.9-2,13.52-2,13.52S287.54,276,285.9,269.78Z"/><path class="cls-16" d="M270.09,292.56c-1.2-6.12,3.13-13.08,3.13-13.08s6.27,3,7.47,9.08-3.12,13.08-3.12,13.08S271.3,298.68,270.09,292.56Z"/><path class="cls-16" d="M253.36,310.58c-2-5.77,1.53-13.12,1.53-13.12s6.72,2,8.7,7.78-1.53,13.11-1.53,13.11S255.34,316.35,253.36,310.58Z"/></g><g id="leaf-19"><path class="cls-15" d="M926.22,206.39s50.19,80.08-57.1,165.62"/><path class="cls-16" d="M953.35,227.63c4.76-5,4.27-13.18,4.27-13.18s-8.2-.09-13,4.91-4.28,13.19-4.28,13.19S948.58,232.63,953.35,227.63Z"/><path class="cls-16" d="M956.66,255.25c5.47-4.21,6.25-12.38,6.25-12.38s-8.1-1.34-13.57,2.87-6.24,12.38-6.24,12.38S951.19,259.46,956.66,255.25Z"/><path class="cls-16" d="M954,284.69c6-3.47,7.8-11.47,7.8-11.47S954,270.84,948,274.31s-7.8,11.46-7.8,11.46S948,288.15,954,284.69Z"/><path class="cls-16" d="M945.16,313.87c6.77-1.35,11.08-8.34,11.08-8.34s-6.66-4.78-13.43-3.43-11.08,8.34-11.08,8.34S938.39,315.22,945.16,313.87Z"/><path class="cls-16" d="M926,344.37c6.9-.3,12.23-6.54,12.23-6.54s-5.86-5.75-12.75-5.44-12.23,6.54-12.23,6.54S919.11,344.68,926,344.37Z"/><path class="cls-16" d="M906.92,366.94c6.88.59,13-4.9,13-4.9S914.83,355.58,908,355s-13,4.9-13,4.9S900,366.34,906.92,366.94Z"/><path class="cls-16" d="M919.93,232.33c-5-4-6.38-12.09-6.38-12.09s6.71-1.58,11.71,2.42,6.38,12.09,6.38,12.09S924.93,236.34,919.93,232.33Z"/><path class="cls-16" d="M921.16,257.25c-4.6-4.21-5.25-12.38-5.25-12.38s6.8-1.34,11.4,2.87,5.25,12.38,5.25,12.38S925.75,261.46,921.16,257.25Z"/><path class="cls-16" d="M918.38,281.69c-5-3.47-6.55-11.47-6.55-11.47s6.6-2.38,11.62,1.09S930,282.77,930,282.77,923.4,285.15,918.38,281.69Z"/><path class="cls-16" d="M906.9,302.78c-1.64-6.19,2-13.52,2-13.52s6.34,2.71,8,8.9-2,13.52-2,13.52S908.54,309,906.9,302.78Z"/><path class="cls-16" d="M891.09,325.56c-1.2-6.12,3.13-13.08,3.13-13.08s6.27,3,7.47,9.08-3.12,13.08-3.12,13.08S892.3,331.68,891.09,325.56Z"/><path class="cls-16" d="M874.36,343.58c-2-5.77,1.53-13.12,1.53-13.12s6.72,2,8.7,7.78-1.53,13.11-1.53,13.11S876.34,349.35,874.36,343.58Z"/></g><g id="leaf-18"><path class="cls-15" d="M1673.9,251.77s94.21,7.5,98.84,144.63"/><path class="cls-16" d="M1707.13,242.67c-1.17-6.8-8-11.3-8-11.3s-5,6.54-3.79,13.34,8,11.3,8,11.3S1708.3,249.48,1707.13,242.67Z"/><path class="cls-16" d="M1731.27,256.49c-.11-6.9-6.2-12.4-6.2-12.4s-5.91,5.7-5.8,12.6,6.21,12.4,6.21,12.4S1731.39,263.39,1731.27,256.49Z"/><path class="cls-16" d="M1753.31,276.18c.78-6.86-4.55-13.1-4.55-13.1s-6.59,4.88-7.37,11.74,4.55,13.1,4.55,13.1S1752.53,283,1753.31,276.18Z"/><path class="cls-16" d="M1771.45,300.69c3-6.24-.07-13.86-.07-13.86s-7.82,2.49-10.77,8.73.07,13.87.07,13.87S1768.5,306.93,1771.45,300.69Z"/><path class="cls-16" d="M1784.5,334.27c3.87-5.71,2-13.71,2-13.71s-8.11,1.26-12,7-2,13.71-2,13.71S1780.63,340,1784.5,334.27Z"/><path class="cls-16" d="M1791.22,363.05c4.58-5.17,3.81-13.33,3.81-13.33s-8.21.2-12.79,5.37-3.8,13.33-3.8,13.33S1786.64,368.21,1791.22,363.05Z"/><path class="cls-16" d="M1691,272.29c-6.2,1.62-13.51-2.09-13.51-2.09s2.73-6.33,8.92-7.95,13.51,2.09,13.51,2.09S1697.16,270.67,1691,272.29Z"/><path class="cls-16" d="M1711.69,286.18c-6.12,1.17-13.06-3.18-13.06-3.18s3-6.26,9.1-7.44,13.07,3.18,13.07,3.18S1717.82,285,1711.69,286.18Z"/><path class="cls-16" d="M1729.65,303c-5.78,2-13.12-1.58-13.12-1.58s2-6.72,7.81-8.67,13.11,1.58,13.11,1.58S1735.42,301,1729.65,303Z"/><path class="cls-16" d="M1739.72,324.78c-5.94-2.37-9.63-9.7-9.63-9.7s6-3.47,11.91-1.1,9.63,9.7,9.63,9.7S1745.67,327.16,1739.72,324.78Z"/><path class="cls-16" d="M1748.58,351.06c-5.63-2.69-8.64-10.31-8.64-10.31s6.12-3.27,11.75-.58,8.63,10.31,8.63,10.31S1754.2,353.75,1748.58,351.06Z"/><path class="cls-16" d="M1753.05,375.24c-5.81-1.85-9.61-9.06-9.61-9.06s5.62-4.2,11.43-2.34,9.61,9.05,9.61,9.05S1758.86,377.09,1753.05,375.24Z"/></g><g id="leaf-17"><path class="cls-15" d="M1328,876.09s92.72-18.27,134.29,112.49"/><path class="cls-16" d="M1357.57,858.35c-3-6.24-10.79-8.71-10.79-8.71s-3,7.63,0,13.87,10.8,8.7,10.8,8.7S1360.54,864.58,1357.57,858.35Z"/><path class="cls-16" d="M1384.55,865.11c-2-6.61-9.34-10.25-9.34-10.25s-4.14,7.08-2.16,13.69,9.33,10.26,9.33,10.26S1386.52,871.73,1384.55,865.11Z"/><path class="cls-16" d="M1411.09,878.1c-1.1-6.81-7.92-11.38-7.92-11.38s-5,6.49-3.92,13.3,7.92,11.38,7.92,11.38S1412.2,884.91,1411.09,878.1Z"/><path class="cls-16" d="M1435.19,896.79c1.15-6.8-3.83-13.32-3.83-13.32s-6.85,4.51-8,11.32,3.82,13.33,3.82,13.33S1434,903.6,1435.19,896.79Z"/><path class="cls-16" d="M1456.84,925.59c2.18-6.55-1.75-13.76-1.75-13.76s-7.46,3.41-9.64,10,1.74,13.76,1.74,13.76S1454.65,932.14,1456.84,925.59Z"/><path class="cls-16" d="M1471.09,951.47c3-6.21.06-13.86.06-13.86s-7.84,2.41-10.85,8.63-.06,13.86-.06,13.86S1468.08,957.68,1471.09,951.47Z"/><path class="cls-16" d="M1350,891.23c-5.53,3.24-13.57,1.65-13.57,1.65s.91-6.84,6.44-10.08,13.57-1.64,13.57-1.64S1355.54,888,1350,891.23Z"/><path class="cls-16" d="M1373.73,899c-5.58,2.79-13.44.48-13.44.48s1.18-6.83,6.76-9.62,13.44-.48,13.44-.48S1379.31,896.2,1373.73,899Z"/><path class="cls-16" d="M1395.56,910.31c-5,3.45-13,2-13,2s.14-7,5.17-10.47,13-2,13-2S1400.59,906.86,1395.56,910.31Z"/><path class="cls-16" d="M1411.16,928.57c-6.36-.68-11.9-6.73-11.9-6.73s4.8-5,11.17-4.28,11.9,6.73,11.9,6.73S1417.53,929.25,1411.16,928.57Z"/><path class="cls-16" d="M1426.8,951.47c-6.15-1.06-11.11-7.59-11.11-7.59s5-4.8,11.15-3.73,11.1,7.58,11.1,7.58S1432.94,952.53,1426.8,951.47Z"/><path class="cls-16" d="M1437.65,973.54c-6.1-.21-11.71-6.12-11.71-6.12s4.27-5.56,10.37-5.35,11.71,6.11,11.71,6.11S1443.74,973.75,1437.65,973.54Z"/></g><g id="leaf-16"><path class="cls-15" d="M1671.21,713.15s25.81,90.92-101.1,143.06"/><path class="cls-16" d="M1691.32,741.13c6-3.47,7.79-11.47,7.79-11.47s-7.86-2.38-13.82,1.09-7.8,11.47-7.8,11.47S1685.35,744.6,1691.32,741.13Z"/><path class="cls-16" d="M1686.78,768.57c6.43-2.51,9.46-10.14,9.46-10.14s-7.4-3.55-13.83-1-9.46,10.15-9.46,10.15S1680.35,771.08,1686.78,768.57Z"/><path class="cls-16" d="M1676,796.09c6.71-1.66,10.69-8.83,10.69-8.83s-6.87-4.48-13.57-2.82-10.69,8.83-10.69,8.83S1669.31,797.75,1676,796.09Z"/><path class="cls-16" d="M1659.36,821.64c6.88.59,13-4.91,13-4.91s-5.06-6.45-11.94-7.05-13,4.91-13,4.91S1652.48,821.05,1659.36,821.64Z"/><path class="cls-16" d="M1632.44,845.57c6.71,1.64,13.57-2.86,13.57-2.86s-4-7.16-10.72-8.79-13.57,2.86-13.57,2.86S1625.73,843.94,1632.44,845.57Z"/><path class="cls-16" d="M1607.81,861.91c6.44,2.49,13.82-1.09,13.82-1.09s-3.05-7.61-9.49-10.1-13.82,1.08-13.82,1.08S1601.37,859.41,1607.81,861.91Z"/><path class="cls-16" d="M1657.92,736.3c-3.68-5.24-2.75-13.39-2.75-13.39s6.89.35,10.57,5.59,2.75,13.39,2.75,13.39S1661.6,741.54,1657.92,736.3Z"/><path class="cls-16" d="M1652.13,760.57c-3.24-5.33-1.58-13.36-1.58-13.36s6.91.62,10.15,5.95,1.58,13.35,1.58,13.35S1655.37,765.9,1652.13,760.57Z"/><path class="cls-16" d="M1642.64,783.25c-3.85-4.73-3.09-12.84-3.09-12.84s7-.44,10.85,4.3,3.09,12.84,3.09,12.84S1646.49,788,1642.64,783.25Z"/><path class="cls-16" d="M1625.72,800.3c.15-6.4,5.73-12.41,5.73-12.41s5.34,4.37,5.19,10.77-5.73,12.41-5.73,12.41S1625.57,806.7,1625.72,800.3Z"/><path class="cls-16" d="M1604.18,817.76c.55-6.21,6.65-11.69,6.65-11.69s5.2,4.6,4.64,10.81-6.65,11.68-6.65,11.68S1603.62,824,1604.18,817.76Z"/><path class="cls-16" d="M1583.07,830.38c-.29-6.09,5.14-12.17,5.14-12.17s5.9,3.81,6.19,9.9-5.14,12.17-5.14,12.17S1583.36,836.47,1583.07,830.38Z"/></g><g id="leaf-15"><path class="cls-15" d="M1482.22,277.39s50.19,80.08-57.1,165.62"/><path class="cls-16" d="M1509.35,298.63c4.76-5,4.27-13.18,4.27-13.18s-8.2-.09-13,4.91-4.28,13.19-4.28,13.19S1504.58,303.63,1509.35,298.63Z"/><path class="cls-16" d="M1512.66,326.25c5.47-4.21,6.25-12.38,6.25-12.38s-8.1-1.34-13.57,2.87-6.24,12.38-6.24,12.38S1507.19,330.46,1512.66,326.25Z"/><path class="cls-16" d="M1510,355.69c6-3.47,7.8-11.47,7.8-11.47s-7.85-2.38-13.82,1.09-7.8,11.46-7.8,11.46S1504,359.15,1510,355.69Z"/><path class="cls-16" d="M1501.16,384.87c6.77-1.35,11.08-8.34,11.08-8.34s-6.66-4.78-13.43-3.43-11.08,8.34-11.08,8.34S1494.39,386.22,1501.16,384.87Z"/><path class="cls-16" d="M1482,415.37c6.9-.3,12.23-6.54,12.23-6.54s-5.86-5.75-12.75-5.44-12.23,6.54-12.23,6.54S1475.11,415.68,1482,415.37Z"/><path class="cls-16" d="M1462.92,437.94c6.88.59,13-4.9,13-4.9s-5.06-6.46-11.94-7.06-13,4.9-13,4.9S1456,437.34,1462.92,437.94Z"/><path class="cls-16" d="M1475.93,303.33c-5-4-6.38-12.09-6.38-12.09s6.71-1.58,11.71,2.42,6.38,12.09,6.38,12.09S1480.93,307.34,1475.93,303.33Z"/><path class="cls-16" d="M1477.16,328.25c-4.6-4.21-5.25-12.38-5.25-12.38s6.8-1.34,11.4,2.87,5.25,12.38,5.25,12.38S1481.75,332.46,1477.16,328.25Z"/><path class="cls-16" d="M1474.38,352.69c-5-3.47-6.55-11.47-6.55-11.47s6.6-2.38,11.62,1.09,6.55,11.46,6.55,11.46S1479.4,356.15,1474.38,352.69Z"/><path class="cls-16" d="M1462.9,373.78c-1.64-6.19,2-13.52,2-13.52s6.34,2.71,8,8.9-2,13.52-2,13.52S1464.54,380,1462.9,373.78Z"/><path class="cls-16" d="M1447.09,396.56c-1.2-6.12,3.13-13.08,3.13-13.08s6.27,3,7.47,9.08-3.12,13.08-3.12,13.08S1448.3,402.68,1447.09,396.56Z"/><path class="cls-16" d="M1430.36,414.58c-2-5.77,1.53-13.12,1.53-13.12s6.72,2,8.7,7.78-1.53,13.11-1.53,13.11S1432.34,420.35,1430.36,414.58Z"/></g><g id="leaf-14"><path class="cls-17" d="M174.93,329.39S138,409.47,217,495"/><path class="cls-16" d="M155,350.63c-3.51-5-3.15-13.18-3.15-13.18s6-.09,9.55,4.91,3.15,13.19,3.15,13.19S158.46,355.63,155,350.63Z"/><path class="cls-16" d="M152.51,378.25c-4-4.21-4.6-12.38-4.6-12.38s6-1.34,10,2.87,4.6,12.38,4.6,12.38S156.54,382.46,152.51,378.25Z"/><path class="cls-16" d="M154.46,407.69c-4.4-3.47-5.75-11.47-5.75-11.47s5.79-2.38,10.19,1.09,5.74,11.46,5.74,11.46S158.86,411.15,154.46,407.69Z"/><path class="cls-16" d="M161,436.87c-5-1.35-8.17-8.34-8.17-8.34s4.92-4.78,9.9-3.43,8.17,8.34,8.17,8.34S166,438.22,161,436.87Z"/><path class="cls-16" d="M175.1,467.37c-5.09-.3-9-6.54-9-6.54s4.31-5.75,9.39-5.44,9,6.54,9,6.54S180.18,467.68,175.1,467.37Z"/><path class="cls-16" d="M189.16,489.94c-5.07.59-9.56-4.9-9.56-4.9s3.73-6.46,8.79-7.06,9.56,4.9,9.56,4.9S194.22,489.34,189.16,489.94Z"/><path class="cls-16" d="M179.57,355.33c3.68-4,4.7-12.09,4.7-12.09a8.68,8.68,0,0,0-8.63,2.42c-3.68,4-4.7,12.09-4.7,12.09A8.65,8.65,0,0,0,179.57,355.33Z"/><path class="cls-16" d="M178.67,380.25c3.38-4.21,3.86-12.38,3.86-12.38a8.46,8.46,0,0,0-8.4,2.87c-3.39,4.21-3.87,12.38-3.87,12.38A8.47,8.47,0,0,0,178.67,380.25Z"/><path class="cls-16" d="M180.71,404.69c3.7-3.47,4.83-11.47,4.83-11.47s-4.86-2.38-8.56,1.09-4.83,11.46-4.83,11.46S177,408.15,180.71,404.69Z"/><path class="cls-16" d="M189.17,425.78c1.21-6.19-1.5-13.52-1.5-13.52a13.75,13.75,0,0,0-5.89,8.9c-1.21,6.19,1.5,13.52,1.5,13.52A13.75,13.75,0,0,0,189.17,425.78Z"/><path class="cls-16" d="M200.81,448.56c.89-6.12-2.3-13.08-2.3-13.08a13.65,13.65,0,0,0-5.5,9.08c-.89,6.12,2.3,13.08,2.3,13.08A13.65,13.65,0,0,0,200.81,448.56Z"/><path class="cls-16" d="M213.14,466.58c1.46-5.77-1.12-13.12-1.12-13.12a11.84,11.84,0,0,0-6.42,7.78c-1.46,5.76,1.13,13.11,1.13,13.11A11.8,11.8,0,0,0,213.14,466.58Z"/></g><g id="leaf-13"><path class="cls-17" d="M734.93,245.39S698,325.47,777,411"/><path class="cls-16" d="M715,266.63c-3.51-5-3.15-13.18-3.15-13.18s6-.09,9.55,4.91,3.15,13.19,3.15,13.19S718.46,271.63,715,266.63Z"/><path class="cls-16" d="M712.51,294.25c-4-4.21-4.6-12.38-4.6-12.38s6-1.34,10,2.87,4.6,12.38,4.6,12.38S716.54,298.46,712.51,294.25Z"/><path class="cls-16" d="M714.46,323.69c-4.4-3.47-5.75-11.47-5.75-11.47s5.79-2.38,10.19,1.09,5.74,11.46,5.74,11.46S718.86,327.15,714.46,323.69Z"/><path class="cls-16" d="M721,352.87c-5-1.35-8.17-8.34-8.17-8.34s4.92-4.78,9.9-3.43,8.17,8.34,8.17,8.34S726,354.22,721,352.87Z"/><path class="cls-16" d="M735.1,383.37c-5.09-.3-9-6.54-9-6.54s4.31-5.75,9.39-5.44,9,6.54,9,6.54S740.18,383.68,735.1,383.37Z"/><path class="cls-16" d="M749.16,405.94c-5.07.59-9.56-4.9-9.56-4.9s3.73-6.46,8.79-7.06,9.56,4.9,9.56,4.9S754.22,405.34,749.16,405.94Z"/><path class="cls-16" d="M739.57,271.33c3.68-4,4.7-12.09,4.7-12.09a8.68,8.68,0,0,0-8.63,2.42c-3.68,4-4.7,12.09-4.7,12.09A8.65,8.65,0,0,0,739.57,271.33Z"/><path class="cls-16" d="M738.67,296.25c3.38-4.21,3.86-12.38,3.86-12.38a8.46,8.46,0,0,0-8.4,2.87c-3.39,4.21-3.87,12.38-3.87,12.38A8.47,8.47,0,0,0,738.67,296.25Z"/><path class="cls-16" d="M740.71,320.69c3.7-3.47,4.83-11.47,4.83-11.47s-4.86-2.38-8.56,1.09-4.83,11.46-4.83,11.46S737,324.15,740.71,320.69Z"/><path class="cls-16" d="M749.17,341.78c1.21-6.19-1.5-13.52-1.5-13.52a13.75,13.75,0,0,0-5.89,8.9c-1.21,6.19,1.5,13.52,1.5,13.52A13.75,13.75,0,0,0,749.17,341.78Z"/><path class="cls-16" d="M760.81,364.56c.89-6.12-2.3-13.08-2.3-13.08a13.65,13.65,0,0,0-5.5,9.08c-.89,6.12,2.3,13.08,2.3,13.08A13.65,13.65,0,0,0,760.81,364.56Z"/><path class="cls-16" d="M773.14,382.58c1.46-5.77-1.12-13.12-1.12-13.12a11.84,11.84,0,0,0-6.42,7.78c-1.46,5.76,1.13,13.11,1.13,13.11A11.8,11.8,0,0,0,773.14,382.58Z"/></g><g id="leaf-12"><path class="cls-17" d="M439.53,659.7s-85.06-23.34-156.47,68.66"/><path class="cls-16" d="M415.3,643.47c4.36-4.28,12.49-5.27,12.49-5.27s1.08,5.95-3.28,10.23S412,653.7,412,653.7,410.94,647.75,415.3,643.47Z"/><path class="cls-16" d="M387.66,645.59c3.49-4.66,11.45-6.57,11.45-6.57s2.3,5.67-1.19,10.33-11.46,6.57-11.46,6.57S384.16,650.26,387.66,645.59Z"/><path class="cls-16" d="M358.94,652.34c2.7-4.9,10.37-7.54,10.37-7.54s3.29,5.31.59,10.22-10.36,7.55-10.36,7.55S356.24,657.25,358.94,652.34Z"/><path class="cls-16" d="M331.22,663.56c.52-5.14,6.88-9.42,6.88-9.42s5.53,4.06,5,9.2-6.88,9.42-6.88,9.42S330.7,668.7,331.22,663.56Z"/><path class="cls-16" d="M303.44,682.49c-.53-5.06,5-10,5-10s6.38,3.31,6.91,8.38-5,10-5,10S304,687.55,303.44,682.49Z"/><path class="cls-16" d="M283.49,700.06c-1.42-4.9,3.27-10.23,3.27-10.23s7,2.62,8.4,7.52-3.27,10.23-3.27,10.23S284.91,705,283.49,700.06Z"/><path class="cls-16" d="M414.7,668.53c4.56,3,12.7,2.66,12.7,2.66a8.68,8.68,0,0,0-3.8-8.12c-4.56-3-12.7-2.66-12.7-2.66A8.68,8.68,0,0,0,414.7,668.53Z"/><path class="cls-16" d="M390,671.73c4.71,2.65,12.85,1.78,12.85,1.78a8.47,8.47,0,0,0-4.21-7.82c-4.71-2.65-12.85-1.78-12.85-1.78A8.47,8.47,0,0,0,390,671.73Z"/><path class="cls-16" d="M366.21,677.75c4,3.08,12.1,2.88,12.1,2.88s1.55-5.19-2.48-8.26-12.1-2.89-12.1-2.89S362.18,674.67,366.21,677.75Z"/><path class="cls-16" d="M346.78,689.55c6.31.18,13.09-3.69,13.09-3.69a13.72,13.72,0,0,0-9.74-4.35c-6.3-.18-13.09,3.7-13.09,3.7A13.76,13.76,0,0,0,346.78,689.55Z"/><path class="cls-16" d="M326.22,704.78c6.18-.13,12.52-4.42,12.52-4.42a13.64,13.64,0,0,0-9.85-3.94c-6.19.13-12.53,4.41-12.53,4.41A13.66,13.66,0,0,0,326.22,704.78Z"/><path class="cls-16" d="M310.47,719.9c5.93.49,12.75-3.27,12.75-3.27a11.81,11.81,0,0,0-8.72-5c-5.93-.49-12.75,3.26-12.75,3.26A11.84,11.84,0,0,0,310.47,719.9Z"/></g><g id="leaf-11"><path class="cls-17" d="M1017.07,654.46s81.67,33.32,163.54-49.52"/><path class="cls-16" d="M1039.2,673.46c-4.84,3.73-13,3.74-13,3.74s-.36-6,4.48-9.76,13-3.75,13-3.75S1044,669.73,1039.2,673.46Z"/><path class="cls-16" d="M1066.89,674.65c-4,4.22-12.15,5.16-12.15,5.16s-1.61-5.9,2.41-10.12,12.16-5.15,12.16-5.15S1070.92,670.43,1066.89,674.65Z"/><path class="cls-16" d="M1096.21,671.37c-3.26,4.55-11.19,6.26-11.19,6.26s-2.64-5.67.62-10.22,11.2-6.26,11.2-6.26S1099.47,666.82,1096.21,671.37Z"/><path class="cls-16" d="M1125.07,663.54c-1.13,5-8,8.53-8,8.53s-5-4.69-3.87-9.73,8-8.54,8-8.54S1126.2,658.49,1125.07,663.54Z"/><path class="cls-16" d="M1154.9,648.05c-.07,5.09-6.12,9.3-6.12,9.3s-5.94-4.05-5.87-9.14,6.13-9.29,6.13-9.29S1155,643,1154.9,648.05Z"/><path class="cls-16" d="M1176.81,633c.82,5-4.47,9.77-4.47,9.77s-6.62-3.44-7.44-8.47,4.47-9.77,4.47-9.77S1176,628,1176.81,633Z"/><path class="cls-16" d="M1042.77,648.66c-4.16-3.5-12.28-4.16-12.28-4.16a8.64,8.64,0,0,0,2.8,8.51c4.17,3.5,12.29,4.15,12.29,4.15A8.64,8.64,0,0,0,1042.77,648.66Z"/><path class="cls-16" d="M1067.71,648.43c-4.36-3.2-12.54-3.31-12.54-3.31a8.46,8.46,0,0,0,3.24,8.27c4.36,3.19,12.55,3.3,12.55,3.3A8.45,8.45,0,0,0,1067.71,648.43Z"/><path class="cls-16" d="M1092,645.28c-3.64-3.54-11.68-4.3-11.68-4.3s-2.15,5,1.48,8.5,11.67,4.3,11.67,4.3S1095.66,648.82,1092,645.28Z"/><path class="cls-16" d="M1112.72,635.88c-6.24-.93-13.44,2.11-13.44,2.11a13.77,13.77,0,0,0,9.15,5.47c6.24.93,13.44-2.11,13.44-2.11A13.77,13.77,0,0,0,1112.72,635.88Z"/><path class="cls-16" d="M1135,623.21c-6.15-.61-13,2.89-13,2.89a13.65,13.65,0,0,0,9.31,5.09c6.16.61,13-2.89,13-2.89A13.69,13.69,0,0,0,1135,623.21Z"/><path class="cls-16" d="M1152.39,610.08c-5.83-1.2-13.05,1.72-13.05,1.72a11.81,11.81,0,0,0,8.05,6.06c5.83,1.19,13.06-1.72,13.06-1.72A11.84,11.84,0,0,0,1152.39,610.08Z"/></g><g id="leaf-10"><path class="cls-17" d="M344.07,476.46s81.67,33.32,163.54-49.52"/><path class="cls-16" d="M366.2,495.46c-4.84,3.73-13,3.74-13,3.74s-.36-6,4.48-9.76,13-3.75,13-3.75S371,491.73,366.2,495.46Z"/><path class="cls-16" d="M393.89,496.65c-4,4.22-12.15,5.16-12.15,5.16s-1.61-5.9,2.41-10.12,12.16-5.15,12.16-5.15S397.92,492.43,393.89,496.65Z"/><path class="cls-16" d="M423.21,493.37C420,497.92,412,499.63,412,499.63s-2.64-5.67.62-10.22,11.2-6.26,11.2-6.26S426.47,488.82,423.21,493.37Z"/><path class="cls-16" d="M452.07,485.54c-1.13,5-8,8.53-8,8.53s-5-4.69-3.87-9.73,7.95-8.54,7.95-8.54S453.2,480.49,452.07,485.54Z"/><path class="cls-16" d="M481.9,470.05c-.07,5.09-6.12,9.3-6.12,9.3s-5.94-4.05-5.87-9.14,6.13-9.29,6.13-9.29S482,465,481.9,470.05Z"/><path class="cls-16" d="M503.81,455c.82,5-4.47,9.77-4.47,9.77s-6.62-3.44-7.44-8.47,4.47-9.77,4.47-9.77S503,450,503.81,455Z"/><path class="cls-16" d="M369.77,470.66c-4.16-3.5-12.28-4.16-12.28-4.16a8.64,8.64,0,0,0,2.8,8.51c4.17,3.5,12.29,4.15,12.29,4.15A8.64,8.64,0,0,0,369.77,470.66Z"/><path class="cls-16" d="M394.71,470.43c-4.36-3.2-12.54-3.31-12.54-3.31a8.46,8.46,0,0,0,3.24,8.27c4.36,3.19,12.55,3.3,12.55,3.3A8.45,8.45,0,0,0,394.71,470.43Z"/><path class="cls-16" d="M419,467.28c-3.64-3.54-11.68-4.3-11.68-4.3s-2.15,5,1.48,8.5,11.67,4.3,11.67,4.3S422.66,470.82,419,467.28Z"/><path class="cls-16" d="M439.72,457.88c-6.24-.93-13.44,2.11-13.44,2.11a13.77,13.77,0,0,0,9.15,5.47c6.24.93,13.44-2.11,13.44-2.11A13.77,13.77,0,0,0,439.72,457.88Z"/><path class="cls-16" d="M462,445.21c-6.15-.61-13,2.89-13,2.89a13.65,13.65,0,0,0,9.31,5.09c6.16.61,13-2.89,13-2.89A13.69,13.69,0,0,0,462,445.21Z"/><path class="cls-16" d="M479.39,432.08c-5.83-1.2-13.05,1.72-13.05,1.72a11.81,11.81,0,0,0,8.05,6.06c5.83,1.19,13.06-1.72,13.06-1.72A11.84,11.84,0,0,0,479.39,432.08Z"/></g><g id="leaf-09"><path class="cls-17" d="M1003.07,958.46s81.67,33.32,163.54-49.52"/><path class="cls-16" d="M1025.2,977.46c-4.84,3.73-13,3.74-13,3.74s-.36-6,4.48-9.76,13-3.75,13-3.75S1030,973.73,1025.2,977.46Z"/><path class="cls-16" d="M1052.89,978.65c-4,4.22-12.15,5.16-12.15,5.16s-1.61-5.9,2.41-10.12,12.16-5.15,12.16-5.15S1056.92,974.43,1052.89,978.65Z"/><path class="cls-16" d="M1082.21,975.37c-3.26,4.55-11.19,6.26-11.19,6.26s-2.64-5.67.62-10.22,11.2-6.26,11.2-6.26S1085.47,970.82,1082.21,975.37Z"/><path class="cls-16" d="M1111.07,967.54c-1.13,5-8,8.53-8,8.53s-5-4.69-3.87-9.73,8-8.54,8-8.54S1112.2,962.49,1111.07,967.54Z"/><path class="cls-16" d="M1140.9,952.05c-.07,5.09-6.12,9.3-6.12,9.3s-5.94-4.05-5.87-9.14,6.13-9.29,6.13-9.29S1141,947,1140.9,952.05Z"/><path class="cls-16" d="M1162.81,937c.82,5-4.47,9.77-4.47,9.77s-6.62-3.44-7.44-8.47,4.47-9.77,4.47-9.77S1162,932,1162.81,937Z"/><path class="cls-16" d="M1028.77,952.66c-4.16-3.5-12.28-4.16-12.28-4.16a8.64,8.64,0,0,0,2.8,8.51c4.17,3.5,12.29,4.15,12.29,4.15A8.64,8.64,0,0,0,1028.77,952.66Z"/><path class="cls-16" d="M1053.71,952.43c-4.36-3.2-12.54-3.31-12.54-3.31a8.46,8.46,0,0,0,3.24,8.27c4.36,3.19,12.55,3.3,12.55,3.3A8.45,8.45,0,0,0,1053.71,952.43Z"/><path class="cls-16" d="M1078,949.28c-3.64-3.54-11.68-4.3-11.68-4.3s-2.15,5,1.48,8.5,11.67,4.3,11.67,4.3S1081.66,952.82,1078,949.28Z"/><path class="cls-16" d="M1098.72,939.88c-6.24-.93-13.44,2.11-13.44,2.11a13.77,13.77,0,0,0,9.15,5.47c6.24.93,13.44-2.11,13.44-2.11A13.77,13.77,0,0,0,1098.72,939.88Z"/><path class="cls-16" d="M1121,927.21c-6.15-.61-13,2.89-13,2.89a13.65,13.65,0,0,0,9.31,5.09c6.16.61,13-2.89,13-2.89A13.69,13.69,0,0,0,1121,927.21Z"/><path class="cls-16" d="M1138.39,914.08c-5.83-1.2-13.05,1.72-13.05,1.72a11.81,11.81,0,0,0,8.05,6.06c5.83,1.19,13.06-1.72,13.06-1.72A11.84,11.84,0,0,0,1138.39,914.08Z"/></g><g id="leaf-08"><path class="cls-17" d="M531.07,793.46s81.67,33.32,163.54-49.52"/><path class="cls-16" d="M553.2,812.46c-4.84,3.73-13,3.74-13,3.74s-.36-6,4.48-9.76,13-3.75,13-3.75S558,808.73,553.2,812.46Z"/><path class="cls-16" d="M580.89,813.65c-4,4.22-12.15,5.16-12.15,5.16s-1.61-5.9,2.41-10.12,12.16-5.15,12.16-5.15S584.92,809.43,580.89,813.65Z"/><path class="cls-16" d="M610.21,810.37C607,814.92,599,816.63,599,816.63s-2.64-5.67.62-10.22,11.2-6.26,11.2-6.26S613.47,805.82,610.21,810.37Z"/><path class="cls-16" d="M639.07,802.54c-1.13,5-8,8.53-8,8.53s-5-4.69-3.87-9.73,8-8.54,8-8.54S640.2,797.49,639.07,802.54Z"/><path class="cls-16" d="M668.9,787.05c-.07,5.09-6.12,9.3-6.12,9.3s-5.94-4.05-5.87-9.14,6.13-9.29,6.13-9.29S669,782,668.9,787.05Z"/><path class="cls-16" d="M690.81,772c.82,5-4.47,9.77-4.47,9.77s-6.62-3.44-7.44-8.47,4.47-9.77,4.47-9.77S690,767,690.81,772Z"/><path class="cls-16" d="M556.77,787.66c-4.16-3.5-12.28-4.16-12.28-4.16a8.64,8.64,0,0,0,2.8,8.51c4.17,3.5,12.29,4.15,12.29,4.15A8.64,8.64,0,0,0,556.77,787.66Z"/><path class="cls-16" d="M581.71,787.43c-4.36-3.2-12.54-3.31-12.54-3.31a8.46,8.46,0,0,0,3.24,8.27c4.36,3.19,12.55,3.3,12.55,3.3A8.45,8.45,0,0,0,581.71,787.43Z"/><path class="cls-16" d="M606,784.28c-3.64-3.54-11.68-4.3-11.68-4.3s-2.15,5,1.48,8.5,11.67,4.3,11.67,4.3S609.66,787.82,606,784.28Z"/><path class="cls-16" d="M626.72,774.88c-6.24-.93-13.44,2.11-13.44,2.11a13.77,13.77,0,0,0,9.15,5.47c6.24.93,13.44-2.11,13.44-2.11A13.77,13.77,0,0,0,626.72,774.88Z"/><path class="cls-16" d="M649,762.21c-6.15-.61-13,2.89-13,2.89a13.65,13.65,0,0,0,9.31,5.09c6.16.61,13-2.89,13-2.89A13.69,13.69,0,0,0,649,762.21Z"/><path class="cls-16" d="M666.39,749.08c-5.83-1.2-13,1.72-13,1.72a11.81,11.81,0,0,0,8,6.06c5.83,1.19,13.06-1.72,13.06-1.72A11.84,11.84,0,0,0,666.39,749.08Z"/></g><g id="leaf-07"><path class="cls-18" d="M1068,493.58S981.88,493.2,941,385.83"/><path class="cls-16" d="M1040.79,502.66c2.87,5.27,10.21,8.4,10.21,8.4s2.68-5.42-.19-10.69-10.21-8.4-10.21-8.4S1037.92,497.39,1040.79,502.66Z"/><path class="cls-16" d="M1015.53,493.23c2,5.41,8.87,9.37,8.87,9.37s3.74-4.82,1.79-10.23-8.87-9.37-8.87-9.37S1013.57,487.82,1015.53,493.23Z"/><path class="cls-16" d="M990.56,479.07c1.15,5.43,7.58,10,7.58,10s4.58-4.22,3.43-9.65-7.58-10-7.58-10S989.42,473.64,990.56,479.07Z"/><path class="cls-16" d="M967.78,460.88c-1,5.07,3.79,10.88,3.79,10.88s6.32-2.41,7.28-7.48-3.79-10.88-3.79-10.88S968.75,455.81,967.78,460.88Z"/><path class="cls-16" d="M947.12,435.29C945.2,440,949,446.18,949,446.18s6.9-1.47,8.82-6.19S956,429.11,956,429.11,949.05,430.58,947.12,435.29Z"/><path class="cls-16" d="M933.4,413.1c-2.71,4.32.18,10.68.18,10.68s7.27-.64,10-5-.18-10.69-.18-10.69S936.1,408.77,933.4,413.1Z"/><path class="cls-16" d="M1047.28,478.47c5.1-1.63,12.63.85,12.63.85a8.81,8.81,0,0,1-5.84,6.76c-5.1,1.64-12.63-.84-12.63-.84A8.82,8.82,0,0,1,1047.28,478.47Z"/><path class="cls-16" d="M1025.05,468.78c5.15-1.28,12.52,1.73,12.52,1.73a8.61,8.61,0,0,1-6.14,6.37c-5.15,1.28-12.52-1.73-12.52-1.73A8.58,8.58,0,0,1,1025.05,468.78Z"/><path class="cls-16" d="M1004.5,456.64c4.64-1.87,12.14.48,12.14.48s0,5.39-4.65,7.26-12.13-.47-12.13-.47S999.87,458.52,1004.5,456.64Z"/><path class="cls-16" d="M989.65,440.12c6,1.51,11.21,7.05,11.21,7.05a13.36,13.36,0,0,1-10.34,1.56c-5.94-1.51-11.2-7.05-11.2-7.05A13.34,13.34,0,0,1,989.65,440.12Z"/><path class="cls-16" d="M974.7,420c5.75,1.78,10.47,7.59,10.47,7.59a13.23,13.23,0,0,1-10.33,1.14c-5.74-1.78-10.47-7.59-10.47-7.59A13.23,13.23,0,0,1,974.7,420Z"/><path class="cls-16" d="M964.22,401.29c5.68,1.12,11,6.55,11,6.55a11.6,11.6,0,0,1-9.58,2.51c-5.69-1.11-11-6.55-11-6.55A11.6,11.6,0,0,1,964.22,401.29Z"/></g><g id="leaf-06"><path class="cls-18" d="M931.07,713.46S851.63,746.78,772,663.94"/><path class="cls-16" d="M909.55,732.46c4.71,3.73,12.68,3.74,12.68,3.74s.35-6-4.35-9.76-12.68-3.75-12.68-3.75S904.85,728.73,909.55,732.46Z"/><path class="cls-16" d="M882.61,733.65c3.92,4.22,11.83,5.16,11.83,5.16s1.56-5.9-2.35-10.12-11.83-5.15-11.83-5.15S878.7,729.43,882.61,733.65Z"/><path class="cls-16" d="M854.1,730.37c3.17,4.55,10.89,6.26,10.89,6.26s2.56-5.67-.61-10.22-10.89-6.26-10.89-6.26S850.92,725.82,854.1,730.37Z"/><path class="cls-16" d="M826,722.54c1.09,5,7.74,8.53,7.74,8.53s4.86-4.69,3.77-9.73-7.74-8.54-7.74-8.54S824.93,717.49,826,722.54Z"/><path class="cls-16" d="M797,707.05c.07,5.09,6,9.3,6,9.3s5.77-4.05,5.7-9.14-6-9.29-6-9.29S796.94,702,797,707.05Z"/><path class="cls-16" d="M775.7,692c-.8,5,4.34,9.77,4.34,9.77s6.44-3.44,7.24-8.47-4.34-9.77-4.34-9.77S776.5,687,775.7,692Z"/><path class="cls-16" d="M906.07,707.66c4.06-3.5,12-4.16,12-4.16A8.84,8.84,0,0,1,915.3,712c-4.06,3.5-12,4.15-12,4.15A8.82,8.82,0,0,1,906.07,707.66Z"/><path class="cls-16" d="M881.82,707.43c4.24-3.2,12.2-3.31,12.2-3.31a8.62,8.62,0,0,1-3.16,8.27c-4.24,3.19-12.2,3.3-12.2,3.3A8.6,8.6,0,0,1,881.82,707.43Z"/><path class="cls-16" d="M858.17,704.28c3.53-3.54,11.35-4.3,11.35-4.3s2.1,5-1.43,8.5-11.36,4.3-11.36,4.3S854.64,707.82,858.17,704.28Z"/><path class="cls-16" d="M838,694.88c6.07-.93,13.07,2.11,13.07,2.11a13.35,13.35,0,0,1-8.9,5.47c-6.07.93-13.07-2.11-13.07-2.11A13.35,13.35,0,0,1,838,694.88Z"/><path class="cls-16" d="M816.42,682.21c6-.61,12.6,2.89,12.6,2.89a13.22,13.22,0,0,1-9.06,5.09c-6,.61-12.61-2.89-12.61-2.89A13.26,13.26,0,0,1,816.42,682.21Z"/><path class="cls-16" d="M799.45,669.08c5.67-1.2,12.7,1.72,12.7,1.72a11.61,11.61,0,0,1-7.84,6.06c-5.67,1.19-12.69-1.72-12.69-1.72A11.57,11.57,0,0,1,799.45,669.08Z"/></g><g id="leaf-05"><path class="cls-18" d="M558.35,993s-85.82-7.41-117.85-117.76"/><path class="cls-16" d="M530.46,999.86c2.44,5.49,9.49,9.21,9.49,9.21s3.11-5.19.68-10.67-9.48-9.21-9.48-9.21S528,994.37,530.46,999.86Z"/><path class="cls-16" d="M506.05,988.39c1.51,5.56,8.08,10.07,8.08,10.07s4.13-4.5,2.62-10.05-8.08-10.06-8.08-10.06S504.55,982.84,506.05,988.39Z"/><path class="cls-16" d="M482.33,972.24c.7,5.51,6.73,10.6,6.73,10.6s4.91-3.83,4.21-9.34-6.73-10.6-6.73-10.6S481.63,966.74,482.33,972.24Z"/><path class="cls-16" d="M461.11,952.26c-1.37,5,2.89,11.15,2.89,11.15s6.49-1.89,7.86-6.87S469,945.39,469,945.39,462.49,947.28,461.11,952.26Z"/><path class="cls-16" d="M442.61,925.06c-2.3,4.54,1,11,1,11s7-.9,9.3-5.44-1-11-1-11S444.92,920.53,442.61,925.06Z"/><path class="cls-16" d="M430.75,901.82c-3.05,4.09-.7,10.67-.7,10.67s7.3,0,10.35-4.13.69-10.67.69-10.67S433.8,897.74,430.75,901.82Z"/><path class="cls-16" d="M538.91,976.28c5.21-1.21,12.51,1.88,12.51,1.88a8.8,8.8,0,0,1-6.37,6.26c-5.21,1.21-12.51-1.88-12.51-1.88A8.8,8.8,0,0,1,538.91,976.28Z"/><path class="cls-16" d="M517.54,964.81c5.24-.86,12.34,2.74,12.34,2.74a8.61,8.61,0,0,1-6.64,5.85c-5.24.86-12.34-2.74-12.34-2.74A8.59,8.59,0,0,1,517.54,964.81Z"/><path class="cls-16" d="M498.06,951c4.77-1.49,12.05,1.46,12.05,1.46s-.45,5.37-5.22,6.87-12.05-1.47-12.05-1.47S493.29,952.52,498.06,951Z"/><path class="cls-16" d="M484.61,933.35c5.8,2,10.59,7.94,10.59,7.94a13.36,13.36,0,0,1-10.43.71c-5.8-2-10.59-7.94-10.59-7.94A13.35,13.35,0,0,1,484.61,933.35Z"/><path class="cls-16" d="M471.34,912.09c5.59,2.24,9.82,8.41,9.82,8.41a13.24,13.24,0,0,1-10.39.3c-5.58-2.24-9.82-8.42-9.82-8.42A13.22,13.22,0,0,1,471.34,912.09Z"/><path class="cls-16" d="M462.42,892.58c5.58,1.57,10.45,7.42,10.45,7.42a11.61,11.61,0,0,1-9.75,1.72c-5.58-1.57-10.45-7.42-10.45-7.42A11.57,11.57,0,0,1,462.42,892.58Z"/></g><g id="leaf-04"><path class="cls-19" d="M440.07,160.91S518.94,129.23,598,208"/><path class="cls-16" d="M461.44,142.84c-4.67-3.54-12.59-3.56-12.59-3.56a11.61,11.61,0,0,0,4.32,9.29c4.67,3.55,12.59,3.56,12.59,3.56A11.61,11.61,0,0,0,461.44,142.84Z"/><path class="cls-16" d="M488.18,141.71c-3.88-4-11.74-4.9-11.74-4.9s-1.55,5.6,2.34,9.61,11.74,4.91,11.74,4.91S492.07,145.72,488.18,141.71Z"/><path class="cls-16" d="M516.49,144.83c-3.15-4.33-10.81-6-10.81-6s-2.54,5.39.61,9.72,10.81,6,10.81,6S519.65,149.16,516.49,144.83Z"/><path class="cls-16" d="M544.36,152.28c-1.08-4.8-7.68-8.11-7.68-8.11s-4.83,4.45-3.74,9.25,7.68,8.11,7.68,8.11S545.45,157.07,544.36,152.28Z"/><path class="cls-16" d="M573.17,167c-.06-4.84-5.91-8.84-5.91-8.84s-5.74,3.85-5.67,8.69,5.92,8.84,5.92,8.84S573.24,171.84,573.17,167Z"/><path class="cls-16" d="M594.33,181.33c.79-4.79-4.31-9.29-4.31-9.29s-6.4,3.26-7.19,8.05,4.31,9.29,4.31,9.29S593.53,186.12,594.33,181.33Z"/><path class="cls-16" d="M464.89,166.43c-4,3.32-11.86,3.95-11.86,3.95a8.14,8.14,0,0,1,2.7-8.09c4-3.33,11.87-3.95,11.87-3.95A8.13,8.13,0,0,1,464.89,166.43Z"/><path class="cls-16" d="M489,166.65c-4.21,3-12.11,3.14-12.11,3.14a8,8,0,0,1,3.14-7.86c4.21-3,12.11-3.14,12.11-3.14A8,8,0,0,1,489,166.65Z"/><path class="cls-16" d="M512.45,169.64c-3.5,3.36-11.27,4.09-11.27,4.09s-2.08-4.72,1.43-8.08,11.27-4.1,11.27-4.1S516,166.28,512.45,169.64Z"/><path class="cls-16" d="M532.44,178.58c-6,.89-13-2-13-2a13.26,13.26,0,0,1,8.84-5.2c6-.89,13,2,13,2A13.24,13.24,0,0,1,532.44,178.58Z"/><path class="cls-16" d="M553.9,190.62c-5.94.58-12.51-2.74-12.51-2.74a13.17,13.17,0,0,1,9-4.84c5.94-.58,12.51,2.74,12.51,2.74A13.17,13.17,0,0,1,553.9,190.62Z"/><path class="cls-16" d="M570.75,203.11c-5.63,1.14-12.61-1.63-12.61-1.63a11.37,11.37,0,0,1,7.78-5.76c5.63-1.14,12.61,1.63,12.61,1.63A11.37,11.37,0,0,1,570.75,203.11Z"/></g><g id="leaf-03"><path class="cls-19" d="M1030.07,98.91S1108.94,67.23,1188,146"/><path class="cls-16" d="M1051.44,80.84c-4.67-3.54-12.59-3.56-12.59-3.56a11.61,11.61,0,0,0,4.32,9.29c4.67,3.55,12.59,3.56,12.59,3.56A11.61,11.61,0,0,0,1051.44,80.84Z"/><path class="cls-16" d="M1078.18,79.71c-3.88-4-11.74-4.9-11.74-4.9s-1.55,5.6,2.34,9.61,11.74,4.91,11.74,4.91S1082.07,83.72,1078.18,79.71Z"/><path class="cls-16" d="M1106.49,82.83c-3.15-4.33-10.81-6-10.81-6s-2.54,5.39.61,9.72,10.81,6,10.81,6S1109.65,87.16,1106.49,82.83Z"/><path class="cls-16" d="M1134.36,90.28c-1.08-4.8-7.68-8.11-7.68-8.11s-4.83,4.45-3.74,9.25,7.68,8.11,7.68,8.11S1135.45,95.07,1134.36,90.28Z"/><path class="cls-16" d="M1163.17,105c-.06-4.84-5.91-8.84-5.91-8.84s-5.74,3.85-5.67,8.69,5.92,8.84,5.92,8.84S1163.24,109.84,1163.17,105Z"/><path class="cls-16" d="M1184.33,119.33c.79-4.79-4.31-9.29-4.31-9.29s-6.4,3.26-7.19,8,4.31,9.29,4.31,9.29S1183.53,124.12,1184.33,119.33Z"/><path class="cls-16" d="M1054.89,104.43c-4,3.32-11.86,3.95-11.86,3.95a8.14,8.14,0,0,1,2.7-8.09c4-3.33,11.87-4,11.87-4A8.13,8.13,0,0,1,1054.89,104.43Z"/><path class="cls-16" d="M1079,104.65c-4.21,3-12.11,3.14-12.11,3.14a8,8,0,0,1,3.14-7.86c4.21-3,12.11-3.14,12.11-3.14A8,8,0,0,1,1079,104.65Z"/><path class="cls-16" d="M1102.45,107.64c-3.5,3.36-11.27,4.09-11.27,4.09s-2.08-4.72,1.43-8.08,11.27-4.1,11.27-4.1S1106,104.28,1102.45,107.64Z"/><path class="cls-16" d="M1122.44,116.58c-6,.89-13-2-13-2a13.26,13.26,0,0,1,8.84-5.2c6-.89,13,2,13,2A13.24,13.24,0,0,1,1122.44,116.58Z"/><path class="cls-16" d="M1143.9,128.62c-5.94.58-12.51-2.74-12.51-2.74a13.17,13.17,0,0,1,9-4.84c5.94-.58,12.51,2.74,12.51,2.74A13.17,13.17,0,0,1,1143.9,128.62Z"/><path class="cls-16" d="M1160.75,141.11c-5.63,1.14-12.61-1.63-12.61-1.63a11.37,11.37,0,0,1,7.78-5.76c5.63-1.14,12.61,1.63,12.61,1.63A11.37,11.37,0,0,1,1160.75,141.11Z"/></g><g id="leaf-02"><path class="cls-19" d="M774.07,844.91S852.94,813.23,932,892"/><path class="cls-16" d="M795.44,826.84c-4.67-3.54-12.59-3.56-12.59-3.56a11.61,11.61,0,0,0,4.32,9.29c4.67,3.55,12.59,3.56,12.59,3.56A11.61,11.61,0,0,0,795.44,826.84Z"/><path class="cls-16" d="M822.18,825.71c-3.88-4-11.74-4.9-11.74-4.9s-1.55,5.6,2.34,9.61,11.74,4.91,11.74,4.91S826.07,829.72,822.18,825.71Z"/><path class="cls-16" d="M850.49,828.83c-3.15-4.33-10.81-6-10.81-6s-2.54,5.39.61,9.72,10.81,5.95,10.81,5.95S853.65,833.16,850.49,828.83Z"/><path class="cls-16" d="M878.36,836.28c-1.08-4.8-7.68-8.11-7.68-8.11s-4.83,4.45-3.74,9.25,7.68,8.11,7.68,8.11S879.45,841.07,878.36,836.28Z"/><path class="cls-16" d="M907.17,851c-.06-4.84-5.91-8.84-5.91-8.84s-5.74,3.85-5.67,8.69,5.92,8.84,5.92,8.84S907.24,855.84,907.17,851Z"/><path class="cls-16" d="M928.33,865.33c.79-4.79-4.31-9.29-4.31-9.29s-6.4,3.26-7.19,8.05,4.31,9.29,4.31,9.29S927.53,870.12,928.33,865.33Z"/><path class="cls-16" d="M798.89,850.43c-4,3.32-11.86,4-11.86,4a8.14,8.14,0,0,1,2.7-8.09c4-3.33,11.87-3.95,11.87-3.95A8.13,8.13,0,0,1,798.89,850.43Z"/><path class="cls-16" d="M823,850.65c-4.21,3-12.11,3.14-12.11,3.14a8,8,0,0,1,3.14-7.86c4.21-3,12.11-3.14,12.11-3.14A8,8,0,0,1,823,850.65Z"/><path class="cls-16" d="M846.45,853.64c-3.5,3.36-11.27,4.09-11.27,4.09s-2.08-4.72,1.43-8.08,11.27-4.1,11.27-4.1S850,850.28,846.45,853.64Z"/><path class="cls-16" d="M866.44,862.58c-6,.89-13-2-13-2a13.26,13.26,0,0,1,8.84-5.2c6-.89,13,2,13,2A13.24,13.24,0,0,1,866.44,862.58Z"/><path class="cls-16" d="M887.9,874.62c-5.94.58-12.51-2.74-12.51-2.74a13.17,13.17,0,0,1,9-4.84c5.94-.58,12.51,2.74,12.51,2.74A13.17,13.17,0,0,1,887.9,874.62Z"/><path class="cls-16" d="M904.75,887.11c-5.63,1.14-12.61-1.63-12.61-1.63a11.37,11.37,0,0,1,7.78-5.76c5.63-1.14,12.61,1.63,12.61,1.63A11.37,11.37,0,0,1,904.75,887.11Z"/></g><g id="leaf-01"><path class="cls-19" d="M1474.07,629.91S1552.94,598.23,1632,677"/><path class="cls-16" d="M1495.44,611.84c-4.67-3.54-12.59-3.56-12.59-3.56a11.61,11.61,0,0,0,4.32,9.29c4.67,3.55,12.59,3.56,12.59,3.56A11.61,11.61,0,0,0,1495.44,611.84Z"/><path class="cls-16" d="M1522.18,610.71c-3.88-4-11.74-4.9-11.74-4.9s-1.55,5.6,2.34,9.61,11.74,4.91,11.74,4.91S1526.07,614.72,1522.18,610.71Z"/><path class="cls-16" d="M1550.49,613.83c-3.15-4.33-10.81-6-10.81-6s-2.54,5.39.61,9.72,10.81,5.95,10.81,5.95S1553.65,618.16,1550.49,613.83Z"/><path class="cls-16" d="M1578.36,621.28c-1.08-4.8-7.68-8.11-7.68-8.11s-4.83,4.45-3.74,9.25,7.68,8.11,7.68,8.11S1579.45,626.07,1578.36,621.28Z"/><path class="cls-16" d="M1607.17,636c-.06-4.84-5.91-8.84-5.91-8.84s-5.74,3.85-5.67,8.69,5.92,8.84,5.92,8.84S1607.24,640.84,1607.17,636Z"/><path class="cls-16" d="M1628.33,650.33c.79-4.79-4.31-9.29-4.31-9.29s-6.4,3.26-7.19,8.05,4.31,9.29,4.31,9.29S1627.53,655.12,1628.33,650.33Z"/><path class="cls-16" d="M1498.89,635.43c-4,3.32-11.86,4-11.86,4a8.14,8.14,0,0,1,2.7-8.09c4-3.33,11.87-3.95,11.87-3.95A8.13,8.13,0,0,1,1498.89,635.43Z"/><path class="cls-16" d="M1523,635.65c-4.21,3-12.11,3.14-12.11,3.14a8,8,0,0,1,3.14-7.86c4.21-3,12.11-3.14,12.11-3.14A8,8,0,0,1,1523,635.65Z"/><path class="cls-16" d="M1546.45,638.64c-3.5,3.36-11.27,4.09-11.27,4.09s-2.08-4.72,1.43-8.08,11.27-4.1,11.27-4.1S1550,635.28,1546.45,638.64Z"/><path class="cls-16" d="M1566.44,647.58c-6,.89-13-2-13-2a13.26,13.26,0,0,1,8.84-5.2c6-.89,13,2,13,2A13.24,13.24,0,0,1,1566.44,647.58Z"/><path class="cls-16" d="M1587.9,659.62c-5.94.58-12.51-2.74-12.51-2.74a13.17,13.17,0,0,1,9-4.84c5.94-.58,12.51,2.74,12.51,2.74A13.17,13.17,0,0,1,1587.9,659.62Z"/><path class="cls-16" d="M1604.75,672.11c-5.63,1.14-12.61-1.63-12.61-1.63a11.37,11.37,0,0,1,7.78-5.76c5.63-1.14,12.61,1.63,12.61,1.63A11.37,11.37,0,0,1,1604.75,672.11Z"/></g><g id="banda-03"><path class="cls-20" d="M731.26,577.63A331.34,331.34,0,0,1,686,583a91.92,91.92,0,0,1-43-9,101.32,101.32,0,0,1,42-11.5C709,561.4,731.26,577.63,731.26,577.63Z"/><path class="cls-20" d="M728.74,608.24s-31.61,8.14-52.67-3.42S643,574,643,574a123.67,123.67,0,0,1,42.52,13.64C706.57,599.17,728.74,608.24,728.74,608.24Z"/><path class="cls-20" d="M707.25,641.4s-32.1-5.95-46.33-25.31S643,574,643,574s19.51,11.14,33.74,30.5S707.25,641.4,707.25,641.4Z"/></g><g id="banda-02"><path class="cls-20" d="M426.54,188.78a331,331,0,0,1-22.7,39.57A92,92,0,0,1,371,257.45a101.37,101.37,0,0,1,15.83-40.61C400.27,196.94,426.54,188.78,426.54,188.78Z"/><path class="cls-20" d="M449.62,209.05s-12.32,30.23-34.16,40.24S371,257.45,371,257.45a123.59,123.59,0,0,1,36.3-26C429.12,221.44,449.62,209.05,449.62,209.05Z"/><path class="cls-20" d="M463.42,246.07s-23.91,22.23-47.94,22.11S371,257.45,371,257.45s20.58-9,44.6-8.89S463.42,246.07,463.42,246.07Z"/></g><g id="banda-01"><path class="cls-20" d="M1607.91,567.22a330.66,330.66,0,0,1,9.47-44.63,92,92,0,0,1,22.36-37.77,101.24,101.24,0,0,1-2.62,43.51C1630.41,551.4,1607.91,567.22,1607.91,567.22Z"/><path class="cls-20" d="M1579.73,555s2.46-32.55,20.17-48.78,39.84-21.4,39.84-21.4a123.83,123.83,0,0,1-26.58,35.87C1595.44,536.92,1579.73,555,1579.73,555Z"/><path class="cls-20" d="M1555.24,524s16-28.49,38.85-35.74,45.65-3.43,45.65-3.43S1622.92,499.71,1600,507,1555.24,524,1555.24,524Z"/></g><g id="indigenous-08"><path class="cls-21" d="M1621.08,200.07s2.91,14.54,16.67,19.7c0,0-17.86,10.91-16.67,17.5s-1.25-11.1-15.51-18.6C1605.57,218.67,1618.17,213.06,1621.08,200.07Z"/><path class="cls-22" d="M1621.07,207.39s1.71,8.55,9.8,11.58c0,0-10.5,6.42-9.8,10.29s-.73-6.52-9.12-10.93C1612,218.33,1619.36,215,1621.07,207.39Z"/></g><g id="indigenous-07"><path class="cls-21" d="M811.55,541.79s3.11,15.54,17.82,21.06c0,0-19.09,11.66-17.82,18.7s-1.33-11.87-16.58-19.88C795,561.67,808.45,555.67,811.55,541.79Z"/><path class="cls-22" d="M811.54,549.61S813.37,558.75,822,562c0,0-11.23,6.86-10.48,11s-.78-7-9.75-11.69C801.79,561.3,809.71,557.77,811.54,549.61Z"/></g><g id="indigenous-06"><path class="cls-21" d="M943.54,79s3.17,15.86,18.18,21.49c0,0-19.47,11.89-18.18,19.08s-1.36-12.11-16.92-20.29C926.62,99.23,940.37,93.11,943.54,79Z"/><path class="cls-22" d="M943.53,86.94s1.86,9.32,10.69,12.63c0,0-11.45,7-10.69,11.21s-.8-7.11-9.95-11.92C933.58,98.86,941.66,95.26,943.53,86.94Z"/></g><g id="indigenous-05"><path class="cls-21" d="M610.6,276.63s2.87,14.36,16.47,19.46c0,0-17.64,10.78-16.47,17.29s-1.23-11-15.33-18.38C595.27,295,607.73,289.46,610.6,276.63Z"/><path class="cls-22" d="M610.59,283.86s1.69,8.45,9.68,11.44c0,0-10.37,6.34-9.68,10.17s-.73-6.45-9-10.81C601.58,294.66,608.9,291.4,610.59,283.86Z"/></g><g id="indigenous-04"><path class="cls-21" d="M1270.11,572.07s2.78,13.91,16,18.85c0,0-17.09,10.43-16,16.74s-1.2-10.62-14.84-17.8C1255.27,589.86,1267.33,584.49,1270.11,572.07Z"/><path class="cls-22" d="M1270.1,579.07s1.63,8.18,9.37,11.08c0,0-10,6.14-9.37,9.85s-.71-6.25-8.73-10.47C1261.37,589.53,1268.46,586.38,1270.1,579.07Z"/></g><g id="indigenous-03"><path class="cls-21" d="M1236.05,313.7s3.07,15.37,17.61,20.82c0,0-18.87,11.53-17.61,18.49s-1.32-11.73-16.39-19.66C1219.66,333.35,1233,327.42,1236.05,313.7Z"/><path class="cls-22" d="M1236,321.44s1.8,9,10.35,12.24c0,0-11.09,6.77-10.35,10.87s-.78-6.9-9.64-11.56C1226.4,333,1234.23,329.5,1236,321.44Z"/></g><g id="indigenous-02"><path class="cls-21" d="M146.69,938.63s2.43,12.15,13.94,16.47c0,0-14.93,9.12-13.94,14.63s-1.05-9.28-13-15.55C133.72,954.18,144.26,949.48,146.69,938.63Z"/><path class="cls-22" d="M146.68,944.75s1.43,7.14,8.19,9.68c0,0-8.78,5.36-8.19,8.6s-.62-5.45-7.63-9.14C139.05,953.89,145.25,951.13,146.68,944.75Z"/></g><g id="indigenous-01"><path class="cls-21" d="M1216.15,879.07s2.78,13.91,15.95,18.85c0,0-17.09,10.43-15.95,16.74s-1.2-10.62-14.84-17.8C1201.31,896.86,1213.37,891.49,1216.15,879.07Z"/><path class="cls-22" d="M1216.14,886.07s1.63,8.18,9.37,11.08c0,0-10,6.14-9.37,9.85s-.71-6.25-8.73-10.47C1207.41,896.53,1214.5,893.38,1216.14,886.07Z"/></g><g id="son-jarocho-07"><path class="cls-13" d="M1774.11,499c-3.09-10.34-16.82-15-16.82-15s-8.74,12.05-5.66,22.39,10.62,17.08,16.82,15.05S1777.19,509.38,1774.11,499Z"/><path class="cls-13" d="M1752.76,505.11c-10.09-2.37-20.85,7.74-20.85,7.74s5.6,13.95,15.69,16.32,19.43-1.09,20.85-7.73S1762.85,507.49,1752.76,505.11Z"/><path class="cls-13" d="M1747.11,527.51c-7,8-4,22.78-4,22.78s14.34,1.89,21.34-6.07,8.82-18.17,4-22.78S1754.12,519.54,1747.11,527.51Z"/><path class="cls-13" d="M1762.8,543.84c3.09,10.34,16.82,15,16.82,15s8.74-12.06,5.65-22.4-10.61-17.07-16.82-15S1759.72,533.5,1762.8,543.84Z"/><path class="cls-13" d="M1784.15,537.76C1794.24,540.14,1805,530,1805,530s-5.6-13.95-15.69-16.32-19.43,1.09-20.86,7.73S1774.06,535.39,1784.15,537.76Z"/><path class="cls-13" d="M1789.8,515.37c7-8,4-22.78,4-22.78s-14.34-1.9-21.34,6.07-8.82,18.17-4,22.78S1782.79,523.33,1789.8,515.37Z"/><path class="cls-23" d="M1772.16,505.52c-2.11-7.09-11.53-10.31-11.53-10.31s-6,8.26-3.88,15.35,7.28,11.71,11.54,10.32S1774.28,512.61,1772.16,505.52Z"/><path class="cls-23" d="M1757.53,509.69c-6.92-1.63-14.3,5.3-14.3,5.3s3.84,9.56,10.76,11.19,13.32-.75,14.3-5.3S1764.45,511.31,1757.53,509.69Z"/><path class="cls-23" d="M1753.65,525c-4.8,5.47-2.76,15.62-2.76,15.62s9.83,1.3,14.63-4.16,6-12.46,2.77-15.62S1758.46,519.58,1753.65,525Z"/><path class="cls-23" d="M1764.41,536.24c2.12,7.09,11.54,10.31,11.54,10.31s6-8.26,3.87-15.35-7.28-11.71-11.53-10.32S1762.3,529.15,1764.41,536.24Z"/><path class="cls-23" d="M1779.05,532.07c6.92,1.63,14.3-5.3,14.3-5.3s-3.84-9.57-10.76-11.19-13.33.74-14.3,5.3S1772.13,530.45,1779.05,532.07Z"/><path class="cls-23" d="M1782.93,516.72c4.8-5.47,2.76-15.62,2.76-15.62s-9.83-1.3-14.64,4.16-6,12.46-2.76,15.62S1778.12,522.18,1782.93,516.72Z"/><ellipse class="cls-14" cx="1767.93" cy="521.8" rx="6.66" ry="6.97"/></g><g id="son-jarocho-06"><path class="cls-13" d="M512.11,319c-3.09-10.34-16.82-15-16.82-15s-8.74,12.05-5.66,22.39,10.62,17.08,16.82,15.05S515.19,329.38,512.11,319Z"/><path class="cls-13" d="M490.76,325.11c-10.09-2.37-20.85,7.74-20.85,7.74s5.6,13.95,15.69,16.32,19.43-1.09,20.85-7.73S500.85,327.49,490.76,325.11Z"/><path class="cls-13" d="M485.11,347.51c-7,8-4,22.78-4,22.78s14.34,1.89,21.34-6.07,8.82-18.17,4-22.78S492.12,339.54,485.11,347.51Z"/><path class="cls-13" d="M500.8,363.84c3.09,10.34,16.82,15,16.82,15s8.74-12.06,5.65-22.4-10.61-17.07-16.82-15S497.72,353.5,500.8,363.84Z"/><path class="cls-13" d="M522.15,357.76C532.24,360.14,543,350,543,350s-5.6-13.95-15.69-16.32-19.43,1.09-20.86,7.73S512.06,355.39,522.15,357.76Z"/><path class="cls-13" d="M527.8,335.37c7-8,4-22.78,4-22.78s-14.34-1.9-21.34,6.07-8.82,18.17-4,22.78S520.79,343.33,527.8,335.37Z"/><path class="cls-23" d="M510.16,325.52c-2.11-7.09-11.53-10.31-11.53-10.31s-6,8.26-3.88,15.35,7.28,11.71,11.54,10.32S512.28,332.61,510.16,325.52Z"/><path class="cls-23" d="M495.53,329.69c-6.92-1.63-14.3,5.3-14.3,5.3s3.84,9.56,10.76,11.19,13.32-.75,14.3-5.3S502.45,331.31,495.53,329.69Z"/><path class="cls-23" d="M491.65,345c-4.8,5.47-2.76,15.62-2.76,15.62s9.83,1.3,14.63-4.16,6.05-12.46,2.77-15.62S496.46,339.58,491.65,345Z"/><path class="cls-23" d="M502.41,356.24c2.12,7.09,11.54,10.31,11.54,10.31s6-8.26,3.87-15.35-7.28-11.71-11.53-10.32S500.3,349.15,502.41,356.24Z"/><path class="cls-23" d="M517.05,352.07c6.92,1.63,14.3-5.3,14.3-5.3s-3.84-9.57-10.76-11.19-13.33.74-14.3,5.3S510.13,350.45,517.05,352.07Z"/><path class="cls-23" d="M520.93,336.72c4.8-5.47,2.76-15.62,2.76-15.62s-9.83-1.3-14.64,4.16-6,12.46-2.76,15.62S516.12,342.18,520.93,336.72Z"/><ellipse class="cls-14" cx="505.93" cy="341.8" rx="6.66" ry="6.97"/></g><g id="son-jarocho-05"><path class="cls-13" d="M794.11,92C791,81.7,777.29,77,777.29,77s-8.74,12-5.66,22.39,10.62,17.08,16.82,15S797.19,102.38,794.11,92Z"/><path class="cls-13" d="M772.76,98.11c-10.09-2.37-20.85,7.74-20.85,7.74s5.6,14,15.69,16.32,19.43-1.09,20.85-7.73S782.85,100.49,772.76,98.11Z"/><path class="cls-13" d="M767.11,120.51c-7,8-4,22.78-4,22.78s14.34,1.89,21.34-6.07,8.82-18.17,4-22.78S774.12,112.54,767.11,120.51Z"/><path class="cls-13" d="M782.8,136.84c3.09,10.34,16.82,15,16.82,15s8.74-12.06,5.65-22.4-10.61-17.07-16.82-15S779.72,126.5,782.8,136.84Z"/><path class="cls-13" d="M804.15,130.76C814.24,133.14,825,123,825,123s-5.6-14-15.69-16.32-19.43,1.09-20.86,7.73S794.06,128.39,804.15,130.76Z"/><path class="cls-13" d="M809.8,108.37c7-8,4-22.78,4-22.78s-14.34-1.9-21.34,6.07-8.82,18.17-4,22.78S802.79,116.33,809.8,108.37Z"/><path class="cls-23" d="M792.16,98.52c-2.11-7.09-11.53-10.31-11.53-10.31s-6,8.26-3.88,15.35,7.28,11.71,11.54,10.32S794.28,105.61,792.16,98.52Z"/><path class="cls-23" d="M777.53,102.69c-6.92-1.63-14.3,5.3-14.3,5.3s3.84,9.56,10.76,11.19,13.32-.75,14.3-5.3S784.45,104.31,777.53,102.69Z"/><path class="cls-23" d="M773.65,118c-4.8,5.47-2.76,15.62-2.76,15.62s9.83,1.3,14.63-4.16,6.05-12.46,2.77-15.62S778.46,112.58,773.65,118Z"/><path class="cls-23" d="M784.41,129.24c2.12,7.09,11.54,10.31,11.54,10.31s6-8.26,3.87-15.35-7.28-11.71-11.53-10.32S782.3,122.15,784.41,129.24Z"/><path class="cls-23" d="M799.05,125.07c6.92,1.63,14.3-5.3,14.3-5.3s-3.84-9.57-10.76-11.19-13.33.74-14.3,5.3S792.13,123.45,799.05,125.07Z"/><path class="cls-23" d="M802.93,109.72c4.8-5.47,2.76-15.62,2.76-15.62s-9.83-1.3-14.64,4.16-6,12.46-2.76,15.62S798.12,115.18,802.93,109.72Z"/><ellipse class="cls-14" cx="787.93" cy="114.8" rx="6.66" ry="6.97"/></g><g id="son-jarocho-04"><path class="cls-13" d="M150.05,787.66c-3-10.08-16.4-14.66-16.4-14.66s-8.52,11.75-5.51,21.83,10.35,16.65,16.4,14.67S153.05,797.74,150.05,787.66Z"/><path class="cls-13" d="M129.24,793.58c-9.84-2.31-20.33,7.54-20.33,7.54s5.46,13.6,15.3,15.91,18.94-1.06,20.33-7.53S139.07,795.9,129.24,793.58Z"/><path class="cls-13" d="M123.73,815.42c-6.84,7.76-3.93,22.2-3.93,22.2s14,1.85,20.81-5.92,8.59-17.71,3.93-22.2S130.56,807.65,123.73,815.42Z"/><path class="cls-13" d="M139,831.33c3,10.08,16.4,14.67,16.4,14.67s8.52-11.76,5.51-21.84-10.35-16.64-16.39-14.66S136,821.25,139,831.33Z"/><path class="cls-13" d="M159.83,825.41c9.84,2.31,20.33-7.54,20.33-7.54s-5.46-13.6-15.3-15.91-18.94,1.06-20.32,7.54S150,823.1,159.83,825.41Z"/><path class="cls-13" d="M165.34,803.58c6.84-7.77,3.93-22.21,3.93-22.21s-14-1.84-20.8,5.92-8.6,17.71-3.93,22.21S158.51,811.34,165.34,803.58Z"/><path class="cls-23" d="M148.15,794c-2.06-6.91-11.24-10.06-11.24-10.06s-5.84,8.06-3.78,15,7.09,11.42,11.24,10.06S150.21,800.89,148.15,794Z"/><path class="cls-23" d="M133.88,798c-6.74-1.59-13.94,5.17-13.94,5.17s3.75,9.32,10.49,10.91,13-.73,13.94-5.17S140.63,799.63,133.88,798Z"/><path class="cls-23" d="M130.1,813c-4.68,5.32-2.69,15.23-2.69,15.23s9.58,1.26,14.27-4.06S147.57,812,144.37,809,134.79,807.68,130.1,813Z"/><path class="cls-23" d="M140.59,823.92c2.07,6.91,11.25,10.06,11.25,10.06s5.84-8.06,3.78-15-7.1-11.42-11.25-10.06S138.53,817,140.59,823.92Z"/><path class="cls-23" d="M154.86,819.86c6.75,1.59,13.94-5.17,13.94-5.17s-3.74-9.32-10.49-10.91-13,.73-13.94,5.17S148.12,818.28,154.86,819.86Z"/><path class="cls-23" d="M158.64,804.89c4.69-5.32,2.7-15.22,2.7-15.22s-9.59-1.27-14.27,4.06-5.89,12.14-2.7,15.22S154,810.22,158.64,804.89Z"/><ellipse class="cls-14" cx="144.03" cy="809.85" rx="6.49" ry="6.8"/></g><g id="son-jarocho-03"><path class="cls-13" d="M1310.81,196.11c-3.46-11.61-18.89-16.9-18.89-16.9s-9.81,13.55-6.35,25.16,11.92,19.18,18.89,16.9S1314.27,207.72,1310.81,196.11Z"/><path class="cls-13" d="M1286.83,202.93c-11.33-2.66-23.42,8.69-23.42,8.69s6.3,15.67,17.63,18.33,21.82-1.22,23.42-8.68S1298.17,205.6,1286.83,202.93Z"/><path class="cls-13" d="M1280.48,228.09c-7.87,8.94-4.52,25.58-4.52,25.58s16.1,2.13,24-6.82,9.9-20.4,4.53-25.58S1288.36,219.14,1280.48,228.09Z"/><path class="cls-13" d="M1298.11,246.42c3.47,11.61,18.89,16.9,18.89,16.9s9.81-13.54,6.35-25.15-11.92-19.18-18.89-16.9S1294.65,234.81,1298.11,246.42Z"/><path class="cls-13" d="M1322.09,239.6c11.33,2.67,23.42-8.68,23.42-8.68s-6.3-15.67-17.63-18.34-21.82,1.23-23.42,8.69S1310.75,236.94,1322.09,239.6Z"/><path class="cls-13" d="M1328.44,214.45c7.87-8.95,4.52-25.58,4.52-25.58s-16.1-2.13-24,6.81-9.9,20.41-4.53,25.59S1320.56,223.4,1328.44,214.45Z"/><path class="cls-23" d="M1308.63,203.39c-2.38-8-13-11.59-13-11.59s-6.73,9.29-4.35,17.25,8.17,13.15,13,11.59S1311,211.35,1308.63,203.39Z"/><path class="cls-23" d="M1292.19,208.07c-7.78-1.83-16.06,6-16.06,6s4.31,10.75,12.08,12.57,15-.84,16.06-6S1300,209.89,1292.19,208.07Z"/><path class="cls-23" d="M1287.83,225.31c-5.39,6.14-3.1,17.55-3.1,17.55s11,1.46,16.44-4.68,6.79-14,3.1-17.54S1293.23,219.18,1287.83,225.31Z"/><path class="cls-23" d="M1299.92,237.89c2.37,8,12.95,11.58,12.95,11.58s6.73-9.28,4.36-17.24-8.18-13.15-13-11.59S1297.54,229.92,1299.92,237.89Z"/><path class="cls-23" d="M1316.36,233.21c7.77,1.83,16.06-6,16.06-6s-4.32-10.75-12.09-12.58-15,.84-16.06,6S1308.59,231.38,1316.36,233.21Z"/><path class="cls-23" d="M1320.71,216c5.4-6.13,3.11-17.54,3.11-17.54s-11-1.46-16.44,4.68-6.79,14-3.11,17.54S1315.32,222.1,1320.71,216Z"/><ellipse class="cls-14" cx="1303.87" cy="221.68" rx="7.48" ry="7.83"/></g><g id="son-jarocho-02"><path class="cls-13" d="M1778.81,890.11c-3.46-11.61-18.89-16.9-18.89-16.9s-9.81,13.55-6.35,25.16,11.92,19.18,18.89,16.9S1782.27,901.72,1778.81,890.11Z"/><path class="cls-13" d="M1754.83,896.93c-11.33-2.66-23.42,8.69-23.42,8.69s6.3,15.67,17.63,18.33,21.82-1.22,23.42-8.68S1766.17,899.6,1754.83,896.93Z"/><path class="cls-13" d="M1748.48,922.09c-7.87,8.94-4.52,25.58-4.52,25.58s16.1,2.13,24-6.82,9.9-20.4,4.53-25.58S1756.36,913.14,1748.48,922.09Z"/><path class="cls-13" d="M1766.11,940.42c3.47,11.61,18.89,16.9,18.89,16.9s9.81-13.54,6.35-25.15-11.92-19.18-18.89-16.9S1762.65,928.81,1766.11,940.42Z"/><path class="cls-13" d="M1790.09,933.6c11.33,2.67,23.42-8.68,23.42-8.68s-6.3-15.67-17.63-18.34-21.82,1.23-23.42,8.69S1778.75,930.94,1790.09,933.6Z"/><path class="cls-13" d="M1796.44,908.45c7.87-9,4.52-25.58,4.52-25.58s-16.1-2.13-24,6.81-9.9,20.41-4.53,25.59S1788.56,917.4,1796.44,908.45Z"/><path class="cls-23" d="M1776.63,897.39c-2.38-8-13-11.59-13-11.59s-6.73,9.29-4.35,17.25,8.17,13.15,13,11.59S1779,905.35,1776.63,897.39Z"/><path class="cls-23" d="M1760.19,902.07c-7.78-1.83-16.06,5.95-16.06,5.95s4.31,10.75,12.08,12.57,15-.84,16.06-6S1768,903.89,1760.19,902.07Z"/><path class="cls-23" d="M1755.83,919.31c-5.39,6.14-3.1,17.55-3.1,17.55s11,1.46,16.44-4.68,6.79-14,3.1-17.54S1761.23,913.18,1755.83,919.31Z"/><path class="cls-23" d="M1767.92,931.89c2.37,8,12.95,11.58,12.95,11.58s6.73-9.28,4.36-17.24-8.18-13.15-13-11.59S1765.54,923.92,1767.92,931.89Z"/><path class="cls-23" d="M1784.36,927.21c7.77,1.83,16.06-6,16.06-6s-4.32-10.75-12.09-12.58-15,.84-16.06,6S1776.59,925.38,1784.36,927.21Z"/><path class="cls-23" d="M1788.71,910c5.4-6.13,3.11-17.54,3.11-17.54s-11-1.46-16.44,4.68-6.79,14-3.11,17.54S1783.32,916.1,1788.71,910Z"/><ellipse class="cls-14" cx="1771.87" cy="915.68" rx="7.48" ry="7.83"/></g><g id="son-jarocho-01"><path class="cls-13" d="M756.35,934.84c-3.46-11.61-18.89-16.9-18.89-16.9s-9.81,13.55-6.35,25.16S743,962.28,750,960,759.81,946.45,756.35,934.84Z"/><path class="cls-13" d="M732.37,941.66C721,939,709,950.35,709,950.35s6.3,15.67,17.63,18.33S748.4,967.46,750,960,743.71,944.33,732.37,941.66Z"/><path class="cls-13" d="M726,966.82c-7.88,8.94-4.53,25.58-4.53,25.58s16.1,2.13,24-6.82,9.9-20.4,4.53-25.58S733.9,957.87,726,966.82Z"/><path class="cls-13" d="M743.65,985.15c3.47,11.61,18.89,16.9,18.89,16.9s9.82-13.54,6.35-25.16S757,957.72,750,960,740.19,973.54,743.65,985.15Z"/><path class="cls-13" d="M767.63,978.33c11.33,2.67,23.42-8.68,23.42-8.68s-6.3-15.67-17.63-18.34S751.6,952.54,750,960,756.29,975.67,767.63,978.33Z"/><path class="cls-13" d="M774,953.18c7.87-8.95,4.52-25.59,4.52-25.59s-16.1-2.12-24,6.82S744.63,954.82,750,960,766.11,962.13,774,953.18Z"/><path class="cls-23" d="M754.17,942.12c-2.38-8-13-11.59-13-11.59s-6.72,9.29-4.35,17.25,8.17,13.15,12.95,11.59S756.54,950.08,754.17,942.12Z"/><path class="cls-23" d="M737.73,946.8c-7.77-1.83-16.06,6-16.06,6s4.31,10.75,12.09,12.57,15-.84,16-6S745.5,948.62,737.73,946.8Z"/><path class="cls-23" d="M733.37,964c-5.39,6.14-3.1,17.55-3.1,17.55s11,1.45,16.44-4.68,6.79-14,3.1-17.54S738.77,957.91,733.37,964Z"/><path class="cls-23" d="M745.46,976.62c2.38,8,12.95,11.58,12.95,11.58s6.73-9.28,4.36-17.25-8.18-13.15-13-11.58S743.09,968.65,745.46,976.62Z"/><path class="cls-23" d="M761.9,971.94c7.77,1.83,16.06-6,16.06-6s-4.32-10.75-12.09-12.58-15,.84-16.06,6S754.13,970.11,761.9,971.94Z"/><path class="cls-23" d="M766.25,954.69c5.4-6.13,3.11-17.54,3.11-17.54s-11-1.46-16.44,4.68-6.79,14-3.11,17.54S760.86,960.83,766.25,954.69Z"/><ellipse class="cls-14" cx="749.41" cy="960.4" rx="7.48" ry="7.83"/></g></g></g></svg>